<svg id="_ÎÓÈ_1" data-name="—ÎÓÈ_1" xmlns="http://www.w3.org/2000/svg" xmlns:xlink="http://www.w3.org/1999/xlink" viewBox="0 0 17.31 41.55"><defs><style>.cls-1{fill:none;}.cls-2{fill:#b765e1;}.cls-3{clip-path:url(#clip-path);}.cls-4{fill:#73f0ff;}</style><clipPath id="clip-path"><rect class="cls-1" x="0.62" width="15.56" height="40.64" transform="translate(16.81 40.64) rotate(180)"/></clipPath></defs><title>trv_element</title><rect class="cls-2" width="17.31" height="41.55"/><g class="cls-3"><circle class="cls-4" cx="2.83" cy="3.21" r="0.44"/><circle class="cls-4" cx="2.83" cy="3.21" r="0.44"/><circle class="cls-4" cx="2.83" cy="9.04" r="0.44"/><circle class="cls-4" cx="2.83" cy="9.04" r="0.44"/><circle class="cls-4" cx="2.83" cy="14.87" r="0.44"/><circle class="cls-4" cx="2.83" cy="14.87" r="0.44"/><circle class="cls-4" cx="2.83" cy="20.7" r="0.44"/><circle class="cls-4" cx="2.83" cy="20.7" r="0.44"/><circle class="cls-4" cx="2.83" cy="26.53" r="0.44"/><circle class="cls-4" cx="2.83" cy="26.53" r="0.44"/><circle class="cls-4" cx="2.83" cy="32.35" r="0.44"/><circle class="cls-4" cx="2.83" cy="32.35" r="0.44"/><circle class="cls-4" cx="2.83" cy="38.18" r="0.44"/><circle class="cls-4" cx="2.83" cy="38.18" r="0.44"/><circle class="cls-4" cx="8.66" cy="3.21" r="0.44"/><circle class="cls-4" cx="8.66" cy="3.21" r="0.44"/><circle class="cls-4" cx="8.66" cy="9.04" r="0.44"/><circle class="cls-4" cx="8.66" cy="9.04" r="0.44"/><circle class="cls-4" cx="8.66" cy="14.87" r="0.44"/><circle class="cls-4" cx="8.66" cy="14.87" r="0.44"/><circle class="cls-4" cx="8.66" cy="20.7" r="0.44"/><circle class="cls-4" cx="8.66" cy="20.7" r="0.44"/><circle class="cls-4" cx="8.66" cy="26.53" r="0.44"/><circle class="cls-4" cx="8.66" cy="26.53" r="0.44"/><circle class="cls-4" cx="8.66" cy="32.35" r="0.44"/><circle class="cls-4" cx="8.66" cy="32.35" r="0.44"/><circle class="cls-4" cx="8.66" cy="38.18" r="0.44"/><circle class="cls-4" cx="8.66" cy="38.18" r="0.44"/><circle class="cls-4" cx="14.48" cy="3.21" r="0.44"/><circle class="cls-4" cx="14.48" cy="3.21" r="0.44"/><circle class="cls-4" cx="14.48" cy="9.04" r="0.44"/><circle class="cls-4" cx="14.48" cy="9.04" r="0.44"/><circle class="cls-4" cx="14.48" cy="14.87" r="0.44"/><circle class="cls-4" cx="14.48" cy="14.87" r="0.44"/><circle class="cls-4" cx="14.48" cy="20.7" r="0.44"/><circle class="cls-4" cx="14.48" cy="20.7" r="0.44"/><circle class="cls-4" cx="14.48" cy="26.53" r="0.44"/><circle class="cls-4" cx="14.48" cy="26.53" r="0.44"/><circle class="cls-4" cx="14.48" cy="32.35" r="0.44"/><circle class="cls-4" cx="14.48" cy="32.35" r="0.44"/><circle class="cls-4" cx="14.48" cy="38.18" r="0.44"/><circle class="cls-4" cx="14.48" cy="38.18" r="0.44"/></g></svg>