<svg xmlns="http://www.w3.org/2000/svg" viewBox="0 0 72.25 72.25" style=""><defs><style>.cls-1{fill:#fff;opacity:0.05;}.cls-2,.cls-4,.cls-5{fill:none;stroke:#fff;}.cls-2{stroke-linecap:round;stroke-linejoin:round;stroke-width:1.5px;}.cls-3{opacity:0.25;}.cls-4,.cls-5{stroke-miterlimit:10;}.cls-4{stroke-width:0.6px;}.cls-5{stroke-width:0.6px;}</style></defs><title>Asset 156</title><g id="Layer_2" data-name="Layer 2"><g id="Layer_1-2" data-name="Layer 1"><path class="cls-1 qRnVqhxS_0" width="57" height="57" d="M8.37 7.21 L65.37 7.21 L65.37 64.21 L8.37 64.21 Z"></path><path class="cls-2 qRnVqhxS_1" d="M24.14,31.94c2,.92,4.74,1.65,7.14.55,1.93-.89,3.43-4.16,4.32-6.7"></path><path class="cls-2 qRnVqhxS_2" d="M49,32c-2,.86-4.6,1.5-6.9.44-1.93-.89-3.43-4.16-4.33-6.7"></path><path class="cls-2 qRnVqhxS_3" width="27" height="6.22" d="M 26.21,44.68 L 47.21,44.68 A 3,3,0,0,1,50.21,47.68 L 50.21,47.9 A 3,3,0,0,1,47.21,50.9 L 26.21,50.9 A 3,3,0,0,1,23.21,47.9 L 23.21,47.68 A 3,3,0,0,1,26.21,44.68"></path><path class="cls-2 qRnVqhxS_4" d="M26.4,44.68L22.36,33.42"></path><path class="cls-2 qRnVqhxS_5" d="M47.02,44.68L51.07,33.42"></path><path class="cls-2 qRnVqhxS_6" d="M17.82,30.23A3.39,3.39 0,1,1 24.6,30.23A3.39,3.39 0,1,1 17.82,30.23"></path><path class="cls-2 qRnVqhxS_7" d="M48.82,30.23A3.39,3.39 0,1,1 55.6,30.23A3.39,3.39 0,1,1 48.82,30.23"></path><path class="cls-2 qRnVqhxS_8" d="M33.32,22.59A3.39,3.39 0,1,1 40.1,22.59A3.39,3.39 0,1,1 33.32,22.59"></path><g class="cls-3"><path class="cls-4 qRnVqhxS_9" d="M0,14.67L72.25,14.67"></path><path class="cls-4 qRnVqhxS_10" d="M0,57.21L72.25,57.21"></path><path class="cls-5 qRnVqhxS_11" d="M57.8,0L57.8,72.25"></path><path class="cls-5 qRnVqhxS_12" d="M15.27,0L15.27,72.25"></path></g></g></g><style data-made-with="vivus-instant">.qRnVqhxS_0{stroke-dasharray:228 230;stroke-dashoffset:229;animation:qRnVqhxS_draw_0 5300ms ease-in-out 0ms infinite,qRnVqhxS_fade 5300ms linear 0ms infinite;}.qRnVqhxS_1{stroke-dasharray:16 18;stroke-dashoffset:17;animation:qRnVqhxS_draw_1 5300ms ease-in-out 0ms infinite,qRnVqhxS_fade 5300ms linear 0ms infinite;}.qRnVqhxS_2{stroke-dasharray:16 18;stroke-dashoffset:17;animation:qRnVqhxS_draw_2 5300ms ease-in-out 0ms infinite,qRnVqhxS_fade 5300ms linear 0ms infinite;}.qRnVqhxS_3{stroke-dasharray:62 64;stroke-dashoffset:63;animation:qRnVqhxS_draw_3 5300ms ease-in-out 0ms infinite,qRnVqhxS_fade 5300ms linear 0ms infinite;}.qRnVqhxS_4{stroke-dasharray:12 14;stroke-dashoffset:13;animation:qRnVqhxS_draw_4 5300ms ease-in-out 0ms infinite,qRnVqhxS_fade 5300ms linear 0ms infinite;}.qRnVqhxS_5{stroke-dasharray:12 14;stroke-dashoffset:13;animation:qRnVqhxS_draw_5 5300ms ease-in-out 0ms infinite,qRnVqhxS_fade 5300ms linear 0ms infinite;}.qRnVqhxS_6{stroke-dasharray:22 24;stroke-dashoffset:23;animation:qRnVqhxS_draw_6 5300ms ease-in-out 0ms infinite,qRnVqhxS_fade 5300ms linear 0ms infinite;}.qRnVqhxS_7{stroke-dasharray:22 24;stroke-dashoffset:23;animation:qRnVqhxS_draw_7 5300ms ease-in-out 0ms infinite,qRnVqhxS_fade 5300ms linear 0ms infinite;}.qRnVqhxS_8{stroke-dasharray:22 24;stroke-dashoffset:23;animation:qRnVqhxS_draw_8 5300ms ease-in-out 0ms infinite,qRnVqhxS_fade 5300ms linear 0ms infinite;}.qRnVqhxS_9{stroke-dasharray:73 75;stroke-dashoffset:74;animation:qRnVqhxS_draw_9 5300ms ease-in-out 0ms infinite,qRnVqhxS_fade 5300ms linear 0ms infinite;}.qRnVqhxS_10{stroke-dasharray:73 75;stroke-dashoffset:74;animation:qRnVqhxS_draw_10 5300ms ease-in-out 0ms infinite,qRnVqhxS_fade 5300ms linear 0ms infinite;}.qRnVqhxS_11{stroke-dasharray:73 75;stroke-dashoffset:74;animation:qRnVqhxS_draw_11 5300ms ease-in-out 0ms infinite,qRnVqhxS_fade 5300ms linear 0ms infinite;}.qRnVqhxS_12{stroke-dasharray:73 75;stroke-dashoffset:74;animation:qRnVqhxS_draw_12 5300ms ease-in-out 0ms infinite,qRnVqhxS_fade 5300ms linear 0ms infinite;}@keyframes qRnVqhxS_draw{100%{stroke-dashoffset:0;}}@keyframes qRnVqhxS_fade{0%{stroke-opacity:1;}96.22641509433963%{stroke-opacity:1;}100%{stroke-opacity:0;}}@keyframes qRnVqhxS_draw_0{15.09433962264151%{stroke-dashoffset: 229}40.25157232704403%{ stroke-dashoffset: 0;}100%{ stroke-dashoffset: 0;}}@keyframes qRnVqhxS_draw_1{16.142557651991616%{stroke-dashoffset: 17}41.29979035639413%{ stroke-dashoffset: 0;}100%{ stroke-dashoffset: 0;}}@keyframes qRnVqhxS_draw_2{17.19077568134172%{stroke-dashoffset: 17}42.34800838574424%{ stroke-dashoffset: 0;}100%{ stroke-dashoffset: 0;}}@keyframes qRnVqhxS_draw_3{18.238993710691823%{stroke-dashoffset: 63}43.39622641509434%{ stroke-dashoffset: 0;}100%{ stroke-dashoffset: 0;}}@keyframes qRnVqhxS_draw_4{19.28721174004193%{stroke-dashoffset: 13}44.44444444444445%{ stroke-dashoffset: 0;}100%{ stroke-dashoffset: 0;}}@keyframes qRnVqhxS_draw_5{20.335429769392036%{stroke-dashoffset: 13}45.49266247379455%{ stroke-dashoffset: 0;}100%{ stroke-dashoffset: 0;}}@keyframes qRnVqhxS_draw_6{21.383647798742135%{stroke-dashoffset: 23}46.54088050314466%{ stroke-dashoffset: 0;}100%{ stroke-dashoffset: 0;}}@keyframes qRnVqhxS_draw_7{22.431865828092242%{stroke-dashoffset: 23}47.589098532494766%{ stroke-dashoffset: 0;}100%{ stroke-dashoffset: 0;}}@keyframes qRnVqhxS_draw_8{23.480083857442345%{stroke-dashoffset: 23}48.63731656184486%{ stroke-dashoffset: 0;}100%{ stroke-dashoffset: 0;}}@keyframes qRnVqhxS_draw_9{24.528301886792452%{stroke-dashoffset: 74}49.68553459119497%{ stroke-dashoffset: 0;}100%{ stroke-dashoffset: 0;}}@keyframes qRnVqhxS_draw_10{25.57651991614256%{stroke-dashoffset: 74}50.73375262054508%{ stroke-dashoffset: 0;}100%{ stroke-dashoffset: 0;}}@keyframes qRnVqhxS_draw_11{26.62473794549266%{stroke-dashoffset: 74}51.78197064989518%{ stroke-dashoffset: 0;}100%{ stroke-dashoffset: 0;}}@keyframes qRnVqhxS_draw_12{27.67295597484277%{stroke-dashoffset: 74}52.83018867924528%{ stroke-dashoffset: 0;}100%{ stroke-dashoffset: 0;}}</style></svg>