<svg xmlns="http://www.w3.org/2000/svg" viewBox="0 0 72.25 72.25"><defs><style>.cls-1{fill:#fff;opacity:0.05;}.cls-2,.cls-4,.cls-5{fill:none;stroke:#fff;}.cls-2{stroke-linecap:round;stroke-linejoin:round;stroke-width:1.5px;}.cls-3{opacity:0.25;}.cls-4,.cls-5{stroke-miterlimit:10;}.cls-4{stroke-width:0.6px;}.cls-5{stroke-width:0.6px;}</style></defs><title>Asset 163</title><g id="Layer_2" data-name="Layer 2"><g id="Layer_1-2" data-name="Layer 1"><rect class="cls-1" x="7.76" y="7.62" width="57" height="57"/><path class="cls-2" d="M25.09,34V48.92c0,2,.27,4.33,5.28,4.33h5.75"/><path class="cls-2" d="M25.09,36.16H21.45c-1.1,0-1.92,1.37-1.92,4.46s3.58,2.9,5.5,2.9"/><path class="cls-2" d="M20.42,43.16v4.46c0,1.17,2.21,3.36,4.68,3.36"/><path class="cls-2" d="M47.38,34V48.92c0,2-.27,4.33-5.28,4.33H36.35"/><path class="cls-2" d="M48.38,36.16H51c1.1,0,1.92,1.37,1.92,4.46s-2.58,2.9-4.5,2.9"/><path class="cls-2" d="M52.06,43.16v4.46c0,1.17-2.21,3.36-4.68,3.36"/><path class="cls-2" d="M27.08,29.78"/><path class="cls-2" d="M32.1,22.3a4.25,4.25,0,1,1,8.5,0"/><path class="cls-2" d="M44,41H28.57c-1.33,0-4.43-10.09-4.43-11.43V25a2.43,2.43,0,0,1,2.43-2.43H46A2.43,2.43,0,0,1,48.38,25v4.58C48.38,30.95,45.29,41,44,41Z"/><path class="cls-2" d="M25.09,36.16H21.45c-1.1,0-1.92,1.37-1.92,4.46s3.58,2.9,5.5,2.9"/><path class="cls-2" d="M20.42,43.16v4.46c0,1.17,2.21,3.36,4.68,3.36"/><path class="cls-2" d="M48.38,36.16H51c1.1,0,1.92,1.37,1.92,4.46s-2.58,2.9-4.5,2.9"/><path class="cls-2" d="M52.06,43.16v4.46c0,1.17-2.21,3.36-4.68,3.36"/><path class="cls-2" d="M27.08,29.78"/><path class="cls-2" d="M32.1,22.3a4.25,4.25,0,1,1,8.5,0"/><g class="cls-3"><line class="cls-4" y1="14.67" x2="72.25" y2="14.67"/><line class="cls-4" y1="57.21" x2="72.25" y2="57.21"/><line class="cls-5" x1="57.8" x2="57.8" y2="72.25"/><line class="cls-5" x1="15.27" x2="15.27" y2="72.25"/></g></g></g></svg>