<svg xmlns="http://www.w3.org/2000/svg" viewBox="0 0 72.25 72.25"><defs><style>.cls-1{fill:#fff;opacity:0.05;}.cls-2,.cls-4,.cls-5{fill:none;stroke:#fff;}.cls-2{stroke-linecap:round;stroke-linejoin:round;stroke-width:1.5px;}.cls-3{opacity:0.25;}.cls-4,.cls-5{stroke-miterlimit:10;}.cls-4{stroke-width:0.6px;}.cls-5{stroke-width:0.6px;}</style></defs><title>Asset 155</title><g id="Layer_2" data-name="Layer 2"><g id="Layer_1-2" data-name="Layer 1"><rect class="cls-1" x="7.96" y="7.62" width="57" height="57"/><path class="cls-2" d="M21.61,40.7v7A4.16,4.16,0,0,0,26,51.07c3.13,0,5.83-3.12,10.48-3.12"/><path class="cls-2" d="M36.46,21.82c-2.65,0-2.15-1.94-3.9-1.94s-3.83-.44-5,2.75S24.11,34,24.11,34"/><circle class="cls-2" cx="28.9" cy="43.48" r="2.41"/><path class="cls-2" d="M51.32,40.7v7a4.16,4.16,0,0,1-4.37,3.38c-3.12,0-5.83-3.12-10.48-3.12"/><path class="cls-2" d="M36.46,21.82c2.65,0,2.15-1.94,3.9-1.94s3.83-.44,5,2.75S48.82,34,48.82,34"/><circle class="cls-2" cx="44.03" cy="43.48" r="2.41"/><path class="cls-2" d="M52.63,40.11s-8.52,1-16.17,1c-6.18,0-16.17-1-16.17-1A3.13,3.13,0,0,1,17,37.2h0a3.13,3.13,0,0,1,3.29-2.92s9.27,1,16.17,1c7.44,0,16.17-1,16.17-1a3.13,3.13,0,0,1,3.29,2.92h0A3.13,3.13,0,0,1,52.63,40.11Z"/><g class="cls-3"><line class="cls-4" y1="14.67" x2="72.25" y2="14.67"/><line class="cls-4" y1="57.21" x2="72.25" y2="57.21"/><line class="cls-5" x1="57.8" x2="57.8" y2="72.25"/><line class="cls-5" x1="15.27" x2="15.27" y2="72.25"/></g></g></g></svg>