<svg xmlns="http://www.w3.org/2000/svg" viewBox="0 0 72.25 72.25"><defs><style>.cls-1{fill:#fff;opacity:0.05;}.cls-2,.cls-4,.cls-5{fill:none;stroke:#fff;}.cls-2{stroke-linecap:round;stroke-linejoin:round;stroke-width:1.37px;}.cls-3{opacity:0.25;}.cls-4,.cls-5{stroke-miterlimit:10;}.cls-4{stroke-width:0.6px;}.cls-5{stroke-width:0.6px;}</style></defs><title>Asset 162</title><g id="Layer_2" data-name="Layer 2"><g id="Layer_1-2" data-name="Layer 1"><rect class="cls-1" x="7.96" y="7.62" width="57" height="57"/><circle class="cls-2" cx="48.42" cy="46.22" r="5.04"/><path class="cls-2" d="M27.29,33.26H51.76c3.66,0,5.72,1.45,5.72,5.27v7.69h-4"/><path class="cls-2" d="M19,46.22H15.51V40.84a7.6,7.6,0,0,1,7.27-7.54"/><polyline class="cls-2" points="30.47 24.56 40.27 24.56 47.89 33.26"/><line class="cls-2" x1="21.84" y1="33.26" x2="23.33" y2="30.93"/><line class="cls-2" x1="30.93" y1="46.22" x2="42.91" y2="46.22"/><line class="cls-2" x1="51.32" y1="23.18" x2="46.59" y2="33.26"/><line class="cls-2" x1="32.88" y1="36.8" x2="36.46" y2="36.8"/><path class="cls-2" d="M22.49,19.7a5.58,5.58,0,0,0,.84,10.4V40.92a5.7,5.7,0,1,0,3.43,0V30a5.58,5.58,0,0,0,.51-10.29"/><polyline class="cls-2" points="27.28 19.7 27.29 25.71 22.49 25.71 22.49 19.7"/><polygon class="cls-2" points="26.25 44.11 23.74 44.11 22.48 46.28 23.74 48.46 26.25 48.46 27.5 46.28 26.25 44.11"/><path class="cls-2" d="M51.76,33.32s-1.27,2-.44,3C53.1,38.38,52.91,38,57.47,38"/><g class="cls-3"><line class="cls-4" y1="14.67" x2="72.25" y2="14.67"/><line class="cls-4" y1="57.21" x2="72.25" y2="57.21"/><line class="cls-5" x1="57.8" x2="57.8" y2="72.25"/><line class="cls-5" x1="15.27" x2="15.27" y2="72.25"/></g></g></g></svg>