<svg xmlns="http://www.w3.org/2000/svg" viewBox="0 0 72.25 72.25"><defs><style>.cls-1{fill:#fff;opacity:0.05;}.cls-2,.cls-4,.cls-5{fill:none;stroke:#fff;}.cls-2{stroke-linecap:round;stroke-linejoin:round;stroke-width:1.5px;}.cls-3{opacity:0.25;}.cls-4,.cls-5{stroke-miterlimit:10;}.cls-4{stroke-width:0.6px;}.cls-5{stroke-width:0.6px;}</style></defs><title>Asset 156</title><g id="Layer_2" data-name="Layer 2"><g id="Layer_1-2" data-name="Layer 1"><rect class="cls-1" x="8.37" y="7.21" width="57" height="57"/><path class="cls-2" d="M24.14,31.94c2,.92,4.74,1.65,7.14.55,1.93-.89,3.43-4.16,4.32-6.7"/><path class="cls-2" d="M49,32c-2,.86-4.6,1.5-6.9.44-1.93-.89-3.43-4.16-4.33-6.7"/><rect class="cls-2" x="23.21" y="44.68" width="27" height="6.22" rx="3.11" ry="3.11"/><line class="cls-2" x1="26.4" y1="44.68" x2="22.36" y2="33.42"/><line class="cls-2" x1="47.02" y1="44.68" x2="51.07" y2="33.42"/><circle class="cls-2" cx="21.21" cy="30.23" r="3.39"/><circle class="cls-2" cx="52.21" cy="30.23" r="3.39"/><circle class="cls-2" cx="36.71" cy="22.59" r="3.39"/><g class="cls-3"><line class="cls-4" y1="14.67" x2="72.25" y2="14.67"/><line class="cls-4" y1="57.21" x2="72.25" y2="57.21"/><line class="cls-5" x1="57.8" x2="57.8" y2="72.25"/><line class="cls-5" x1="15.27" x2="15.27" y2="72.25"/></g></g></g></svg>