<svg xmlns="http://www.w3.org/2000/svg" viewBox="0 0 72.25 72.25"><defs><style>.cls-1{fill:#fff;opacity:0.05;}.cls-2,.cls-4,.cls-5{fill:none;stroke:#fff;}.cls-2{stroke-linecap:round;stroke-linejoin:round;stroke-width:1.5px;}.cls-3{opacity:0.25;}.cls-4,.cls-5{stroke-miterlimit:10;}.cls-4{stroke-width:0.6px;}.cls-5{stroke-width:0.6px;}</style></defs><title>Asset 159</title><g id="Layer_2" data-name="Layer 2"><g id="Layer_1-2" data-name="Layer 1"><rect class="cls-1" x="7.9" y="7.62" width="57" height="57"/><polyline class="cls-2" points="23.73 45.96 23.73 51.96 27.73 51.96 27.73 45.3"/><path class="cls-2" d="M23.73,31.63V25.34c0-4,3.33-4,12.33-4"/><path class="cls-2" d="M29.23,31.63V28.48c0-1.81.83-2.86,3.33-2.86,3.5,0,3.5,1.33,3.5,1.33v4.68H26.73c-5.33,0-7.33,2-7.33,13H36.07"/><polyline class="cls-2" points="48.73 45.96 48.73 51.96 44.73 51.96 44.73 45.3"/><path class="cls-2" d="M48.73,31.63V25.71c0-4-3.33-4.42-12.33-4.42"/><path class="cls-2" d="M43.23,31.63V28.8c0-2.12-.51-3.18-3.33-3.18-3.5,0-3.5,1.63-3.5,1.63v4.38h9.33c5.33,0,7.33,2,7.33,13H36.4"/><g class="cls-3"><line class="cls-4" y1="14.67" x2="72.25" y2="14.67"/><line class="cls-4" y1="57.21" x2="72.25" y2="57.21"/><line class="cls-5" x1="57.8" x2="57.8" y2="72.25"/><line class="cls-5" x1="15.27" x2="15.27" y2="72.25"/></g></g></g></svg>