<svg xmlns="http://www.w3.org/2000/svg" viewBox="0 0 72.25 72.25"><defs><style>.cls-1{fill:#fff;opacity:0.05;}.cls-2,.cls-4,.cls-5{fill:none;stroke:#fff;}.cls-2{stroke-linecap:round;stroke-linejoin:round;stroke-width:1.5px;}.cls-3{opacity:0.25;}.cls-4,.cls-5{stroke-miterlimit:10;}.cls-4{stroke-width:0.6px;}.cls-5{stroke-width:0.6px;}</style></defs><title>Asset 158</title><g id="Layer_2" data-name="Layer 2"><g id="Layer_1-2" data-name="Layer 1"><rect class="cls-1" x="8.04" y="7.62" width="57" height="57"/><path class="cls-2" d="M40.84,45.85S42.39,31,42.39,24.45a5.85,5.85,0,0,0-11.71,0c0,7.81,1.5,21.4,1.5,21.4"/><polyline class="cls-2" points="32.18 45.85 25.82 48.6 26.82 53.23 36.54 49.93"/><polyline class="cls-2" points="40.84 45.85 47.26 48.6 46.26 53.23 36.54 49.93"/><polyline class="cls-2" points="30.69 29.23 15.42 33.98 16.3 38.23 31.18 38.23"/><path class="cls-2" d="M26.36,30.49V29.1c0-.75-1.1-1.12-3-1.12s-3,.93-3,1.43v2.82"/><polyline class="cls-2" points="42.39 29.23 57.66 33.98 56.78 38.23 41.9 38.23"/><path class="cls-2" d="M46.72,30.49V29.1c0-.75,1.1-1.12,3-1.12s3,.93,3,1.43v2.82"/><g class="cls-3"><line class="cls-4" y1="14.67" x2="72.25" y2="14.67"/><line class="cls-4" y1="57.21" x2="72.25" y2="57.21"/><line class="cls-5" x1="57.8" x2="57.8" y2="72.25"/><line class="cls-5" x1="15.27" x2="15.27" y2="72.25"/></g></g></g></svg>