<svg xmlns="http://www.w3.org/2000/svg" viewBox="0 0 72.25 72.25" style=""><defs><style>.cls-1{fill:#fff;opacity:0.05;}.cls-2,.cls-4,.cls-5{fill:none;stroke:#fff;}.cls-2{stroke-linecap:round;stroke-linejoin:round;stroke-width:1.5px;}.cls-3{opacity:0.25;}.cls-4,.cls-5{stroke-miterlimit:10;}.cls-4{stroke-width:0.6px;}.cls-5{stroke-width:0.6px;}</style></defs><title>Asset 155</title><g id="Layer_2" data-name="Layer 2"><g id="Layer_1-2" data-name="Layer 1"><path class="cls-1 Qkwzpfjm_0" width="57" height="57" d="M7.96 7.62 L64.96 7.62 L64.96 64.62 L7.96 64.62 Z"></path><path class="cls-2 Qkwzpfjm_1" d="M21.61,40.7v7A4.16,4.16,0,0,0,26,51.07c3.13,0,5.83-3.12,10.48-3.12"></path><path class="cls-2 Qkwzpfjm_2" d="M36.46,21.82c-2.65,0-2.15-1.94-3.9-1.94s-3.83-.44-5,2.75S24.11,34,24.11,34"></path><path class="cls-2 Qkwzpfjm_3" d="M26.49,43.48A2.41,2.41 0,1,1 31.31,43.48A2.41,2.41 0,1,1 26.49,43.48"></path><path class="cls-2 Qkwzpfjm_4" d="M51.32,40.7v7a4.16,4.16,0,0,1-4.37,3.38c-3.12,0-5.83-3.12-10.48-3.12"></path><path class="cls-2 Qkwzpfjm_5" d="M36.46,21.82c2.65,0,2.15-1.94,3.9-1.94s3.83-.44,5,2.75S48.82,34,48.82,34"></path><path class="cls-2 Qkwzpfjm_6" d="M41.620000000000005,43.48A2.41,2.41 0,1,1 46.44,43.48A2.41,2.41 0,1,1 41.620000000000005,43.48"></path><path class="cls-2 Qkwzpfjm_7" d="M52.63,40.11s-8.52,1-16.17,1c-6.18,0-16.17-1-16.17-1A3.13,3.13,0,0,1,17,37.2h0a3.13,3.13,0,0,1,3.29-2.92s9.27,1,16.17,1c7.44,0,16.17-1,16.17-1a3.13,3.13,0,0,1,3.29,2.92h0A3.13,3.13,0,0,1,52.63,40.11Z"></path><g class="cls-3"><path class="cls-4 Qkwzpfjm_8" d="M0,14.67L72.25,14.67"></path><path class="cls-4 Qkwzpfjm_9" d="M0,57.21L72.25,57.21"></path><path class="cls-5 Qkwzpfjm_10" d="M57.8,0L57.8,72.25"></path><path class="cls-5 Qkwzpfjm_11" d="M15.27,0L15.27,72.25"></path></g></g></g><style data-made-with="vivus-instant">.Qkwzpfjm_0{stroke-dasharray:228 230;stroke-dashoffset:229;animation:Qkwzpfjm_draw_0 5300ms ease-in-out 0ms infinite,Qkwzpfjm_fade 5300ms linear 0ms infinite;}.Qkwzpfjm_1{stroke-dasharray:25 27;stroke-dashoffset:26;animation:Qkwzpfjm_draw_1 5300ms ease-in-out 0ms infinite,Qkwzpfjm_fade 5300ms linear 0ms infinite;}.Qkwzpfjm_2{stroke-dasharray:23 25;stroke-dashoffset:24;animation:Qkwzpfjm_draw_2 5300ms ease-in-out 0ms infinite,Qkwzpfjm_fade 5300ms linear 0ms infinite;}.Qkwzpfjm_3{stroke-dasharray:16 18;stroke-dashoffset:17;animation:Qkwzpfjm_draw_3 5300ms ease-in-out 0ms infinite,Qkwzpfjm_fade 5300ms linear 0ms infinite;}.Qkwzpfjm_4{stroke-dasharray:25 27;stroke-dashoffset:26;animation:Qkwzpfjm_draw_4 5300ms ease-in-out 0ms infinite,Qkwzpfjm_fade 5300ms linear 0ms infinite;}.Qkwzpfjm_5{stroke-dasharray:23 25;stroke-dashoffset:24;animation:Qkwzpfjm_draw_5 5300ms ease-in-out 0ms infinite,Qkwzpfjm_fade 5300ms linear 0ms infinite;}.Qkwzpfjm_6{stroke-dasharray:16 18;stroke-dashoffset:17;animation:Qkwzpfjm_draw_6 5300ms ease-in-out 0ms infinite,Qkwzpfjm_fade 5300ms linear 0ms infinite;}.Qkwzpfjm_7{stroke-dasharray:85 87;stroke-dashoffset:86;animation:Qkwzpfjm_draw_7 5300ms ease-in-out 0ms infinite,Qkwzpfjm_fade 5300ms linear 0ms infinite;}.Qkwzpfjm_8{stroke-dasharray:73 75;stroke-dashoffset:74;animation:Qkwzpfjm_draw_8 5300ms ease-in-out 0ms infinite,Qkwzpfjm_fade 5300ms linear 0ms infinite;}.Qkwzpfjm_9{stroke-dasharray:73 75;stroke-dashoffset:74;animation:Qkwzpfjm_draw_9 5300ms ease-in-out 0ms infinite,Qkwzpfjm_fade 5300ms linear 0ms infinite;}.Qkwzpfjm_10{stroke-dasharray:73 75;stroke-dashoffset:74;animation:Qkwzpfjm_draw_10 5300ms ease-in-out 0ms infinite,Qkwzpfjm_fade 5300ms linear 0ms infinite;}.Qkwzpfjm_11{stroke-dasharray:73 75;stroke-dashoffset:74;animation:Qkwzpfjm_draw_11 5300ms ease-in-out 0ms infinite,Qkwzpfjm_fade 5300ms linear 0ms infinite;}@keyframes Qkwzpfjm_draw{100%{stroke-dashoffset:0;}}@keyframes Qkwzpfjm_fade{0%{stroke-opacity:1;}96.22641509433963%{stroke-opacity:1;}100%{stroke-opacity:0;}}@keyframes Qkwzpfjm_draw_0{15.09433962264151%{stroke-dashoffset: 229}40.25157232704403%{ stroke-dashoffset: 0;}100%{ stroke-dashoffset: 0;}}@keyframes Qkwzpfjm_draw_1{16.23785020011435%{stroke-dashoffset: 26}41.39508290451687%{ stroke-dashoffset: 0;}100%{ stroke-dashoffset: 0;}}@keyframes Qkwzpfjm_draw_2{17.381360777587194%{stroke-dashoffset: 24}42.538593481989714%{ stroke-dashoffset: 0;}100%{ stroke-dashoffset: 0;}}@keyframes Qkwzpfjm_draw_3{18.524871355060032%{stroke-dashoffset: 17}43.682104059462546%{ stroke-dashoffset: 0;}100%{ stroke-dashoffset: 0;}}@keyframes Qkwzpfjm_draw_4{19.668381932532878%{stroke-dashoffset: 26}44.8256146369354%{ stroke-dashoffset: 0;}100%{ stroke-dashoffset: 0;}}@keyframes Qkwzpfjm_draw_5{20.811892510005716%{stroke-dashoffset: 24}45.96912521440824%{ stroke-dashoffset: 0;}100%{ stroke-dashoffset: 0;}}@keyframes Qkwzpfjm_draw_6{21.955403087478555%{stroke-dashoffset: 17}47.112635791881075%{ stroke-dashoffset: 0;}100%{ stroke-dashoffset: 0;}}@keyframes Qkwzpfjm_draw_7{23.0989136649514%{stroke-dashoffset: 86}48.25614636935393%{ stroke-dashoffset: 0;}100%{ stroke-dashoffset: 0;}}@keyframes Qkwzpfjm_draw_8{24.24242424242424%{stroke-dashoffset: 74}49.39965694682675%{ stroke-dashoffset: 0;}100%{ stroke-dashoffset: 0;}}@keyframes Qkwzpfjm_draw_9{25.38593481989708%{stroke-dashoffset: 74}50.543167524299605%{ stroke-dashoffset: 0;}100%{ stroke-dashoffset: 0;}}@keyframes Qkwzpfjm_draw_10{26.529445397369926%{stroke-dashoffset: 74}51.68667810177244%{ stroke-dashoffset: 0;}100%{ stroke-dashoffset: 0;}}@keyframes Qkwzpfjm_draw_11{27.67295597484277%{stroke-dashoffset: 74}52.83018867924528%{ stroke-dashoffset: 0;}100%{ stroke-dashoffset: 0;}}</style></svg>