<svg xmlns="http://www.w3.org/2000/svg" viewBox="0 0 72.25 72.25"><defs><style>.cls-1{fill:#fff;opacity:0.05;}.cls-2,.cls-4,.cls-5{fill:none;stroke:#fff;}.cls-2{stroke-linecap:round;stroke-linejoin:round;stroke-width:1.5px;}.cls-3{opacity:0.25;}.cls-4,.cls-5{stroke-miterlimit:10;}.cls-4{stroke-width:0.6px;}.cls-5{stroke-width:0.6px;}</style></defs><title>Asset 147</title><g id="Layer_2" data-name="Layer 2"><g id="Layer_1-2" data-name="Layer 1"><rect class="cls-1" x="7.69" y="7.43" width="57" height="57"/><polyline class="cls-2" points="36.19 29.76 21.92 29.76 19.09 36.59 33.58 40.56"/><polyline class="cls-2" points="21.27 37.19 21.27 50.79 36.36 50.79"/><polyline class="cls-2" points="36.19 29.76 50.46 29.76 53.3 36.59 38.67 40.6"/><polyline class="cls-2" points="51.11 37.19 51.11 50.79 36.57 50.79"/><path class="cls-2" d="M29.71,29.76V24.71a6.42,6.42,0,1,1,12.83,0v5.05"/><rect class="cls-2" x="33.58" y="37.93" width="5.08" height="6.06" rx="1.27" ry="1.27"/><g class="cls-3"><line class="cls-4" y1="14.67" x2="72.25" y2="14.67"/><line class="cls-4" y1="57.21" x2="72.25" y2="57.21"/><line class="cls-5" x1="57.8" x2="57.8" y2="72.25"/><line class="cls-5" x1="15.27" x2="15.27" y2="72.25"/></g></g></g></svg>