<svg xmlns="http://www.w3.org/2000/svg" viewBox="0 0 72.25 72.25" style=""><defs><style>.cls-1{fill:#fff;opacity:0.05;}.cls-2,.cls-4,.cls-5{fill:none;stroke:#fff;}.cls-2{stroke-linecap:round;stroke-linejoin:round;stroke-width:1.5px;}.cls-3{opacity:0.25;}.cls-4,.cls-5{stroke-miterlimit:10;}.cls-4{stroke-width:0.6px;}.cls-5{stroke-width:0.6px;}</style></defs><title>Asset 148</title><g id="Layer_2" data-name="Layer 2"><g id="Layer_1-2" data-name="Layer 1"><path class="cls-1 VmgaaeTY_0" width="57" height="57" d="M7.63 7.49 L64.63 7.49 L64.63 64.49 L7.63 64.49 Z"></path><path class="cls-2 VmgaaeTY_1" d="M22.26,38V32.28a13.86,13.86,0,0,1,27.73,0V38"></path><path class="cls-2 VmgaaeTY_2" d="M26.36,35.39v-3a9.76,9.76,0,0,1,19.53,0v3.72"></path><path class="cls-2 VmgaaeTY_3" d="M27.17,49.94a6.78,6.78,0,1,1,0-13.56Z"></path><path class="cls-2 VmgaaeTY_4" width="4.92" height="17.5" d="M 28.17,34.49 L 31.090000000000003,34.49 A 1,1,0,0,1,32.09,35.49 L 32.09,50.99 A 1,1,0,0,1,31.090000000000003,51.99 L 28.17,51.99 A 1,1,0,0,1,27.17,50.99 L 27.17,35.49 A 1,1,0,0,1,28.17,34.49"></path><path class="cls-2 VmgaaeTY_5" d="M45.05,49.94a6.78,6.78,0,0,0,0-13.56Z"></path><path class="cls-2 VmgaaeTY_6" width="4.92" height="17.5" transform="translate(85.18 86.48) rotate(-180)" d="M 41.13,34.49 L 44.050000000000004,34.49 A 1,1,0,0,1,45.050000000000004,35.49 L 45.050000000000004,50.99 A 1,1,0,0,1,44.050000000000004,51.99 L 41.13,51.99 A 1,1,0,0,1,40.13,50.99 L 40.13,35.49 A 1,1,0,0,1,41.13,34.49"></path><g class="cls-3"><path class="cls-4 VmgaaeTY_7" d="M0,14.67L72.25,14.67"></path><path class="cls-4 VmgaaeTY_8" d="M0,57.21L72.25,57.21"></path><path class="cls-5 VmgaaeTY_9" d="M57.8,0L57.8,72.25"></path><path class="cls-5 VmgaaeTY_10" d="M15.27,0L15.27,72.25"></path></g></g></g><style data-made-with="vivus-instant">.VmgaaeTY_0{stroke-dasharray:228 230;stroke-dashoffset:229;animation:VmgaaeTY_draw_0 5300ms ease-in-out 0ms infinite,VmgaaeTY_fade 5300ms linear 0ms infinite;}.VmgaaeTY_1{stroke-dasharray:56 58;stroke-dashoffset:57;animation:VmgaaeTY_draw_1 5300ms ease-in-out 0ms infinite,VmgaaeTY_fade 5300ms linear 0ms infinite;}.VmgaaeTY_2{stroke-dasharray:38 40;stroke-dashoffset:39;animation:VmgaaeTY_draw_2 5300ms ease-in-out 0ms infinite,VmgaaeTY_fade 5300ms linear 0ms infinite;}.VmgaaeTY_3{stroke-dasharray:35 37;stroke-dashoffset:36;animation:VmgaaeTY_draw_3 5300ms ease-in-out 0ms infinite,VmgaaeTY_fade 5300ms linear 0ms infinite;}.VmgaaeTY_4{stroke-dasharray:44 46;stroke-dashoffset:45;animation:VmgaaeTY_draw_4 5300ms ease-in-out 0ms infinite,VmgaaeTY_fade 5300ms linear 0ms infinite;}.VmgaaeTY_5{stroke-dasharray:35 37;stroke-dashoffset:36;animation:VmgaaeTY_draw_5 5300ms ease-in-out 0ms infinite,VmgaaeTY_fade 5300ms linear 0ms infinite;}.VmgaaeTY_6{stroke-dasharray:44 46;stroke-dashoffset:45;animation:VmgaaeTY_draw_6 5300ms ease-in-out 0ms infinite,VmgaaeTY_fade 5300ms linear 0ms infinite;}.VmgaaeTY_7{stroke-dasharray:73 75;stroke-dashoffset:74;animation:VmgaaeTY_draw_7 5300ms ease-in-out 0ms infinite,VmgaaeTY_fade 5300ms linear 0ms infinite;}.VmgaaeTY_8{stroke-dasharray:73 75;stroke-dashoffset:74;animation:VmgaaeTY_draw_8 5300ms ease-in-out 0ms infinite,VmgaaeTY_fade 5300ms linear 0ms infinite;}.VmgaaeTY_9{stroke-dasharray:73 75;stroke-dashoffset:74;animation:VmgaaeTY_draw_9 5300ms ease-in-out 0ms infinite,VmgaaeTY_fade 5300ms linear 0ms infinite;}.VmgaaeTY_10{stroke-dasharray:73 75;stroke-dashoffset:74;animation:VmgaaeTY_draw_10 5300ms ease-in-out 0ms infinite,VmgaaeTY_fade 5300ms linear 0ms infinite;}@keyframes VmgaaeTY_draw{100%{stroke-dashoffset:0;}}@keyframes VmgaaeTY_fade{0%{stroke-opacity:1;}96.22641509433963%{stroke-opacity:1;}100%{stroke-opacity:0;}}@keyframes VmgaaeTY_draw_0{15.09433962264151%{stroke-dashoffset: 229}40.25157232704403%{ stroke-dashoffset: 0;}100%{ stroke-dashoffset: 0;}}@keyframes VmgaaeTY_draw_1{16.352201257861633%{stroke-dashoffset: 57}41.509433962264154%{ stroke-dashoffset: 0;}100%{ stroke-dashoffset: 0;}}@keyframes VmgaaeTY_draw_2{17.61006289308176%{stroke-dashoffset: 39}42.767295597484285%{ stroke-dashoffset: 0;}100%{ stroke-dashoffset: 0;}}@keyframes VmgaaeTY_draw_3{18.867924528301888%{stroke-dashoffset: 36}44.0251572327044%{ stroke-dashoffset: 0;}100%{ stroke-dashoffset: 0;}}@keyframes VmgaaeTY_draw_4{20.12578616352201%{stroke-dashoffset: 45}45.28301886792453%{ stroke-dashoffset: 0;}100%{ stroke-dashoffset: 0;}}@keyframes VmgaaeTY_draw_5{21.383647798742135%{stroke-dashoffset: 36}46.54088050314466%{ stroke-dashoffset: 0;}100%{ stroke-dashoffset: 0;}}@keyframes VmgaaeTY_draw_6{22.641509433962266%{stroke-dashoffset: 45}47.79874213836478%{ stroke-dashoffset: 0;}100%{ stroke-dashoffset: 0;}}@keyframes VmgaaeTY_draw_7{23.899371069182386%{stroke-dashoffset: 74}49.056603773584904%{ stroke-dashoffset: 0;}100%{ stroke-dashoffset: 0;}}@keyframes VmgaaeTY_draw_8{25.157232704402517%{stroke-dashoffset: 74}50.31446540880504%{ stroke-dashoffset: 0;}100%{ stroke-dashoffset: 0;}}@keyframes VmgaaeTY_draw_9{26.41509433962264%{stroke-dashoffset: 74}51.57232704402516%{ stroke-dashoffset: 0;}100%{ stroke-dashoffset: 0;}}@keyframes VmgaaeTY_draw_10{27.67295597484277%{stroke-dashoffset: 74}52.83018867924528%{ stroke-dashoffset: 0;}100%{ stroke-dashoffset: 0;}}</style></svg>