<svg xmlns="http://www.w3.org/2000/svg" viewBox="0 0 72.25 72.25"><defs><style>.cls-1{fill:#fff;opacity:0.05;}.cls-2,.cls-4,.cls-5{fill:none;stroke:#fff;}.cls-2{stroke-linecap:round;stroke-linejoin:round;stroke-width:1.5px;}.cls-3{opacity:0.25;}.cls-4,.cls-5{stroke-miterlimit:10;}.cls-4{stroke-width:0.6px;}.cls-5{stroke-width:0.6px;}</style></defs><title>Asset 148</title><g id="Layer_2" data-name="Layer 2"><g id="Layer_1-2" data-name="Layer 1"><rect class="cls-1" x="7.63" y="7.49" width="57" height="57"/><path class="cls-2" d="M22.26,38V32.28a13.86,13.86,0,0,1,27.73,0V38"/><path class="cls-2" d="M26.36,35.39v-3a9.76,9.76,0,0,1,19.53,0v3.72"/><path class="cls-2" d="M27.17,49.94a6.78,6.78,0,1,1,0-13.56Z"/><rect class="cls-2" x="27.17" y="34.49" width="4.92" height="17.5" rx="1.21" ry="1.21"/><path class="cls-2" d="M45.05,49.94a6.78,6.78,0,0,0,0-13.56Z"/><rect class="cls-2" x="40.13" y="34.49" width="4.92" height="17.5" rx="1.21" ry="1.21" transform="translate(85.18 86.48) rotate(-180)"/><g class="cls-3"><line class="cls-4" y1="14.67" x2="72.25" y2="14.67"/><line class="cls-4" y1="57.21" x2="72.25" y2="57.21"/><line class="cls-5" x1="57.8" x2="57.8" y2="72.25"/><line class="cls-5" x1="15.27" x2="15.27" y2="72.25"/></g></g></g></svg>