<svg xmlns="http://www.w3.org/2000/svg" viewBox="0 0 72.25 72.25" style=""><defs><style>.cls-1{fill:#fff;opacity:0.05;}.cls-2,.cls-4,.cls-5{fill:none;stroke:#fff;}.cls-2{stroke-linecap:round;stroke-linejoin:round;stroke-width:1.5px;}.cls-3{opacity:0.25;}.cls-4,.cls-5{stroke-miterlimit:10;}.cls-4{stroke-width:0.6px;}.cls-5{stroke-width:0.6px;}</style></defs><title>Asset 149</title><g id="Layer_2" data-name="Layer 2"><g id="Layer_1-2" data-name="Layer 1"><path class="cls-1 cUoeOzYb_0" width="57" height="57" d="M7.96 7.06 L64.96 7.06 L64.96 64.06 L7.96 64.06 Z"></path><path class="cls-2 cUoeOzYb_1" d="M26.27,25.1H52A2.94,2.94,0,0,1,54.93,28V45.1A2.94,2.94,0,0,1,52,48H26.27"></path><path class="cls-2 cUoeOzYb_2" d="M30.47,36.56A6.53,6.53 0,1,1 43.53,36.56A6.53,6.53 0,1,1 30.47,36.56"></path><path class="cls-2 cUoeOzYb_3" d="M18.8,24.7V22.54a1.63,1.63,0,0,1,1.63-1.63h2.49a1.63,1.63,0,0,1,1.63,1.63V24.7"></path><path class="cls-2 cUoeOzYb_4" d="M46.8,30.84A2.31,2.31 0,1,1 51.42,30.84A2.31,2.31 0,1,1 46.8,30.84"></path><path class="cls-2 cUoeOzYb_5" d="M30.66,25.07L32.33,19.94L37,19.94"></path><path class="cls-2 cUoeOzYb_6" d="M43.34,25.07L41.67,19.94L37,19.94"></path><path class="cls-2 cUoeOzYb_7" width="9.2" height="23.72" d="M 18.08,24.7 L 25.279999999999998,24.7 A 1,1,0,0,1,26.279999999999998,25.7 L 26.279999999999998,47.42 A 1,1,0,0,1,25.279999999999998,48.42 L 18.08,48.42 A 1,1,0,0,1,17.08,47.42 L 17.08,25.7 A 1,1,0,0,1,18.08,24.7"></path><g class="cls-3"><path class="cls-4 cUoeOzYb_8" d="M0,14.67L72.25,14.67"></path><path class="cls-4 cUoeOzYb_9" d="M0,57.21L72.25,57.21"></path><path class="cls-5 cUoeOzYb_10" d="M57.8,0L57.8,72.25"></path><path class="cls-5 cUoeOzYb_11" d="M15.27,0L15.27,72.25"></path></g></g></g><style data-made-with="vivus-instant">.cUoeOzYb_0{stroke-dasharray:228 230;stroke-dashoffset:229;animation:cUoeOzYb_draw_0 5300ms ease-in-out 0ms infinite,cUoeOzYb_fade 5300ms linear 0ms infinite;}.cUoeOzYb_1{stroke-dasharray:78 80;stroke-dashoffset:79;animation:cUoeOzYb_draw_1 5300ms ease-in-out 0ms infinite,cUoeOzYb_fade 5300ms linear 0ms infinite;}.cUoeOzYb_2{stroke-dasharray:42 44;stroke-dashoffset:43;animation:cUoeOzYb_draw_2 5300ms ease-in-out 0ms infinite,cUoeOzYb_fade 5300ms linear 0ms infinite;}.cUoeOzYb_3{stroke-dasharray:12 14;stroke-dashoffset:13;animation:cUoeOzYb_draw_3 5300ms ease-in-out 0ms infinite,cUoeOzYb_fade 5300ms linear 0ms infinite;}.cUoeOzYb_4{stroke-dasharray:15 17;stroke-dashoffset:16;animation:cUoeOzYb_draw_4 5300ms ease-in-out 0ms infinite,cUoeOzYb_fade 5300ms linear 0ms infinite;}.cUoeOzYb_5{stroke-dasharray:11 13;stroke-dashoffset:12;animation:cUoeOzYb_draw_5 5300ms ease-in-out 0ms infinite,cUoeOzYb_fade 5300ms linear 0ms infinite;}.cUoeOzYb_6{stroke-dasharray:11 13;stroke-dashoffset:12;animation:cUoeOzYb_draw_6 5300ms ease-in-out 0ms infinite,cUoeOzYb_fade 5300ms linear 0ms infinite;}.cUoeOzYb_7{stroke-dasharray:65 67;stroke-dashoffset:66;animation:cUoeOzYb_draw_7 5300ms ease-in-out 0ms infinite,cUoeOzYb_fade 5300ms linear 0ms infinite;}.cUoeOzYb_8{stroke-dasharray:73 75;stroke-dashoffset:74;animation:cUoeOzYb_draw_8 5300ms ease-in-out 0ms infinite,cUoeOzYb_fade 5300ms linear 0ms infinite;}.cUoeOzYb_9{stroke-dasharray:73 75;stroke-dashoffset:74;animation:cUoeOzYb_draw_9 5300ms ease-in-out 0ms infinite,cUoeOzYb_fade 5300ms linear 0ms infinite;}.cUoeOzYb_10{stroke-dasharray:73 75;stroke-dashoffset:74;animation:cUoeOzYb_draw_10 5300ms ease-in-out 0ms infinite,cUoeOzYb_fade 5300ms linear 0ms infinite;}.cUoeOzYb_11{stroke-dasharray:73 75;stroke-dashoffset:74;animation:cUoeOzYb_draw_11 5300ms ease-in-out 0ms infinite,cUoeOzYb_fade 5300ms linear 0ms infinite;}@keyframes cUoeOzYb_draw{100%{stroke-dashoffset:0;}}@keyframes cUoeOzYb_fade{0%{stroke-opacity:1;}96.22641509433963%{stroke-opacity:1;}100%{stroke-opacity:0;}}@keyframes cUoeOzYb_draw_0{15.09433962264151%{stroke-dashoffset: 229}40.25157232704403%{ stroke-dashoffset: 0;}100%{ stroke-dashoffset: 0;}}@keyframes cUoeOzYb_draw_1{16.23785020011435%{stroke-dashoffset: 79}41.39508290451687%{ stroke-dashoffset: 0;}100%{ stroke-dashoffset: 0;}}@keyframes cUoeOzYb_draw_2{17.381360777587194%{stroke-dashoffset: 43}42.538593481989714%{ stroke-dashoffset: 0;}100%{ stroke-dashoffset: 0;}}@keyframes cUoeOzYb_draw_3{18.524871355060032%{stroke-dashoffset: 13}43.682104059462546%{ stroke-dashoffset: 0;}100%{ stroke-dashoffset: 0;}}@keyframes cUoeOzYb_draw_4{19.668381932532878%{stroke-dashoffset: 16}44.8256146369354%{ stroke-dashoffset: 0;}100%{ stroke-dashoffset: 0;}}@keyframes cUoeOzYb_draw_5{20.811892510005716%{stroke-dashoffset: 12}45.96912521440824%{ stroke-dashoffset: 0;}100%{ stroke-dashoffset: 0;}}@keyframes cUoeOzYb_draw_6{21.955403087478555%{stroke-dashoffset: 12}47.112635791881075%{ stroke-dashoffset: 0;}100%{ stroke-dashoffset: 0;}}@keyframes cUoeOzYb_draw_7{23.0989136649514%{stroke-dashoffset: 66}48.25614636935393%{ stroke-dashoffset: 0;}100%{ stroke-dashoffset: 0;}}@keyframes cUoeOzYb_draw_8{24.24242424242424%{stroke-dashoffset: 74}49.39965694682675%{ stroke-dashoffset: 0;}100%{ stroke-dashoffset: 0;}}@keyframes cUoeOzYb_draw_9{25.38593481989708%{stroke-dashoffset: 74}50.543167524299605%{ stroke-dashoffset: 0;}100%{ stroke-dashoffset: 0;}}@keyframes cUoeOzYb_draw_10{26.529445397369926%{stroke-dashoffset: 74}51.68667810177244%{ stroke-dashoffset: 0;}100%{ stroke-dashoffset: 0;}}@keyframes cUoeOzYb_draw_11{27.67295597484277%{stroke-dashoffset: 74}52.83018867924528%{ stroke-dashoffset: 0;}100%{ stroke-dashoffset: 0;}}</style></svg>