<svg xmlns="http://www.w3.org/2000/svg" viewBox="0 0 72.25 72.25"><defs><style>.cls-1{fill:#fff;opacity:0.05;}.cls-2,.cls-4,.cls-5{fill:none;stroke:#fff;}.cls-2{stroke-linecap:round;stroke-linejoin:round;stroke-width:1.5px;}.cls-3{opacity:0.25;}.cls-4,.cls-5{stroke-miterlimit:10;}.cls-4{stroke-width:0.6px;}.cls-5{stroke-width:0.6px;}</style></defs><title>Asset 149</title><g id="Layer_2" data-name="Layer 2"><g id="Layer_1-2" data-name="Layer 1"><rect class="cls-1" x="7.96" y="7.06" width="57" height="57"/><path class="cls-2" d="M26.27,25.1H52A2.94,2.94,0,0,1,54.93,28V45.1A2.94,2.94,0,0,1,52,48H26.27"/><circle class="cls-2" cx="37" cy="36.56" r="6.53"/><path class="cls-2" d="M18.8,24.7V22.54a1.63,1.63,0,0,1,1.63-1.63h2.49a1.63,1.63,0,0,1,1.63,1.63V24.7"/><circle class="cls-2" cx="49.11" cy="30.84" r="2.31"/><polyline class="cls-2" points="30.66 25.07 32.33 19.94 37 19.94"/><polyline class="cls-2" points="43.34 25.07 41.67 19.94 37 19.94"/><rect class="cls-2" x="17.08" y="24.7" width="9.2" height="23.72" rx="1.64" ry="1.64"/><g class="cls-3"><line class="cls-4" y1="14.67" x2="72.25" y2="14.67"/><line class="cls-4" y1="57.21" x2="72.25" y2="57.21"/><line class="cls-5" x1="57.8" x2="57.8" y2="72.25"/><line class="cls-5" x1="15.27" x2="15.27" y2="72.25"/></g></g></g></svg>