<svg xmlns="http://www.w3.org/2000/svg" viewBox="0 0 72.25 72.25"><defs><style>.cls-1{fill:#fff;opacity:0.05;}.cls-2,.cls-4,.cls-5{fill:none;stroke:#fff;}.cls-2{stroke-linecap:round;stroke-linejoin:round;stroke-width:1.5px;}.cls-3{opacity:0.25;}.cls-4,.cls-5{stroke-miterlimit:10;}.cls-4{stroke-width:0.6px;}.cls-5{stroke-width:0.6px;}</style></defs><title>Asset 150</title><g id="Layer_2" data-name="Layer 2"><g id="Layer_1-2" data-name="Layer 1"><rect class="cls-1" x="7.63" y="7.62" width="57" height="57"/><circle class="cls-2" cx="23.47" cy="40.29" r="7.87"/><circle class="cls-2" cx="49.12" cy="40.29" r="7.87"/><polygon class="cls-2" points="23.48 40.29 35.13 40.29 30.61 26.66 23.48 40.29"/><polyline class="cls-2" points="30.61 26.66 44.9 26.66 49.13 40.29"/><path class="cls-2" d="M44.9,26.67V23.59h4.23c1.33,0,2,3-.58,3"/><line class="cls-2" x1="35.13" y1="40.29" x2="45.53" y2="28.72"/><rect class="cls-2" x="25.73" y="21.16" width="8.61" height="3.27" rx="1.64" ry="1.64"/><line class="cls-2" x1="31.92" y1="30.6" x2="29.87" y2="24.43"/><g class="cls-3"><line class="cls-4" y1="14.67" x2="72.25" y2="14.67"/><line class="cls-4" y1="57.21" x2="72.25" y2="57.21"/><line class="cls-5" x1="57.8" x2="57.8" y2="72.25"/><line class="cls-5" x1="15.27" x2="15.27" y2="72.25"/></g></g></g></svg>