<svg xmlns="http://www.w3.org/2000/svg" viewBox="0 0 72.25 72.25" style=""><defs><style>.cls-1{fill:#fff;opacity:0.05;}.cls-2,.cls-4,.cls-5{fill:none;stroke:#fff;}.cls-2{stroke-linecap:round;stroke-linejoin:round;stroke-width:1.5px;}.cls-3{opacity:0.25;}.cls-4,.cls-5{stroke-miterlimit:10;}.cls-4{stroke-width:0.6px;}.cls-5{stroke-width:0.6px;}</style></defs><title>Asset 153</title><g id="Layer_2" data-name="Layer 2"><g id="Layer_1-2" data-name="Layer 1"><path class="cls-1 AGeHesRQ_0" width="57" height="57" d="M8.35 7.62 L65.35 7.62 L65.35 64.62 L8.35 64.62 Z"></path><path class="cls-2 AGeHesRQ_1" d="M40.79,50.46a19.85,19.85,0,0,0,7.13-2V32.24"></path><path class="cls-2 AGeHesRQ_2" d="M25.79,32.24L25.79,35.13"></path><path class="cls-2 AGeHesRQ_3" d="M31.52,16.61a5.33,5.33,0,0,0,5.34,4.57"></path><path class="cls-2 AGeHesRQ_4" d="M47.92,26.38v5.87c1.72,0,7.56.07,7.56-1.23s-.74-7.42-1.11-10.39-8.07-4.27-17.51-4.27c-8.88,0-17.14,1.3-17.51,4.27S18.23,29.72,18.23,31s5.84,1.23,7.56,1.23V26.38"></path><path class="cls-2 AGeHesRQ_5" d="M42.19,16.61a5.33,5.33,0,0,1-5.34,4.57"></path><path class="cls-2 AGeHesRQ_6" width="10.13" height="3.62" d="M 22.3,35.13 L 30.43,35.13 A 1,1,0,0,1,31.43,36.13 L 31.43,37.75 A 1,1,0,0,1,30.43,38.75 L 22.3,38.75 A 1,1,0,0,1,21.3,37.75 L 21.3,36.13 A 1,1,0,0,1,22.3,35.13"></path><path class="cls-2 AGeHesRQ_7" d="M30.67,38.75v7.77h4.79c3.28,0,5.33.85,5.33,4.54v1.79H20.54V50.65c0-4.46,1.5-5.17,1.5-6.75V38.75"></path><path class="cls-2 AGeHesRQ_8" d="M30.67,45.52L27.96,45.52"></path><path class="cls-2 AGeHesRQ_9" d="M30.67,41.82L27.96,41.82"></path><path class="cls-2 AGeHesRQ_10" d="M22.33,46.19"></path><path class="cls-2 AGeHesRQ_11" width="21.81" height="2.96" d="M 20.77,52.86 L 40.58,52.86 A 1,1,0,0,1,41.58,53.86 L 41.58,54.82 A 1,1,0,0,1,40.58,55.82 L 20.77,55.82 A 1,1,0,0,1,19.77,54.82 L 19.77,53.86 A 1,1,0,0,1,20.77,52.86"></path><g class="cls-3"><path class="cls-4 AGeHesRQ_12" d="M0,14.67L72.25,14.67"></path><path class="cls-4 AGeHesRQ_13" d="M0,57.21L72.25,57.21"></path><path class="cls-5 AGeHesRQ_14" d="M57.8,0L57.8,72.25"></path><path class="cls-5 AGeHesRQ_15" d="M15.27,0L15.27,72.25"></path></g></g></g><style data-made-with="vivus-instant">.AGeHesRQ_0{stroke-dasharray:228 230;stroke-dashoffset:229;animation:AGeHesRQ_draw_0 5300ms ease-in-out 0ms infinite,AGeHesRQ_fade 5300ms linear 0ms infinite;}.AGeHesRQ_1{stroke-dasharray:24 26;stroke-dashoffset:25;animation:AGeHesRQ_draw_1 5300ms ease-in-out 0ms infinite,AGeHesRQ_fade 5300ms linear 0ms infinite;}.AGeHesRQ_2{stroke-dasharray:3 5;stroke-dashoffset:4;animation:AGeHesRQ_draw_2 5300ms ease-in-out 0ms infinite,AGeHesRQ_fade 5300ms linear 0ms infinite;}.AGeHesRQ_3{stroke-dasharray:8 10;stroke-dashoffset:9;animation:AGeHesRQ_draw_3 5300ms ease-in-out 0ms infinite,AGeHesRQ_fade 5300ms linear 0ms infinite;}.AGeHesRQ_4{stroke-dasharray:87 89;stroke-dashoffset:88;animation:AGeHesRQ_draw_4 5300ms ease-in-out 0ms infinite,AGeHesRQ_fade 5300ms linear 0ms infinite;}.AGeHesRQ_5{stroke-dasharray:8 10;stroke-dashoffset:9;animation:AGeHesRQ_draw_5 5300ms ease-in-out 0ms infinite,AGeHesRQ_fade 5300ms linear 0ms infinite;}.AGeHesRQ_6{stroke-dasharray:26 28;stroke-dashoffset:27;animation:AGeHesRQ_draw_6 5300ms ease-in-out 0ms infinite,AGeHesRQ_fade 5300ms linear 0ms infinite;}.AGeHesRQ_7{stroke-dasharray:58 60;stroke-dashoffset:59;animation:AGeHesRQ_draw_7 5300ms ease-in-out 0ms infinite,AGeHesRQ_fade 5300ms linear 0ms infinite;}.AGeHesRQ_8{stroke-dasharray:3 5;stroke-dashoffset:4;animation:AGeHesRQ_draw_8 5300ms ease-in-out 0ms infinite,AGeHesRQ_fade 5300ms linear 0ms infinite;}.AGeHesRQ_9{stroke-dasharray:3 5;stroke-dashoffset:4;animation:AGeHesRQ_draw_9 5300ms ease-in-out 0ms infinite,AGeHesRQ_fade 5300ms linear 0ms infinite;}.AGeHesRQ_10{stroke-dasharray:0 2;stroke-dashoffset:1;animation:AGeHesRQ_draw_10 5300ms ease-in-out 0ms infinite,AGeHesRQ_fade 5300ms linear 0ms infinite;}.AGeHesRQ_11{stroke-dasharray:48 50;stroke-dashoffset:49;animation:AGeHesRQ_draw_11 5300ms ease-in-out 0ms infinite,AGeHesRQ_fade 5300ms linear 0ms infinite;}.AGeHesRQ_12{stroke-dasharray:73 75;stroke-dashoffset:74;animation:AGeHesRQ_draw_12 5300ms ease-in-out 0ms infinite,AGeHesRQ_fade 5300ms linear 0ms infinite;}.AGeHesRQ_13{stroke-dasharray:73 75;stroke-dashoffset:74;animation:AGeHesRQ_draw_13 5300ms ease-in-out 0ms infinite,AGeHesRQ_fade 5300ms linear 0ms infinite;}.AGeHesRQ_14{stroke-dasharray:73 75;stroke-dashoffset:74;animation:AGeHesRQ_draw_14 5300ms ease-in-out 0ms infinite,AGeHesRQ_fade 5300ms linear 0ms infinite;}.AGeHesRQ_15{stroke-dasharray:73 75;stroke-dashoffset:74;animation:AGeHesRQ_draw_15 5300ms ease-in-out 0ms infinite,AGeHesRQ_fade 5300ms linear 0ms infinite;}@keyframes AGeHesRQ_draw{100%{stroke-dashoffset:0;}}@keyframes AGeHesRQ_fade{0%{stroke-opacity:1;}96.22641509433963%{stroke-opacity:1;}100%{stroke-opacity:0;}}@keyframes AGeHesRQ_draw_0{15.09433962264151%{stroke-dashoffset: 229}40.25157232704403%{ stroke-dashoffset: 0;}100%{ stroke-dashoffset: 0;}}@keyframes AGeHesRQ_draw_1{15.932914046121594%{stroke-dashoffset: 25}41.090146750524106%{ stroke-dashoffset: 0;}100%{ stroke-dashoffset: 0;}}@keyframes AGeHesRQ_draw_2{16.771488469601678%{stroke-dashoffset: 4}41.9287211740042%{ stroke-dashoffset: 0;}100%{ stroke-dashoffset: 0;}}@keyframes AGeHesRQ_draw_3{17.61006289308176%{stroke-dashoffset: 9}42.767295597484285%{ stroke-dashoffset: 0;}100%{ stroke-dashoffset: 0;}}@keyframes AGeHesRQ_draw_4{18.448637316561843%{stroke-dashoffset: 88}43.60587002096437%{ stroke-dashoffset: 0;}100%{ stroke-dashoffset: 0;}}@keyframes AGeHesRQ_draw_5{19.28721174004193%{stroke-dashoffset: 9}44.44444444444445%{ stroke-dashoffset: 0;}100%{ stroke-dashoffset: 0;}}@keyframes AGeHesRQ_draw_6{20.12578616352201%{stroke-dashoffset: 27}45.28301886792453%{ stroke-dashoffset: 0;}100%{ stroke-dashoffset: 0;}}@keyframes AGeHesRQ_draw_7{20.964360587002094%{stroke-dashoffset: 59}46.12159329140461%{ stroke-dashoffset: 0;}100%{ stroke-dashoffset: 0;}}@keyframes AGeHesRQ_draw_8{21.802935010482184%{stroke-dashoffset: 4}46.9601677148847%{ stroke-dashoffset: 0;}100%{ stroke-dashoffset: 0;}}@keyframes AGeHesRQ_draw_9{22.641509433962266%{stroke-dashoffset: 4}47.79874213836478%{ stroke-dashoffset: 0;}100%{ stroke-dashoffset: 0;}}@keyframes AGeHesRQ_draw_10{23.480083857442345%{stroke-dashoffset: 1}48.63731656184486%{ stroke-dashoffset: 0;}100%{ stroke-dashoffset: 0;}}@keyframes AGeHesRQ_draw_11{24.31865828092243%{stroke-dashoffset: 49}49.47589098532495%{ stroke-dashoffset: 0;}100%{ stroke-dashoffset: 0;}}@keyframes AGeHesRQ_draw_12{25.157232704402517%{stroke-dashoffset: 74}50.31446540880504%{ stroke-dashoffset: 0;}100%{ stroke-dashoffset: 0;}}@keyframes AGeHesRQ_draw_13{25.995807127882603%{stroke-dashoffset: 74}51.15303983228512%{ stroke-dashoffset: 0;}100%{ stroke-dashoffset: 0;}}@keyframes AGeHesRQ_draw_14{26.834381551362686%{stroke-dashoffset: 74}51.99161425576521%{ stroke-dashoffset: 0;}100%{ stroke-dashoffset: 0;}}@keyframes AGeHesRQ_draw_15{27.67295597484277%{stroke-dashoffset: 74}52.83018867924528%{ stroke-dashoffset: 0;}100%{ stroke-dashoffset: 0;}}</style></svg>