<svg xmlns="http://www.w3.org/2000/svg" viewBox="0 0 72.25 72.25"><defs><style>.cls-1{fill:#fff;opacity:0.05;}.cls-2,.cls-4,.cls-5{fill:none;stroke:#fff;}.cls-2{stroke-linecap:round;stroke-linejoin:round;stroke-width:1.5px;}.cls-3{opacity:0.25;}.cls-4,.cls-5{stroke-miterlimit:10;}.cls-4{stroke-width:0.6px;}.cls-5{stroke-width:0.6px;}</style></defs><title>Asset 153</title><g id="Layer_2" data-name="Layer 2"><g id="Layer_1-2" data-name="Layer 1"><rect class="cls-1" x="8.35" y="7.62" width="57" height="57"/><path class="cls-2" d="M40.79,50.46a19.85,19.85,0,0,0,7.13-2V32.24"/><line class="cls-2" x1="25.79" y1="32.24" x2="25.79" y2="35.13"/><path class="cls-2" d="M31.52,16.61a5.33,5.33,0,0,0,5.34,4.57"/><path class="cls-2" d="M47.92,26.38v5.87c1.72,0,7.56.07,7.56-1.23s-.74-7.42-1.11-10.39-8.07-4.27-17.51-4.27c-8.88,0-17.14,1.3-17.51,4.27S18.23,29.72,18.23,31s5.84,1.23,7.56,1.23V26.38"/><path class="cls-2" d="M42.19,16.61a5.33,5.33,0,0,1-5.34,4.57"/><rect class="cls-2" x="21.3" y="35.13" width="10.13" height="3.62" rx="1.7" ry="1.7"/><path class="cls-2" d="M30.67,38.75v7.77h4.79c3.28,0,5.33.85,5.33,4.54v1.79H20.54V50.65c0-4.46,1.5-5.17,1.5-6.75V38.75"/><line class="cls-2" x1="30.67" y1="45.52" x2="27.96" y2="45.52"/><line class="cls-2" x1="30.67" y1="41.82" x2="27.96" y2="41.82"/><path class="cls-2" d="M22.33,46.19"/><rect class="cls-2" x="19.77" y="52.86" width="21.81" height="2.96" rx="1.48" ry="1.48"/><g class="cls-3"><line class="cls-4" y1="14.67" x2="72.25" y2="14.67"/><line class="cls-4" y1="57.21" x2="72.25" y2="57.21"/><line class="cls-5" x1="57.8" x2="57.8" y2="72.25"/><line class="cls-5" x1="15.27" x2="15.27" y2="72.25"/></g></g></g></svg>