<svg xmlns="http://www.w3.org/2000/svg" viewBox="0 0 72.25 72.25"><defs><style>.cls-1,.cls-3{fill:#fff;}.cls-1{opacity:0.05;}.cls-2,.cls-5,.cls-6{fill:none;}.cls-2,.cls-3,.cls-5,.cls-6{stroke:#fff;}.cls-2,.cls-3{stroke-linecap:round;stroke-linejoin:round;stroke-width:1.5px;}.cls-4{opacity:0.25;}.cls-5,.cls-6{stroke-miterlimit:10;}.cls-5{stroke-width:0.6px;}.cls-6{stroke-width:0.6px;}</style></defs><title>Asset 154</title><g id="Layer_2" data-name="Layer 2"><g id="Layer_1-2" data-name="Layer 1"><rect class="cls-1" x="8.04" y="7.62" width="57" height="57"/><rect class="cls-2" x="19.89" y="47.44" width="33.3" height="5.16" rx="1.75" ry="1.75"/><line class="cls-2" x1="36.54" y1="24.61" x2="36.54" y2="18.43"/><line class="cls-2" x1="36.54" y1="47.12" x2="36.54" y2="30.27"/><circle class="cls-2" cx="36.54" cy="27.44" r="2.83"/><line class="cls-3" x1="36.54" y1="21.52" x2="24.78" y2="21.52"/><path class="cls-2" d="M18.66,33.75a6,6,0,0,0,12,0Z"/><polyline class="cls-2" points="30.66 33.75 24.66 21.52 18.66 33.75"/><line class="cls-3" x1="36.54" y1="21.52" x2="48.3" y2="21.52"/><path class="cls-2" d="M54.42,33.75a6,6,0,0,1-12,0Z"/><polyline class="cls-2" points="42.42 33.75 48.42 21.52 54.42 33.75"/><g class="cls-4"><line class="cls-5" y1="14.67" x2="72.25" y2="14.67"/><line class="cls-5" y1="57.21" x2="72.25" y2="57.21"/><line class="cls-6" x1="57.8" x2="57.8" y2="72.25"/><line class="cls-6" x1="15.27" x2="15.27" y2="72.25"/></g></g></g></svg>