<svg xmlns="http://www.w3.org/2000/svg" viewBox="0 0 277.89 278.69"><defs><style>.cls-1{fill:#fff;}</style></defs><title>Asset 165</title><g id="Layer_2" data-name="Layer 2"><g id="Layer_1-2" data-name="Layer 1"><path class="cls-1" d="M16.08,21.36H11.22v-.81a7.27,7.27,0,0,1-4,1.11A7.38,7.38,0,0,1,0,14.07,7.36,7.36,0,0,1,7.23,6.48a7.27,7.27,0,0,1,4,1.11V6.81h4.86Zm-4.86-5v-4.5a3.77,3.77,0,0,0-3-1.38,3.47,3.47,0,0,0-3.42,3.63,3.44,3.44,0,0,0,3.42,3.6A3.74,3.74,0,0,0,11.22,16.32Z"/><path class="cls-1" d="M81,14a7.38,7.38,0,0,1-7.23,7.62,7.26,7.26,0,0,1-4-1.11v.75H64.88V0h4.86V7.59a7.26,7.26,0,0,1,4-1.11A7.35,7.35,0,0,1,81,14Zm-4.77,0a3.46,3.46,0,0,0-3.42-3.6,3.77,3.77,0,0,0-3,1.38v4.5a3.74,3.74,0,0,0,3,1.35A3.45,3.45,0,0,0,76.19,14Z"/><path class="cls-1" d="M140.91,15.36h4.59c-.33,3.75-3.42,6.3-7.44,6.3-4.59,0-7.95-3.18-7.95-7.62s3.36-7.59,7.95-7.59c4,0,7.11,2.55,7.44,6.3h-4.59a2.71,2.71,0,0,0-2.85-2.19A3.24,3.24,0,0,0,134.73,14a3.26,3.26,0,0,0,3.33,3.51A2.71,2.71,0,0,0,140.91,15.36Z"/><path class="cls-1" d="M210.73,21.3h-4.86v-.75a7.26,7.26,0,0,1-4,1.11A7.38,7.38,0,0,1,194.65,14a7.35,7.35,0,0,1,7.23-7.56,7.26,7.26,0,0,1,4,1.11V0h4.86Zm-4.86-5v-4.5a3.77,3.77,0,0,0-3-1.38,3.46,3.46,0,0,0-3.42,3.6,3.45,3.45,0,0,0,3.42,3.63A3.74,3.74,0,0,0,205.87,16.32Z"/><path class="cls-1" d="M275.07,15.39l0,.09H264.72A3.14,3.14,0,0,0,268,17.82a2.5,2.5,0,0,0,2.22-1H275c-.69,3-3.48,4.89-7.08,4.89-4.77,0-7.95-3.18-7.95-7.62a7.32,7.32,0,0,1,7.74-7.59,7.08,7.08,0,0,1,7.44,7.29A10.17,10.17,0,0,1,275.07,15.39Zm-10.41-2.76h5.94a2.7,2.7,0,0,0-2.88-2.43A3,3,0,0,0,264.66,12.63Z"/><path class="cls-1" d="M15.19,72.91v4.17H10.06V87.46H5.21V77.08H1.63V72.91H5.21V71.17c0-4.2,2.67-6.81,6.39-6.81a14.73,14.73,0,0,1,3.87.54l-.66,4a11.48,11.48,0,0,0-2.22-.27,2.29,2.29,0,0,0-2.52,2.37v1.86Z"/><path class="cls-1" d="M81,81.72c0,4.56-3.24,7.2-7.8,7.2-4.41,0-7.62-2.52-7.86-6.3h4.8c.24,1.35,1.26,2.19,3.06,2.19a2.77,2.77,0,0,0,2.94-3V80.43a7.67,7.67,0,0,1-4,1,7.28,7.28,0,0,1,0-14.55,7.4,7.4,0,0,1,4,1.08v-.57H81Zm-4.86-5.49v-4a3.81,3.81,0,0,0-3-1.35,3.32,3.32,0,0,0-3.42,3.51,3.38,3.38,0,0,0,3.42,3.21A3.81,3.81,0,0,0,76.17,76.23Z"/><path class="cls-1" d="M145,78.25v8.31h-4.89V79c0-2.07-1-3.06-2.64-3.06a3.74,3.74,0,0,0-2.7,1.47v9.12h-4.86V65.26h4.86V73a6.22,6.22,0,0,1,4-1.44C142.49,71.56,145,74.11,145,78.25Z"/><path class="cls-1" d="M199.08,67.51a2.85,2.85,0,1,1,2.85,2.73A2.75,2.75,0,0,1,199.08,67.51Zm5.31,19.56h-4.86V72.52h4.86Z"/><path class="cls-1" d="M270,82.89c0,4.47-1.41,7.08-7.17,7.2l-.42-4c2.13-.21,2.7-.84,2.7-2.52v-14H270ZM264.68,64.5a2.85,2.85,0,1,1,2.85,2.73A2.77,2.77,0,0,1,264.68,64.5Z"/><path class="cls-1" d="M5.91,146.88v2.85H1v-21.3H5.91v12.21L11,135.18h5.79l-5.52,5.94,6,8.61H11.43l-3.48-5Z"/><path class="cls-1" d="M76.18,149.73H71.33v-21.3h4.86Z"/><path class="cls-1" d="M150.45,138.27v8.31h-4.89V139c0-2.07-1-3.06-2.61-3.06a2.84,2.84,0,0,0-2.22,1.2c0,.36.06.72.06,1.08v8.31h-4.86V139c0-2.07-1-3.06-2.61-3.06a2.75,2.75,0,0,0-2.19,1.29v9.3h-4.86V132h4.86v.87a5.12,5.12,0,0,1,3.63-1.32,5.72,5.72,0,0,1,4.47,1.95,7.11,7.11,0,0,1,5.16-1.95C147.87,131.58,150.45,134.13,150.45,138.27Z"/><path class="cls-1" d="M210.51,138.27v8.31h-4.89V139c0-2.07-1-3.06-2.64-3.06a3.74,3.74,0,0,0-2.7,1.47v9.12h-4.86V132h4.86v1a6.22,6.22,0,0,1,4-1.44C208,131.58,210.51,134.13,210.51,138.27Z"/><path class="cls-1" d="M275.46,139a7.89,7.89,0,0,1-15.78,0c0-4.38,3.3-7.59,7.89-7.59S275.46,134.62,275.46,139Zm-4.59,0a3.29,3.29,0,1,0-6.57,0,3.29,3.29,0,1,0,6.57,0Z"/><path class="cls-1" d="M16.74,199a7.38,7.38,0,0,1-7.23,7.59,7.27,7.27,0,0,1-4-1.11V213H.66V191.7H5.52v.78a7.27,7.27,0,0,1,4-1.11A7.36,7.36,0,0,1,16.74,199ZM12,199a3.47,3.47,0,0,0-3.42-3.63,3.77,3.77,0,0,0-3,1.38v4.5a3.74,3.74,0,0,0,3,1.35A3.44,3.44,0,0,0,12,199Z"/><path class="cls-1" d="M81.37,215H76.51v-7.53a7.59,7.59,0,1,1,0-13v-.75h4.86Zm-4.86-11.76v-4.56a3.81,3.81,0,0,0-3-1.35,3.62,3.62,0,0,0,0,7.23A3.78,3.78,0,0,0,76.51,203.28Z"/><path class="cls-1" d="M142.93,199.25a6.93,6.93,0,0,0-5,1.86v8.31h-4.86V194.87h4.86v1.56a7.28,7.28,0,0,1,5-1.8Z"/><path class="cls-1" d="M200,204.49c.21,1.26,1.26,1.83,2.79,1.83,1.29,0,2.07-.39,2.07-1,0-.48-.45-.87-1.41-1l-2.94-.51c-2.52-.42-4.26-1.83-4.26-4.38,0-3.06,2.61-4.86,6.48-4.86,3.09,0,6.6,1.2,6.81,5h-4.32c-.09-1.11-1.11-1.62-2.46-1.62s-1.83.48-1.83,1,.36.93,1.5,1.14l2.73.45c2.73.51,4.53,1.83,4.53,4.41,0,3.36-3,4.92-6.81,4.92s-6.9-1.59-7.2-5.46Z"/><path class="cls-1" d="M273.86,209.8a12.81,12.81,0,0,1-4.41.72c-3.51,0-5.85-2.58-5.85-6.51v-4.32h-2.85v-4.17h2.85v-4.95h4.86v4.95h4.95v4.17h-4.95v4.17a2,2,0,0,0,2.28,2.19,14.51,14.51,0,0,0,2.58-.36Z"/><path class="cls-1" d="M15.81,272H11v-1a6.28,6.28,0,0,1-4,1.41c-3.69,0-6.21-2.55-6.21-6.69v-8.31H5.61V265C5.61,267,6.69,268,8.28,268A3.75,3.75,0,0,0,11,266.6v-9.18h4.86Z"/><path class="cls-1" d="M75.72,272H71.1l-6.3-14.55h5.13l3.48,8.4,3.48-8.4H82Z"/><path class="cls-1" d="M145.3,272h-4.44l-2.31-7.5-2.34,7.5H131.8l-5-14.55h5.1l2.28,7.8,2.46-7.8h3.84l2.46,7.74,2.28-7.74h5.07Z"/><path class="cls-1" d="M211.92,272h-5.34l-2.91-4.17L200.73,272h-5.34l5.1-7.26-5.1-7.29h5.55l2.7,3.84,2.73-3.84h5.55l-5.1,7.29Z"/><path class="cls-1" d="M268.92,278.69h-5.1l2.76-6.54-6.9-14.73h5.16l4.17,9,3.78-9h5.1Z"/></g></g></svg>