<svg xmlns="http://www.w3.org/2000/svg" viewBox="0 0 419.36 43"><defs><style>.cls-1{fill:#fff;}.cls-2{fill:none;stroke:#fff;stroke-miterlimit:10;}</style></defs><title>Asset 166</title><g id="Layer_2" data-name="Layer 2"><g id="Layer_1-2" data-name="Layer 1"><path class="cls-1" d="M17.28,22.15h7.34c-.53,6-5.47,10.08-11.9,10.08C5.38,32.23,0,27.14,0,20S5.38,7.89,12.72,7.89C19.15,7.89,24.1,12,24.63,18H17.28a4.34,4.34,0,0,0-4.56-3.5c-3.31,0-5.33,2.4-5.33,5.57s2,5.62,5.33,5.62A4.34,4.34,0,0,0,17.28,22.15Z"/><path class="cls-1" d="M53.57,31.7H45.79v-1.3a11.63,11.63,0,0,1-6.38,1.78A11.8,11.8,0,0,1,27.84,20c0-7,5.28-12.15,11.57-12.15a11.63,11.63,0,0,1,6.38,1.78V8.42h7.78Zm-7.78-8.06v-7.2a6,6,0,0,0-4.85-2.21A5.55,5.55,0,0,0,35.47,20a5.51,5.51,0,0,0,5.47,5.76A6,6,0,0,0,45.79,23.64Z"/><path class="cls-1" d="M97.54,18.41V31.7H89.71v-12c0-3.31-1.58-4.9-4.18-4.9A4.54,4.54,0,0,0,82,16.68c0,.58.1,1.15.1,1.73V31.7H74.3v-12c0-3.31-1.63-4.9-4.18-4.9a4.4,4.4,0,0,0-3.5,2.06V31.7H58.85V8.42h7.78V9.81A8.19,8.19,0,0,1,72.43,7.7a9.15,9.15,0,0,1,7.15,3.12A11.37,11.37,0,0,1,87.84,7.7C93.41,7.7,97.54,11.78,97.54,18.41Z"/><path class="cls-1" d="M128.35,20a11.8,11.8,0,0,1-11.57,12.15,11.63,11.63,0,0,1-6.38-1.78V42.5h-7.78V8.42h7.78V9.67a11.63,11.63,0,0,1,6.38-1.78C123.07,7.89,128.35,13.08,128.35,20Zm-7.63,0a5.55,5.55,0,0,0-5.47-5.81,6,6,0,0,0-4.85,2.21v7.2a6,6,0,0,0,4.85,2.16A5.51,5.51,0,0,0,120.72,20Z"/><path class="cls-1" d="M151.25,31.27a20.48,20.48,0,0,1-7.06,1.15c-5.62,0-9.36-4.13-9.36-10.42V15.09h-4.56V8.42h4.56V.5h7.78V8.42h7.92v6.67h-7.92v6.67c0,2.35,1.34,3.5,3.65,3.5a23.22,23.22,0,0,0,4.13-.58Z"/><path class="cls-1" d="M178.56,20c0,7.1-5.28,12.38-12.62,12.38S153.31,27.14,153.31,20s5.28-12.15,12.63-12.15S178.56,13,178.56,20Zm-7.34,0a5.26,5.26,0,1,0-10.51,0A5.29,5.29,0,0,0,166,25.7C169.1,25.7,171.21,23.21,171.21,20.09Z"/><path class="cls-1" d="M206.54,18.41V31.7h-7.82v-12c0-3.31-1.68-4.9-4.22-4.9a6,6,0,0,0-4.32,2.35V31.7H182.4V8.42h7.78V10a10,10,0,0,1,6.43-2.3C202.51,7.7,206.54,11.78,206.54,18.41Z"/><path class="cls-2" d="M229.59,22.15h7.34c-.53,6-5.47,10.08-11.9,10.08-7.34,0-12.72-5.09-12.72-12.19S217.69,7.89,225,7.89c6.43,0,11.38,4.08,11.9,10.08h-7.34a4.34,4.34,0,0,0-4.56-3.5c-3.31,0-5.33,2.4-5.33,5.57s2,5.62,5.33,5.62A4.34,4.34,0,0,0,229.59,22.15Z"/><path class="cls-2" d="M265.88,31.7h-7.78v-1.3a11.63,11.63,0,0,1-6.38,1.78A11.8,11.8,0,0,1,240.15,20c0-7,5.28-12.15,11.57-12.15a11.63,11.63,0,0,1,6.38,1.78V8.42h7.78Zm-7.78-8.06v-7.2a6,6,0,0,0-4.85-2.21A5.55,5.55,0,0,0,247.78,20a5.51,5.51,0,0,0,5.47,5.76A6,6,0,0,0,258.11,23.64Z"/><path class="cls-2" d="M309.85,18.41V31.7H302v-12c0-3.31-1.58-4.9-4.18-4.9a4.54,4.54,0,0,0-3.55,1.92c0,.58.1,1.15.1,1.73V31.7h-7.78v-12c0-3.31-1.63-4.9-4.18-4.9a4.4,4.4,0,0,0-3.5,2.06V31.7h-7.78V8.42h7.78V9.81a8.19,8.19,0,0,1,5.81-2.11,9.15,9.15,0,0,1,7.15,3.12,11.37,11.37,0,0,1,8.26-3.12C305.72,7.7,309.85,11.78,309.85,18.41Z"/><path class="cls-2" d="M340.66,20A11.8,11.8,0,0,1,329.1,32.18a11.63,11.63,0,0,1-6.38-1.78V42.5h-7.78V8.42h7.78V9.67a11.63,11.63,0,0,1,6.38-1.78C335.38,7.89,340.66,13.08,340.66,20ZM333,20a5.55,5.55,0,0,0-5.47-5.81,6,6,0,0,0-4.85,2.21v7.2a6,6,0,0,0,4.85,2.16A5.51,5.51,0,0,0,333,20Z"/><path class="cls-2" d="M363.56,31.27a20.48,20.48,0,0,1-7.06,1.15c-5.62,0-9.36-4.13-9.36-10.42V15.09h-4.56V8.42h4.56V.5h7.78V8.42h7.92v6.67h-7.92v6.67c0,2.35,1.34,3.5,3.65,3.5a23.22,23.22,0,0,0,4.13-.58Z"/><path class="cls-2" d="M390.87,20c0,7.1-5.28,12.38-12.62,12.38S365.62,27.14,365.62,20,370.9,7.89,378.25,7.89,390.87,13,390.87,20Zm-7.34,0a5.26,5.26,0,1,0-10.51,0,5.29,5.29,0,0,0,5.28,5.62C381.42,25.7,383.53,23.21,383.53,20.09Z"/><path class="cls-2" d="M418.86,18.41V31.7H411v-12c0-3.31-1.68-4.9-4.22-4.9a6,6,0,0,0-4.32,2.35V31.7h-7.78V8.42h7.78V10a10,10,0,0,1,6.43-2.3C414.82,7.7,418.86,11.78,418.86,18.41Z"/></g></g></svg>