<svg xmlns="http://www.w3.org/2000/svg" viewBox="0 0 282.51 272.95"><defs><style>.cls-1{fill:none;stroke:#fff;stroke-miterlimit:10;}</style></defs><title>Asset 164</title><g id="Layer_2" data-name="Layer 2"><g id="Layer_1-2" data-name="Layer 1"><path class="cls-1" d="M7.5,18.23,6.15,21.74H.75L9.42,1.22h4.83l8.64,20.52H17.52l-1.38-3.51Zm4.32-11.1L9.18,13.91h5.28Z"/><path class="cls-1" d="M85.72,16.07c0,3.39-2.73,5.67-7.32,5.67H67.72V1.34H77.8c4.41,0,7,2.1,7,5.43A4.68,4.68,0,0,1,82,11.24,4.74,4.74,0,0,1,85.72,16.07ZM72.79,9.65H77c1.89,0,2.94-.87,2.94-2.19s-1-2-2.94-2H72.79Zm4.95,7.89c2.07,0,3-.93,3-2.13s-1-1.89-2.91-1.89h-5v4Z"/><path class="cls-1" d="M146.94,12.86h5.19c-.63,5.28-4.65,8.88-10.23,8.88a10.42,10.42,0,0,1-10.8-10.62A10.42,10.42,0,0,1,141.9.5c5.58,0,9.6,3.6,10.23,8.88h-5.19a4.92,4.92,0,0,0-5.07-4.14,5.55,5.55,0,0,0-5.64,5.88A5.55,5.55,0,0,0,141.87,17,4.92,4.92,0,0,0,146.94,12.86Z"/><path class="cls-1" d="M205.12,1.34c6.39,0,11,4.17,11,10.14s-4.62,10.26-11,10.26H196.9V1.34Zm0,15.84a5.64,5.64,0,1,0,0-11.28H202V17.18Z"/><path class="cls-1" d="M268.78,9.47h9v4.32h-9v3.54h10.35v4.41H263.71V1.34h15.42V5.75H268.78Z"/><path class="cls-1" d="M10,72.4h8.76v4.41H10V84H4.89V63.61H20.1v4.47H10Z"/><path class="cls-1" d="M87.66,84H83.88l-.21-2.46a7.93,7.93,0,0,1-6.45,2.88c-6.39,0-10.86-4.56-10.86-10.41A10.52,10.52,0,0,1,77.28,63.19c5,0,9.3,2.82,10.17,7.68H82.14a4.71,4.71,0,0,0-4.77-3,5.94,5.94,0,0,0,.06,11.88,5.53,5.53,0,0,0,5.16-3.12l-5.85-.06v-4H87.66Z"/><path class="cls-1" d="M150.75,84h-5.07V76.36h-8.31V84H132.3V63.61h5.07V71.8h8.31V63.61h5.07Z"/><path class="cls-1" d="M208.58,84h-5.07V63.6h5.07Z"/><path class="cls-1" d="M278.87,75.61c0,5.55-3.15,8.61-8.43,8.61-4.74,0-8-2.79-8.19-7.68h5a3.07,3.07,0,0,0,3.3,3.06c1.89,0,3.15-1.44,3.15-4V63.37h5.13Z"/><path class="cls-1" d="M7.79,142.61v4.14H2.72v-20.4H7.79v9.27l8.13-9.27h6l-7.77,8.94,8.43,11.46H16.4l-5.7-7.5Z"/><path class="cls-1" d="M84.83,146.69H69.68V126.3h5.07v15.93H84.83Z"/><path class="cls-1" d="M152.87,146.69H147.8V136.47l-4.53,7v0h-2.82v0l-4.56-7,0,10.29h-5.07V126.3h3.75l7.26,10.89,7.23-10.89h3.78Z"/><path class="cls-1" d="M215.85,146.66h-3.93l-9.78-11.19v11.19h-5.07v-20.4h3.87l9.84,11.49V126.27h5.07Z"/><path class="cls-1" d="M281.88,136.47a10.82,10.82,0,1,1-10.83-10.62A10.56,10.56,0,0,1,281.88,136.47Zm-5.16,0a5.67,5.67,0,1,0-5.67,5.91A5.72,5.72,0,0,0,276.72,136.47Z"/><path class="cls-1" d="M12.24,189.09c5.31,0,8.64,2.88,8.64,7.47,0,4.77-3.48,7.74-9.06,7.74H9.09v5.19H4v-20.4Zm-.12,10.77c2.25,0,3.69-1.29,3.69-3.3,0-1.83-1.44-3-3.69-3h-3v6.3Z"/><path class="cls-1" d="M84.47,204.91l3.21,3.78L84.08,212l-4-4.71a10.38,10.38,0,1,1,4.41-2.34Zm-7.38-2A5.91,5.91,0,1,0,71.42,197,5.72,5.72,0,0,0,77.09,202.93Z"/><path class="cls-1" d="M137.46,203.47v5.91h-5.07V189h8.94c5,0,8.43,2.76,8.43,7.17a6.86,6.86,0,0,1-3.9,6.33l5.25,6.9H145l-4.38-5.91Zm3.75-4.56c2,0,3.51-1.08,3.51-2.76s-1.56-2.7-3.51-2.7h-3.75v5.46Z"/><path class="cls-1" d="M215.21,195.28h-5.1a3,3,0,0,0-3.3-2.58c-1.74,0-2.91.72-2.91,2,0,1.11.81,1.59,2.34,1.92l2.85.66c3.72.81,6.15,2.31,6.15,5.82,0,4.08-3.36,6.63-8.46,6.63-4.59,0-8.73-2.16-9.21-7.2h5.07c.33,1.8,1.89,2.88,4.29,2.88,1.89,0,2.88-.69,2.88-1.8,0-.69-.42-1.41-2.16-1.74l-3.36-.75c-4-.87-5.91-2.76-5.91-6,0-4.08,3.3-6.66,8.1-6.66C209.78,188.5,214.7,189.79,215.21,195.28Z"/><path class="cls-1" d="M273.6,193.46v15.87h-5.07V193.46H262v-4.53h18.06v4.53Z"/><path class="cls-1" d="M21.33,262.49c0,6.33-3.66,10-9.51,10s-9.48-3.63-9.48-10V251.6h5.1v11c0,3.12,1.71,5.13,4.38,5.13s4.41-2,4.41-5.13v-11h5.1Z"/><path class="cls-1" d="M79.19,272.12h-5.1L65.24,251.6h5.58l5.82,13.83,5.82-13.83H88Z"/><path class="cls-1" d="M150.45,272.12h-4.89l-4.11-12.45-4.11,12.45h-4.89l-6.6-20.52h5.37L135,264.29l4.32-12.63v-.06h4.2l4.32,12.66,3.81-12.66H157Z"/><path class="cls-1" d="M206.27,265.73,201.85,272H196l6.81-10-6.72-10.35h6.09l4,6.3,4-6.3h6.09l-6.72,10.35,6.84,10h-5.82Z"/><path class="cls-1" d="M273.62,265.85V272h-5.1v-6.15l-8.07-14.25h5.61l5,8.88,5-8.88h5.61Z"/></g></g></svg>