<?xml version="1.0" standalone="no"?>
<!DOCTYPE svg PUBLIC "-//W3C//DTD SVG 1.1//EN" "http://www.w3.org/Graphics/SVG/1.1/DTD/svg11.dtd" >
<svg xmlns="http://www.w3.org/2000/svg" xmlns:xlink="http://www.w3.org/1999/xlink" version="1.1">
<metadata>
Created by FontForge 20170731 at Wed Sep  7 04:54:29 2016
 By Aleksey,,,
Typeface (c) FontSite Inc., 1996-2008. All Rights Reserved. www.fontsite.com
</metadata>
<style>
@font-face { font-family: Avalon; src: url(../../fonts/Avalon-Bold/Avalon-Bold.svg') format('svg'); }
</style>
<defs>
<font id="Avalon-Bold" horiz-adv-x="1132" >
  <font-face 
    font-family="Avalon"
    font-weight="700"
    font-stretch="normal"
    units-per-em="2048"
    panose-1="2 11 8 2 2 2 2 2 2 4"
    ascent="1536"
    descent="-512"
    x-height="1030"
    cap-height="1372"
    bbox="-125 -471 1960 1939"
    underline-thickness="102"
    underline-position="-306"
    unicode-range="U+000D-25FC"
  />
<missing-glyph horiz-adv-x="748" 
d="M68 0v1365h544v-1365h-544zM136 68h408v1229h-408v-1229z" />
    <glyph glyph-name=".notdef" horiz-adv-x="748" 
d="M68 0v1365h544v-1365h-544zM136 68h408v1229h-408v-1229z" />
    <glyph glyph-name="glyph1" horiz-adv-x="0" 
 />
    <glyph glyph-name="uni000D" unicode="&#xd;" horiz-adv-x="681" 
 />
    <glyph glyph-name="space" unicode=" " horiz-adv-x="514" 
 />
    <glyph glyph-name="exclam" unicode="!" horiz-adv-x="608" 
d="M143 0v315h320v-315h-320zM143 453v919h320v-919h-320z" />
    <glyph glyph-name="quotedbl" unicode="&#x22;" horiz-adv-x="538" 
d="M53 1372h176l-18 -440h-139zM307 1372h176l-18 -440h-139z" />
    <glyph glyph-name="numbersign" unicode="#" 
d="M68 430l26 193h185l22 163h-184l28 193h183l43 301h192l-43 -301h176l43 301h191l-43 -301h178l-27 -193h-178l-22 -163h178l-29 -193h-176l-43 -303h-190l40 303h-176l-41 -303h-192l43 303h-184zM471 623h176l23 163h-176z" />
    <glyph glyph-name="dollar" unicode="$" 
d="M133 397q0 10 2 19h318q12 -131 108 -131q45 0 76 31.5t31 78.5q0 66 -62 109q-47 33 -170 78q-291 109 -291 360q0 141 77 238.5t220 136.5v188h250v-188q96 -23 156 -84q104 -104 104 -248q0 -12 -2 -20h-286q-8 119 -103 118q-43 0 -71.5 -29.5t-28.5 -74.5
q0 -78 96 -127q23 -12 156 -64q127 -47 199.5 -142t72.5 -216q0 -129 -79 -229.5t-214 -145.5v-194h-250v186q-151 33 -227 127q-82 102 -82 223z" />
    <glyph glyph-name="percent" unicode="%" horiz-adv-x="1646" 
d="M61 1069q0 139 96.5 234.5t239.5 95.5q145 0 241.5 -94.5t96.5 -237.5t-96.5 -237.5t-243.5 -94.5q-145 0 -239.5 95.5t-94.5 238.5zM276 1069q0 -55 35 -92t88 -37q51 0 86 37t35 90t-34.5 90t-86 37t-87.5 -37t-36 -88zM426 0l578 1372h217l-578 -1372h-217zM911 307
q0 139 96.5 234.5t239.5 95.5q145 0 241.5 -94t96.5 -237.5t-96 -238t-244 -94.5q-143 0 -238.5 95.5t-95.5 238.5zM1126 307q0 -55 35 -92t88 -37q51 0 86 37t35 90t-35 90t-86 37t-87 -37t-36 -88z" />
    <glyph glyph-name="ampersand" unicode="&#x26;" horiz-adv-x="1357" 
d="M61 371q0 113 57.5 197.5t196.5 181.5q-129 131 -129 294q0 150 110 252.5t271 102.5q154 0 257.5 -97.5t103.5 -240.5q0 -180 -191 -313l162 -164l100 225h324l-104 -256q-39 -98 -105 -182l189 -193l-209 -205l-164 166q-186 -168 -410 -168q-193 0 -326 116t-133 284z
M399 403q0 -59 44 -98t114 -39q98 0 168 76l-221 221q-105 -82 -105 -160zM485 1061q0 -68 78 -148q53 53 69.5 82t16.5 68t-22.5 63.5t-57 24.5t-59.5 -25.5t-25 -64.5z" />
    <glyph glyph-name="quotesingle" unicode="'" horiz-adv-x="284" 
d="M53 1372h176l-18 -440h-139z" />
    <glyph glyph-name="parenleft" unicode="(" horiz-adv-x="765" 
d="M61 514q0 231 101.5 438t281.5 344q109 86 267 146v-307q-145 -80 -235.5 -253t-90.5 -370q0 -193 91 -366t235 -250v-308q-154 59 -267 146q-180 137 -281.5 343t-101.5 437z" />
    <glyph glyph-name="parenright" unicode=")" horiz-adv-x="765" 
d="M55 -104q143 78 234.5 252t91.5 370q0 193 -91 365t-235 252v307q154 -59 267 -146q180 -137 281.5 -344t101.5 -438t-101.5 -437t-281.5 -343q-117 -88 -267 -146v308z" />
    <glyph glyph-name="asterisk" unicode="*" horiz-adv-x="995" 
d="M90 999l68 203l237 -90l-6 260h221l-12 -260l238 90l71 -203l-243 -75l153 -205l-172 -129l-151 213l-148 -213l-172 129l160 205z" />
    <glyph glyph-name="plus" unicode="+" 
d="M86 569v234h365v364h233v-364h363v-234h-363v-362h-233v362h-365z" />
    <glyph glyph-name="comma" unicode="," horiz-adv-x="538" 
d="M111 0v315h319v-389q0 -100 -52 -162.5t-136 -62.5h-131v166h63q35 0 57.5 19.5t22.5 50.5v63h-143z" />
    <glyph glyph-name="hyphen" unicode="-" horiz-adv-x="522" 
d="M0 397v260h522v-260h-522z" />
    <glyph glyph-name="period" unicode="." horiz-adv-x="538" 
d="M111 0v315h319v-315h-319z" />
    <glyph glyph-name="slash" unicode="/" horiz-adv-x="868" 
d="M-39 -344l537 1716h303l-539 -1716h-301z" />
    <glyph glyph-name="zero" unicode="0" 
d="M53 487v398q0 203 123 338q74 80 180.5 128t212.5 48q121 0 239 -62.5t189 -165.5q80 -117 80 -286v-398q0 -188 -102 -319q-74 -90 -181.5 -142.5t-222.5 -52.5q-119 0 -232 57.5t-189 153.5q-96 123 -97 303zM403 485q1 -110 56 -159q43 -43 106 -43q68 0 117 49
q45 45 45 153v402q0 109 -45 153q-49 49 -117 50q-63 0 -106 -43q-55 -49 -56 -160v-402z" />
    <glyph glyph-name="one" unicode="1" 
d="M215 1077v295h576v-1372h-351v1077h-225z" />
    <glyph glyph-name="two" unicode="2" 
d="M72 872q2 113 20.5 180.5t59.5 135.5q66 100 177 156.5t249 56.5q201 0 333.5 -115t132.5 -287q0 -236 -213 -469q-84 -94 -243 -235h465v-295h-969v272q162 106 222.5 150.5t131.5 114.5q256 252 256 421q0 59 -36.5 96.5t-94.5 37.5q-76 0 -113.5 -53.5t-43.5 -166.5
h-334z" />
    <glyph glyph-name="three" unicode="3" horiz-adv-x="1126" 
d="M47 408h354q31 -125 158 -125q68 0 110 37.5t42 97.5q0 82 -70 119q-39 18 -117 18h-123v258h60q172 0 172 158q0 53 -26.5 86t-69.5 33q-102 0 -109 -117h-346q4 193 133 309.5t338 116.5q182 0 306 -107.5t124 -267.5q0 -193 -182 -289q260 -88 260 -329
q0 -180 -149.5 -306.5t-360.5 -126.5q-141 0 -259 55.5t-177 149.5q-57 92 -68 230z" />
    <glyph glyph-name="four" unicode="4" 
d="M20 242v256l615 874h326v-856h151v-274h-151v-242h-336v242h-605zM371 516h276v430z" />
    <glyph glyph-name="five" unicode="5" 
d="M35 369h354q63 -88 160 -88q76 0 131 54t55 128q0 78 -53 129t-135 51q-127 0 -178 -117l-283 70l117 776h760v-295h-490l-31 -186q80 41 187 41q215 0 342 -152q115 -137 114 -309q0 -203 -151 -354q-145 -145 -375 -146q-205 0 -347 108t-177 290z" />
    <glyph glyph-name="six" unicode="6" 
d="M27 500q0 178 129 370l340 502h407l-303 -418q55 8 86 9q178 0 298 -134.5t120 -332.5q0 -225 -152.5 -374t-384.5 -149q-270 0 -430 207q-111 150 -110 320zM373 473q0 -80 54 -135t136 -55q80 0 135.5 53t55.5 131t-55.5 132t-137.5 54q-80 0 -134 -52t-54 -128z" />
    <glyph glyph-name="seven" unicode="7" 
d="M125 1077v295h895v-270l-483 -1102h-385l505 1077h-532z" />
    <glyph glyph-name="eight" unicode="8" 
d="M66 414q0 119 56 209t159 133q-135 109 -136 256q0 168 119 277.5t301 109.5q178 0 298 -109.5t120 -271.5q0 -156 -131 -262q102 -43 158.5 -133.5t56.5 -208.5q0 -182 -146.5 -312.5t-351.5 -130.5q-207 0 -355 130.5t-148 312.5zM416 440q0 -70 44 -114.5t111 -44.5
q59 0 102.5 46t43.5 109q0 66 -44 112t-107.5 46t-106.5 -44t-43 -110zM438 985q0 -53 36 -88t89 -35t90 38t37 91q0 51 -37 87t-86 36q-53 0 -91 -38t-38 -91z" />
    <glyph glyph-name="nine" unicode="9" 
d="M29 889q0 219 152.5 365.5t381.5 146.5q238 0 390.5 -151.5t152.5 -387.5q0 -96 -21.5 -166.5t-74.5 -152.5l-351 -543h-399l309 426q-47 -14 -92 -14q-137 0 -235 63q-94 57 -153.5 172t-59.5 242zM379 909q0 -78 55 -133t131 -55q80 0 135.5 54t55.5 132
q0 76 -56.5 130.5t-134.5 54.5q-76 0 -131 -54.5t-55 -128.5z" />
    <glyph glyph-name="colon" unicode=":" horiz-adv-x="538" 
d="M111 0v315h319v-315h-319zM111 715v315h319v-315h-319z" />
    <glyph glyph-name="semicolon" unicode=";" horiz-adv-x="538" 
d="M111 0v315h319v-389q0 -100 -52 -162.5t-136 -62.5h-131v166h63q35 0 57.5 19.5t22.5 50.5v63h-143zM111 715v315h319v-315h-319z" />
    <glyph glyph-name="less" unicode="&#x3c;" horiz-adv-x="1030" 
d="M70 555v281l893 477v-334l-537 -285l535 -284l2 -334z" />
    <glyph glyph-name="equal" unicode="=" 
d="M86 406v219h961v-219h-961zM86 750v219h961v-219h-961z" />
    <glyph glyph-name="greater" unicode="&#x3e;" horiz-adv-x="1030" 
d="M70 76v336l536 284l-534 285l-2 332l893 -477v-283z" />
    <glyph glyph-name="question" unicode="?" horiz-adv-x="1019" 
d="M27 905v35q0 199 137 329t350 130q188 0 316 -114t128 -279q0 -102 -53 -191q-37 -63 -155 -174q-82 -76 -112 -118t-32 -87h-319q-2 78 41 150.5t149 175.5q125 119 125 205q0 115 -106 114q-68 0 -96.5 -40t-30.5 -136h-342zM287 0v315h319v-315h-319z" />
    <glyph glyph-name="at" unicode="@" horiz-adv-x="1544" 
d="M82 526q0 303 211 513t516 210q281 0 467 -173t186 -435q0 -190 -104.5 -335.5t-239.5 -145.5q-55 0 -101 29.5t-61 74.5q-39 -55 -107.5 -88t-141.5 -33q-127 0 -212 94.5t-85 235.5q0 168 109.5 293t254.5 125q66 0 109 -19.5t92 -72.5l14 71l185 -2l-78 -403
q-12 -63 -13 -88q0 -61 43 -62q63 0 116.5 102.5t53.5 223.5q0 195 -135 317.5t-346 122.5q-236 0 -394.5 -160.5t-158.5 -398.5q0 -229 152 -387q143 -145 401 -145q209 0 389 71l43 -170q-197 -70 -430 -69q-323 0 -518 188q-102 96 -159.5 232.5t-57.5 283.5zM618 481
q0 -68 37 -108.5t97 -40.5q70 0 122 65.5t52 153.5q0 66 -35 106.5t-92 40.5q-72 0 -126.5 -64.5t-54.5 -152.5z" />
    <glyph glyph-name="A" unicode="A" horiz-adv-x="1359" 
d="M-6 0l551 1372h276l545 -1372h-379l-67 199h-476l-73 -199h-377zM539 477h288l-143 469z" />
    <glyph glyph-name="B" unicode="B" horiz-adv-x="1187" 
d="M117 0v1372h424q168 0 250.5 -16.5t138.5 -59.5q59 -47 95 -123.5t36 -160.5q0 -182 -160 -275q227 -74 227 -319q0 -182 -127 -299q-76 -70 -167 -94.5t-281 -24.5h-436zM453 309h165q174 0 175 131q0 61 -48 95q-38 24 -120 24h-7h-165v-250zM453 852h125
q147 0 147 109q0 59 -47 86q-29 16 -100 16h-125v-211z" />
    <glyph glyph-name="C" unicode="C" horiz-adv-x="1515" 
d="M59 690q0 299 208 504t511 205q346 0 557 -256q117 -145 142 -291h-367q-41 111 -131 175.5t-203 64.5q-156 0 -261 -115t-105 -285q0 -174 106.5 -291.5t261.5 -117.5q217 0 332 231h367q-57 -242 -250 -391.5t-445 -149.5q-303 0 -513 209t-210 508z" />
    <glyph glyph-name="D" unicode="D" horiz-adv-x="1363" 
d="M117 0v1372h463q199 0 319.5 -41t218.5 -143q186 -193 187 -496q0 -350 -222 -542q-172 -150 -426 -150h-540zM467 309h151q135 0 209 58q59 43 93 127t34 186q0 209 -110 309q-80 74 -223 74h-154v-754z" />
    <glyph glyph-name="E" unicode="E" horiz-adv-x="964" 
d="M117 0v1372h764v-309h-428v-211h413v-309h-413v-234h428v-309h-764z" />
    <glyph glyph-name="F" unicode="F" horiz-adv-x="913" 
d="M117 0v1372h749v-309h-413v-232h399v-309h-399v-522h-336z" />
    <glyph glyph-name="G" unicode="G" horiz-adv-x="1579" 
d="M59 690q0 147 59.5 284.5t164.5 233.5q94 88 233 139.5t279 51.5q236 0 430 -138.5t254 -347.5h-394q-96 178 -301 179q-160 0 -270 -115q-104 -106 -104 -274q0 -194 108 -308q51 -53 130 -83.5t161 -30.5q117 0 197.5 58t105.5 161h-407v280h815l2 -71v-22
q0 -297 -206 -501q-214 -213 -528 -213q-305 0 -517 208t-212 509z" />
    <glyph glyph-name="H" unicode="H" horiz-adv-x="1382" 
d="M117 0v1372h350v-514h448v514h351v-1372h-351v549h-448v-549h-350z" />
    <glyph glyph-name="I" unicode="I" horiz-adv-x="583" 
d="M117 0v1372h350v-1372h-350z" />
    <glyph glyph-name="J" unicode="J" horiz-adv-x="1038" 
d="M0 440h373q4 -84 29.5 -120.5t78.5 -36.5q45 0 76 34q29 37 29 138v917h350v-831q0 -158 -18.5 -241t-65.5 -146q-63 -82 -168.5 -131.5t-220.5 -49.5q-125 0 -234 54.5t-166 146.5q-63 100 -63 266z" />
    <glyph glyph-name="K" unicode="K" horiz-adv-x="1241" 
d="M117 0v1372h350v-618l391 618h369l-455 -684l483 -688h-409l-379 594v-594h-350z" />
    <glyph glyph-name="L" unicode="L" horiz-adv-x="901" 
d="M117 0v1372h350v-1063h405v-309h-755z" />
    <glyph glyph-name="M" unicode="M" horiz-adv-x="1681" 
d="M117 0v1372h450l275 -903l270 903h453v-1372h-322l10 1032l-297 -1032h-231l-297 1032l12 -1032h-323z" />
    <glyph glyph-name="N" unicode="N" horiz-adv-x="1392" 
d="M117 0v1372h301l536 -862l-14 862h336v-1372h-305l-531 836l13 -836h-336z" />
    <glyph glyph-name="O" unicode="O" horiz-adv-x="1566" 
d="M59 696q0 295 210 500t513 205q305 0 516 -207t211 -508q0 -299 -209.5 -506t-515.5 -207q-311 0 -518 207t-207 516zM410 694q0 -176 108.5 -293.5t272.5 -117.5q156 0 262 116.5t106 284.5q0 172 -108.5 290t-266 118t-266 -115t-108.5 -283z" />
    <glyph glyph-name="P" unicode="P" horiz-adv-x="1189" 
d="M117 0v1372h448q164 0 259.5 -23.5t162.5 -78.5q162 -133 162 -365q0 -221 -145 -356q-127 -119 -400 -119h-151v-430h-336zM453 739h141q119 0 166 39q53 47 53 123q0 88 -63 129q-47 33 -168 33h-129v-324z" />
    <glyph glyph-name="Q" unicode="Q" horiz-adv-x="1574" 
d="M59 678q0 303 210 513t511 210q309 0 523.5 -209t214.5 -512q0 -201 -117 -379q53 -49 151 -49q16 0 29 2v-279q-43 -4 -90 -4q-217 0 -320 109q-174 -109 -372 -109q-336 1 -551 234q-188 205 -189 473zM412 743q106 47 196 48q270 0 512 -295q47 113 47 202
q0 170 -108.5 282t-276.5 112q-145 0 -244 -93.5t-126 -255.5zM449 512q43 -102 134 -166.5t193 -64.5q76 0 148 53q-154 201 -353 201q-54 0 -122 -23z" />
    <glyph glyph-name="R" unicode="R" horiz-adv-x="1208" 
d="M117 0v1372h434q172 0 262 -20.5t160 -77.5q80 -63 125 -163.5t45 -211.5q0 -215 -150 -346q-78 -66 -192 -86l373 -467h-402l-319 444v-444h-336zM453 684h125q109 0 169 51t60 144q0 88 -68 143q-55 41 -159 41h-127v-379z" />
    <glyph glyph-name="S" unicode="S" horiz-adv-x="1062" 
d="M29 453h352q0 -86 38 -136.5t103 -50.5q57 0 96 38t39 93.5t-41 89.5q-31 27 -63.5 42.5t-200.5 82.5q-145 59 -223 157.5t-78 223.5q0 170 139.5 289t341.5 119q113 0 211.5 -42t159.5 -116q82 -98 92 -270h-348q-10 70 -38.5 101.5t-86.5 31.5q-51 0 -86 -32t-35 -77
q0 -49 35 -77q25 -25 56.5 -41.5t193.5 -90.5q172 -78 247 -170t75 -225q0 -197 -128 -309.5t-352 -112.5q-375 0 -473 283q-26 69 -26 190v9z" />
    <glyph glyph-name="T" unicode="T" horiz-adv-x="921" 
d="M14 1063v309h893v-309h-270v-1063h-350v1063h-273z" />
    <glyph glyph-name="U" unicode="U" horiz-adv-x="1259" 
d="M102 543v829h351v-829q0 -135 43 -197.5t137 -62.5q86 0 131 55q43 51 43 205v829h350v-829q0 -152 -31.5 -247t-105.5 -173q-150 -150 -387 -150q-241 1 -393 148q-78 76 -108 168t-30 254z" />
    <glyph glyph-name="V" unicode="V" horiz-adv-x="1241" 
d="M-20 1372h362l276 -962l281 962h363l-463 -1372h-361z" />
    <glyph glyph-name="W" unicode="W" horiz-adv-x="1785" 
d="M14 1372h357l184 -893l205 893h268l201 -895l188 895h357l-365 -1372h-309l-207 889l-207 -889h-317z" />
    <glyph glyph-name="X" unicode="X" horiz-adv-x="1325" 
d="M-20 0l479 731l-424 641h397l236 -391l229 391h395l-420 -649l474 -723h-396l-297 485l-282 -485h-391z" />
    <glyph glyph-name="Y" unicode="Y" horiz-adv-x="1126" 
d="M-20 1372h380l205 -551l205 551h377l-408 -872v-500h-350v500z" />
    <glyph glyph-name="Z" unicode="Z" horiz-adv-x="942" 
d="M35 0v231l473 832h-473v309h866v-285l-438 -778h438v-309h-866z" />
    <glyph glyph-name="bracketleft" unicode="[" horiz-adv-x="765" 
d="M123 174v682q0 150 33.5 247t111.5 175q68 70 137.5 101.5t202.5 56.5l33 6v-303q-109 -4 -156 -62.5t-47 -185.5v-752q0 -129 47 -186t156 -64v-301q-127 20 -186.5 41t-126.5 70q-109 82 -157 191.5t-48 283.5z" />
    <glyph glyph-name="backslash" unicode="\" horiz-adv-x="868" 
d="M70 1372h301l538 -1716h-303z" />
    <glyph glyph-name="bracketright" unicode="]" horiz-adv-x="765" 
d="M125 -111q109 6 156 63.5t47 186.5v752q0 127 -47.5 185.5t-155.5 62.5v303q129 -20 187.5 -41t123.5 -70q111 -82 159 -192.5t48 -282.5v-682q0 -150 -34 -247t-111 -175q-68 -70 -137.5 -101.5t-202.5 -56.5q-4 -2 -33 -6v301z" />
    <glyph glyph-name="asciicircum" unicode="^" horiz-adv-x="1030" 
d="M25 713l303 667h374l304 -667h-297l-195 440l-192 -440h-297z" />
    <glyph glyph-name="underscore" unicode="_" horiz-adv-x="1024" 
d="M0 -111h1024v-198h-1024v198z" />
    <glyph glyph-name="grave" unicode="`" horiz-adv-x="1030" 
d="M184 1389l123 188l402 -307l-105 -152z" />
    <glyph glyph-name="a" unicode="a" horiz-adv-x="1292" 
d="M55 516q0 242 148.5 396.5t382.5 154.5q227 0 311 -145v108h291v-1030h-291v111q-74 -145 -319 -146q-231 0 -377 153.5t-146 397.5zM365 518q0 -113 73.5 -188.5t184.5 -75.5q113 0 185.5 73.5t72.5 188.5q0 113 -74 186.5t-186 73.5q-109 0 -182.5 -74.5t-73.5 -183.5z
" />
    <glyph glyph-name="b" unicode="b" horiz-adv-x="1271" 
d="M102 0v1372h310v-424q111 117 297 117q207 0 356 -145q152 -152 152 -398t-145.5 -401.5t-375.5 -155.5q-94 0 -156.5 30t-146.5 116v-111h-291zM397 518q0 -113 73 -188.5t181.5 -75.5t182 76t73.5 186q0 109 -72.5 184.5t-179.5 75.5q-109 0 -183.5 -74.5t-74.5 -183.5
z" />
    <glyph glyph-name="c" unicode="c" horiz-adv-x="1181" 
d="M55 516.5q0 231.5 157 390t386 158.5q203 0 354.5 -120t192.5 -312h-314q-27 68 -86 105.5t-137 37.5q-106 0 -174.5 -74.5t-68.5 -189.5q0 -113 68.5 -185.5t174.5 -72.5q137 0 228 137h311q-47 -188 -196.5 -307t-344.5 -119q-231 0 -391 160t-160 391.5z" />
    <glyph glyph-name="d" unicode="d" horiz-adv-x="1282" 
d="M53 516q0 238 145.5 393.5t366.5 155.5q182 0 303 -123v430h310v-1372h-291v111q-66 -78 -138.5 -112t-179.5 -34q-225 0 -370.5 155.5t-145.5 395.5zM362 518q0 -115 74 -189.5t186.5 -74.5t188.5 76t76 190q0 109 -75 182.5t-185 73.5q-115 0 -190 -72.5t-75 -185.5z
" />
    <glyph glyph-name="e" unicode="e" horiz-adv-x="1189" 
d="M55 512q0 229 156 391t379 162q231 0 387 -161t156 -402q0 -41 -9 -84h-770q10 -86 72.5 -139.5t153.5 -53.5q106 0 188 82l14 15h316q-72 -168 -205 -262.5t-299 -94.5q-223 0 -381 160t-158 387zM360 625h465q-14 80 -78.5 129t-154.5 49t-151 -47t-81 -131z" />
    <glyph glyph-name="f" unicode="f" horiz-adv-x="606" 
d="M16 797v233h115v53q0 158 96.5 238t296.5 80h45v-234h-34q-45 0 -70 -25.5t-25 -70.5v-41h129v-233h-129v-797h-309v797h-115z" />
    <glyph glyph-name="g" unicode="g" horiz-adv-x="1275" 
d="M55 508q0 240 149.5 398.5t375.5 158.5q193 0 303 -131v96h291v-905q0 -158 -12.5 -222.5t-53.5 -125.5q-74 -109 -213 -172.5t-307 -63.5q-209 0 -349 99.5t-163 263.5h354q43 -102 182 -103q129 0 201 95q49 63 49 184v33q-33 -63 -121 -105.5t-188 -42.5
q-207 0 -352.5 159t-145.5 384zM365 520q0 -115 70.5 -190.5t176.5 -75.5q111 0 181.5 71.5t70.5 184.5q0 117 -70.5 191.5t-179.5 74.5q-104 0 -176.5 -75t-72.5 -181z" />
    <glyph glyph-name="h" unicode="h" horiz-adv-x="1153" 
d="M102 0v1372h310v-436q76 129 268 129q174 0 281 -111q55 -59 75.5 -139t20.5 -240v-575h-309v561q0 215 -164 215q-82 0 -131 -53q-41 -43 -41 -152v-571h-310z" />
    <glyph glyph-name="i" unicode="i" horiz-adv-x="514" 
d="M102 0v1030h310v-1030h-310zM102 1139v233h310v-233h-310z" />
    <glyph glyph-name="j" unicode="j" horiz-adv-x="514" 
d="M-47 -143h41q61 0 84.5 33.5t23.5 121.5v1018h310v-1005q0 -227 -83 -314.5t-300 -87.5h-76v234zM102 1139v233h310v-233h-310z" />
    <glyph glyph-name="k" unicode="k" horiz-adv-x="1052" 
d="M102 0v1372h310v-715l288 373h365l-387 -452l377 -578h-350l-293 496v-496h-310z" />
    <glyph glyph-name="l" unicode="l" horiz-adv-x="514" 
d="M102 0v1372h310v-1372h-310z" />
    <glyph glyph-name="m" unicode="m" horiz-adv-x="1779" 
d="M102 0v1030h291v-108q100 143 283 143q201 0 299 -184q113 184 325 184q160 0 269 -102q70 -66 91 -145t21 -257v-561h-309v547q0 125 -35 174q-39 55 -118 55q-76 0 -123 -51q-45 -51 -45 -164v-561h-310v561q0 215 -157 215q-172 0 -172 -215v-561h-310z" />
    <glyph glyph-name="n" unicode="n" horiz-adv-x="1153" 
d="M102 0v1030h291v-108q57 78 122 110.5t161 32.5q170 0 278 -104q57 -55 80 -125t23 -193v-643h-309v561q0 106 -31 152q-41 63 -131 63q-96 0 -146 -71q-28 -40 -28 -124v-6v-575h-310z" />
    <glyph glyph-name="o" unicode="o" horiz-adv-x="1224" 
d="M55 518q0 231 162 393q150 154 393 154q272 0 432 -195q125 -158 125 -354q0 -231 -161 -397q-150 -154 -398 -154q-242 0 -397.5 155.5t-155.5 397.5zM365 518q0 -113 70.5 -188.5t176.5 -75.5q104 0 175 74.5t71 187.5q0 106 -71.5 183t-174 77t-175 -76t-72.5 -182z
" />
    <glyph glyph-name="p" unicode="p" horiz-adv-x="1284" 
d="M102 -344v1374h291v-112q115 147 326 147q219 0 356 -150q70 -76 109 -185t39 -224q0 -229 -144.5 -385t-357.5 -156q-188 0 -309 129v-438h-310zM397 518q0 -109 76 -186.5t184.5 -77.5t182 76t73.5 186.5t-74.5 185t-183.5 74.5q-115 0 -186 -80q-72 -78 -72 -178z" />
    <glyph glyph-name="q" unicode="q" horiz-adv-x="1282" 
d="M53 496q0 248 146.5 408.5t373.5 160.5q199 0 314 -147v112h291v-1374h-310v448q-125 -139 -317 -139q-213 0 -355.5 152t-142.5 379zM362 518q0 -113 75 -188.5t188 -75.5q106 0 182 77t76 183q0 111 -76 186.5t-186 75.5q-109 0 -184 -74.5t-75 -183.5z" />
    <glyph glyph-name="r" unicode="r" horiz-adv-x="665" 
d="M102 0v1030h291v-108q45 80 111 112q66 31 139 31h8v-309q-133 -2 -188 -45t-55 -142v-569h-306z" />
    <glyph glyph-name="s" unicode="s" horiz-adv-x="917" 
d="M31 305h307q12 -94 117 -94q45 0 75.5 23.5t30.5 56.5q0 35 -26 57q-29 23 -64 34t-211 58q-96 25 -157.5 105t-61.5 180q0 143 121 241.5t295 98.5q205 0 313 -137q57 -74 68 -187h-301q-8 76 -88 76q-45 0 -72 -18.5t-27 -46.5q0 -70 160 -113q197 -53 262 -109
q98 -84 98 -217q0 -150 -122.5 -250t-305 -100t-305.5 113q-51 47 -74.5 98t-31.5 131z" />
    <glyph glyph-name="t" unicode="t" horiz-adv-x="604" 
d="M-20 797v233h151v342h309v-342h148v-233h-148v-797h-309v797h-151z" />
    <glyph glyph-name="u" unicode="u" horiz-adv-x="1157" 
d="M96 414v616h310v-575q0 -113 43 -156q45 -45 122 -45q82 0 128 52t46 149v575h310v-1030h-291v111q-78 -145 -275 -146q-186 0 -299 129q-53 63 -73.5 131t-20.5 189z" />
    <glyph glyph-name="v" unicode="v" horiz-adv-x="995" 
d="M-20 1030h319l199 -643l198 643h320l-371 -1030h-297z" />
    <glyph glyph-name="w" unicode="w" horiz-adv-x="1550" 
d="M0 1030h317l158 -639l170 639h260l172 -639l156 639h317l-315 -1030h-287l-174 666l-174 -666h-287z" />
    <glyph glyph-name="x" unicode="x" horiz-adv-x="1122" 
d="M-20 0l391 551l-346 479h368l166 -270l166 270h365l-347 -479l400 -551h-377l-207 319l-211 -319h-368z" />
    <glyph glyph-name="y" unicode="y" horiz-adv-x="1021" 
d="M-20 1030h327l209 -598l199 598h327l-516 -1374h-327l163 395z" />
    <glyph glyph-name="z" unicode="z" horiz-adv-x="835" 
d="M35 0v211l434 586h-434v233h766v-235l-404 -562h404v-233h-766z" />
    <glyph glyph-name="braceleft" unicode="{" horiz-adv-x="636" 
d="M0 418v192q57 18 80.5 53t23.5 101v326q0 158 71 222t247 64q4 0 10 -1t14.5 -1t28 -1t47.5 -1h68v-246h-27q-100 0 -127 -24q-20 -16 -25 -35.5t-5 -83.5v-219q0 -119 -46 -180q-23 -31 -88 -70q35 -39 54 -57q47 -49 63.5 -93.5t16.5 -121.5v-195q0 -66 6 -88t28 -37
q31 -20 121 -20h29v-246h-70l-67 -4h-35q-172 0 -243 65.5t-71 225.5v303q0 80 -22.5 116.5t-81.5 55.5z" />
    <glyph glyph-name="bar" unicode="|" horiz-adv-x="1030" 
d="M344 -344v1716h340v-1716h-340z" />
    <glyph glyph-name="braceright" unicode="}" horiz-adv-x="636" 
d="M47 -98h27q98 0 127 24q20 16 25 36t5 83v219q0 119 45 180q23 31 89 70q-74 78 -89.5 98.5t-25.5 44.5q-18 55 -19 129v195q0 66 -6 88.5t-28 36.5q-31 20 -121 20h-29v246h70l67 4h35q172 0 242.5 -65.5t70.5 -225.5v-303q0 -80 23 -116.5t82 -55.5v-192
q-57 -18 -81 -53t-24 -101v-325q0 -158 -70.5 -222.5t-246.5 -64.5q-4 0 -10 1t-14.5 1t-28 1t-47.5 1h-68v246z" />
    <glyph glyph-name="asciitilde" unicode="~" horiz-adv-x="1372" 
d="M190 1262q115 291 312 290q66 0 231 -67q117 -49 152 -49q76 0 139 123l164 -138q-63 -156 -137 -221t-187 -65q-43 0 -83 12t-146 57q-102 43 -146 43q-69 0 -137 -121z" />
    <glyph glyph-name="uni00A0" unicode="&#xa0;" horiz-adv-x="514" 
 />
    <glyph glyph-name="exclamdown" unicode="&#xa1;" horiz-adv-x="608" 
d="M143 -344v922h320v-922h-320zM143 715v315h320v-315h-320z" />
    <glyph glyph-name="cent" unicode="&#xa2;" 
d="M109 692q0 156 90 278t241 171v194h244v-188q131 -33 229.5 -138.5t112.5 -230.5h-321q-41 74 -132 74q-66 0 -112.5 -46t-46.5 -111.5t46 -110.5t113 -45q74 0 125 63h328q-23 -127 -118 -228.5t-214 -121.5v-195h-254v195q-156 51 -243.5 169t-87.5 271z" />
    <glyph glyph-name="sterling" unicode="&#xa3;" 
d="M16 526v248h90q-53 98 -53 174q0 186 145.5 319.5t348.5 133.5q133 0 242.5 -58.5t173.5 -160.5q53 -82 71 -240h-323q-14 150 -144 150q-70 0 -117 -48.5t-47 -119.5q0 -76 64 -150h291v-248h-144q61 -70 62 -125q0 -63 -74 -127h78q152 0 151 127q0 31 -12 68h297
q20 -59 21 -119q0 -80 -41 -153q-111 -197 -365 -197h-659v274h92q90 0 130 24t40 77q0 49 -35 94l-45 57h-238z" />
    <glyph glyph-name="currency" unicode="&#xa4;" horiz-adv-x="1220" 
d="M76 262l155 158q-86 127 -86 270q0 145 86 264l-151 150l113 113l151 -152q121 86 266 86q147 0 269 -86l155 156l111 -111l-156 -158q84 -123 84 -262q0 -143 -84 -270l152 -152l-113 -112l-149 151q-123 -84 -270.5 -84t-264.5 84l-156 -155zM367 690
q0 -109 70.5 -185.5t170.5 -76.5q102 0 175 76t73 184q0 106 -72.5 182t-173.5 76q-98 0 -170.5 -75.5t-72.5 -180.5z" />
    <glyph glyph-name="yen" unicode="&#xa5;" 
d="M23 1372h350l196 -551l197 551h346l-186 -434h121v-215h-213l-70 -164h227v-215h-254v-344h-336v344h-258v215h232l-80 184h-207v215h115z" />
    <glyph glyph-name="brokenbar" unicode="&#xa6;" horiz-adv-x="1030" 
d="M344 315h340v-659h-340v659zM344 641v731h340v-731h-340z" />
    <glyph glyph-name="section" unicode="&#xa7;" 
d="M57 578q0 170 164 288q-55 82 -55 193q0 152 114.5 246t299.5 94q178 0 294.5 -99.5t122.5 -255.5h-282q-29 100 -154 101q-55 0 -87 -24.5t-32 -65.5q0 -33 22.5 -55.5t80.5 -49.5l315 -141q113 -51 164 -118.5t51 -168.5q0 -76 -31.5 -134t-115.5 -138q88 -121 88 -244
q0 -166 -121 -271.5t-311 -105.5q-115 0 -219.5 43t-167.5 119q-85 96 -97 246h283q25 -147 197 -148q66 0 109.5 32t43.5 79q0 41 -31.5 71.5t-119.5 69.5l-295 135q-123 57 -176.5 127t-53.5 175zM317 637q1 -68 93 -111l348 -159q63 41 63 106q0 33 -26.5 59.5
t-92.5 55.5l-317 143q-68 -35 -68 -94z" />
    <glyph glyph-name="dieresis" unicode="&#xa8;" horiz-adv-x="1030" 
d="M162 1182v280h295v-280h-295zM573 1182v280h295v-280h-295z" />
    <glyph glyph-name="copyright" unicode="&#xa9;" horiz-adv-x="1613" 
d="M94 694q0 287 212 496t503 209q293 0 503 -210t210 -503t-210 -503t-503 -210q-299 0 -507 210t-208 511zM188 692q0 -262 181.5 -447.5t439.5 -185.5q254 0 436 184.5t182 440.5q0 258 -182 443.5t-436 185.5q-252 0 -436.5 -184.5t-184.5 -436.5zM334 694
q0 178 136 302t335 124q170 0 302 -96t157 -238h-246q-29 66 -85 104t-128 38q-100 0 -168 -66.5t-68 -167t68 -169t168 -68.5q141 0 213 137h246q-39 -150 -164 -240t-293 -90q-199 0 -336 125t-137 305z" />
    <glyph glyph-name="ordfeminine" unicode="&#xaa;" horiz-adv-x="874" 
d="M47 860q0 145 97.5 238.5t252.5 93.5q135 0 199 -78v55h197v-620h-197v55q-64 -76 -205 -76q-152 0 -248 92.5t-96 239.5zM256 862q0 -66 47 -109.5t117 -43.5q72 0 118 43t46 110q0 66 -47.5 108t-118.5 42q-68 0 -115 -43t-47 -107z" />
    <glyph glyph-name="guillemotleft" unicode="&#xab;" horiz-adv-x="757" 
d="M70 414v237l239 244v-277l-96 -81l96 -88v-273zM406 414v237l239 244v-277l-96 -81l96 -88v-273z" />
    <glyph glyph-name="logicalnot" unicode="&#xac;" horiz-adv-x="1030" 
d="M70 307v295h893v-602h-328v307h-565z" />
    <glyph glyph-name="uni00AD" unicode="&#xad;" horiz-adv-x="522" 
d="M0 397v260h522v-260h-522z" />
    <glyph glyph-name="registered" unicode="&#xae;" horiz-adv-x="1613" 
d="M94 694q0 287 212 496t503 209q293 0 503 -210t210 -503t-210 -503t-503 -210q-299 0 -507 210t-208 511zM188 692q0 -262 181.5 -447.5t439.5 -185.5q254 0 436 184.5t182 440.5q0 258 -182 443.5t-436 185.5q-252 0 -436.5 -184.5t-184.5 -436.5zM492 289v823h286
q197 0 279 -59q111 -84 110 -228q0 -100 -60 -171.5t-159 -86.5l244 -278h-270l-203 256v-256h-227zM719 702h76q70 0 107.5 29t37.5 82q0 106 -143 107h-78v-218z" />
    <glyph glyph-name="macron" unicode="&#xaf;" horiz-adv-x="1030" 
d="M184 1221v180h660v-180h-660z" />
    <glyph glyph-name="degree" unicode="&#xb0;" horiz-adv-x="788" 
d="M86 1112q0 121 91 209t216 88q129 0 219 -88t90 -213t-90 -214t-217 -89q-129 0 -219 89t-90 218zM242 1110q0 -63 45 -107.5t108 -44.5q61 0 106.5 44.5t45.5 105.5t-45 105t-109 44q-61 0 -106 -44t-45 -103z" />
    <glyph glyph-name="plusminus" unicode="&#xb1;" 
d="M86 -70v234h961v-234h-961zM86 569v234h365v364h233v-364h363v-234h-363v-342h-233v342h-365z" />
    <glyph glyph-name="uni00B2" unicode="&#xb2;" horiz-adv-x="770" 
d="M59 1067q6 125 54 195q92 127 278 127q131 0 219 -70t88 -174q0 -100 -64.5 -192.5t-223.5 -219.5h295v-184h-637v168q160 94 229 157q166 145 166 246q0 33 -22.5 54.5t-57.5 21.5q-92 0 -98 -129h-226z" />
    <glyph glyph-name="uni00B3" unicode="&#xb3;" horiz-adv-x="765" 
d="M43 799h240q18 -74 98 -74q41 0 67.5 21.5t26.5 54.5q0 78 -117 78h-84v161h43q109 0 109 88q0 68 -59 68q-66 0 -66 -70h-233q2 119 87 191t222 72q121 0 203 -66t82 -162q0 -113 -113 -170q162 -53 162 -198q0 -109 -98.5 -185t-235.5 -76q-94 0 -173 34t-116 89
q-33 49 -45 144z" />
    <glyph glyph-name="acute" unicode="&#xb4;" horiz-adv-x="1030" 
d="M322 1270l401 307l123 -188l-420 -271z" />
    <glyph glyph-name="uni00B5" unicode="&#xb5;" horiz-adv-x="1030" 
d="M55 -352v1341h285v-510q0 -123 31 -174q51 -88 145 -88q84 0 128 68.5t44 199.5v504h285v-989h-285v129q-57 -150 -178 -149q-107 -1 -170 120v-452h-285z" />
    <glyph glyph-name="paragraph" unicode="&#xb6;" 
d="M41 1008q0 102 43 184t119 125q98 55 289 55h573v-178h-119v-1387h-184v1387h-164v-1387h-184v850h-25q-156 0 -252 97.5t-96 253.5z" />
    <glyph glyph-name="periodcentered" unicode="&#xb7;" horiz-adv-x="538" 
d="M111 371v315h319v-315h-319z" />
    <glyph glyph-name="cedilla" unicode="&#xb8;" horiz-adv-x="1030" 
d="M313 -281h129q12 -29 25.5 -40t38.5 -11q31 0 51.5 19.5t20.5 50.5q0 29 -18.5 46t-45.5 17q-29 0 -55 -26l-92 63l77 162h125l-55 -106q31 6 51 6q61 0 105.5 -45t44.5 -109q0 -88 -57.5 -142.5t-147.5 -54.5q-84 0 -136 45.5t-61 124.5z" />
    <glyph glyph-name="uni00B9" unicode="&#xb9;" horiz-adv-x="770" 
d="M152 1188v184h380v-823h-235v639h-145z" />
    <glyph glyph-name="ordmasculine" unicode="&#xba;" horiz-adv-x="829" 
d="M49 862q0 139 104.5 233.5t260.5 94.5q158 0 262 -94.5t104 -235.5q0 -143 -104 -237.5t-266 -94.5q-156 0 -258.5 94.5t-102.5 239.5zM258 862q0 -66 45 -109.5t111 -43.5q68 0 112.5 43t44.5 108q0 61 -46 105.5t-111.5 44.5t-110.5 -43t-45 -105z" />
    <glyph glyph-name="guillemotright" unicode="&#xbb;" horiz-adv-x="727" 
d="M82 176v277l96 82l-96 86v274l240 -246v-237zM418 176v277l96 82l-96 86v274l239 -246v-237z" />
    <glyph glyph-name="onequarter" unicode="&#xbc;" horiz-adv-x="1853" 
d="M152 1188v184h380v-823h-235v639h-145zM543 0l577 1372h189l-576 -1372h-190zM1110 143v158l399 522h220v-508h98v-172h-98v-143h-228v143h-391zM1341 305h185v262z" />
    <glyph glyph-name="onehalf" unicode="&#xbd;" horiz-adv-x="1853" 
d="M152 1188v184h380v-823h-235v639h-145zM543 0l577 1372h189l-576 -1372h-190zM1143 518q6 125 53 195q92 127 279 127q131 0 219 -70t88 -174q0 -100 -64.5 -192.5t-224.5 -219.5h295v-184h-637v168q166 100 229 158q166 145 166 245q0 33 -22.5 54.5t-57.5 21.5
q-92 0 -98 -129h-225z" />
    <glyph glyph-name="threequarters" unicode="&#xbe;" horiz-adv-x="1851" 
d="M43 799h240q18 -74 98 -74q41 0 67.5 21.5t26.5 54.5q0 78 -117 78h-84v161h43q109 0 109 88q0 68 -59 68q-66 0 -66 -70h-233q2 119 87 191t222 72q121 0 203 -66t82 -162q0 -113 -113 -170q162 -53 162 -198q0 -109 -98.5 -185t-235.5 -76q-94 0 -173 34t-116 89
q-33 49 -45 144zM541 0l577 1372h189l-578 -1372h-188zM1106 143v158l401 522h219v-508h99v-172h-99v-143h-227v143h-393zM1339 305h185v262z" />
    <glyph glyph-name="questiondown" unicode="&#xbf;" horiz-adv-x="1019" 
d="M61 23q0 102 54 192q43 68 155 172q80 74 110 116t34 89h319q2 -78 -41 -150.5t-149 -175.5q-125 -119 -125 -205q0 -115 106 -114q68 0 96.5 41t30.5 137h340q2 -14 2 -35q0 -201 -137 -331t-350 -130q-188 0 -316.5 114t-128.5 280zM414 715v315h319v-315h-319z" />
    <glyph glyph-name="Agrave" unicode="&#xc0;" horiz-adv-x="1359" 
d="M-6 0l551 1372h276l545 -1372h-379l-67 199h-476l-73 -199h-377zM258 1686l104 233l494 -268l-90 -189zM539 477h288l-143 469z" />
    <glyph glyph-name="Aacute" unicode="&#xc1;" horiz-adv-x="1359" 
d="M-6 0l551 1372h276l545 -1372h-379l-67 199h-476l-73 -199h-377zM524 1651l494 268l104 -233l-506 -224zM539 477h288l-143 469z" />
    <glyph glyph-name="Acircumflex" unicode="&#xc2;" horiz-adv-x="1359" 
d="M-6 0l551 1372h276l545 -1372h-379l-67 199h-476l-73 -199h-377zM274 1509l273 310h303l262 -310h-324l-94 131l-92 -131h-328zM539 477h288l-143 469z" />
    <glyph glyph-name="Atilde" unicode="&#xc3;" horiz-adv-x="1359" 
d="M-6 0l551 1372h276l545 -1372h-379l-67 199h-476l-73 -199h-377zM340 1714q106 88 207 88q66 0 231 -51q25 -8 51 -8q59 0 164 59l97 -182q-113 -84 -222 -84q-63 0 -239 53q-25 8 -54 8q-59 1 -135 -65zM539 477h288l-143 469z" />
    <glyph glyph-name="Adieresis" unicode="&#xc4;" horiz-adv-x="1359" 
d="M-6 0l551 1372h276l545 -1372h-379l-67 199h-476l-73 -199h-377zM303 1509v310h324v-310h-324zM539 477h288l-143 469zM748 1509v310h323v-310h-323z" />
    <glyph glyph-name="Aring" unicode="&#xc5;" horiz-adv-x="1359" 
d="M-6 0l551 1372h276l545 -1372h-379l-67 199h-476l-73 -199h-377zM457 1706q0 96 70.5 164.5t170.5 68.5q96 0 165 -69.5t69 -165.5t-69.5 -166t-168 -70t-168 70t-69.5 168zM539 477h288l-143 469zM608 1706q0 -39 25.5 -64.5t60.5 -25.5t60.5 26.5t25.5 61.5
q0 37 -24.5 63.5t-59.5 26.5q-37 0 -62.5 -25.5t-25.5 -62.5z" />
    <glyph glyph-name="AE" unicode="&#xc6;" horiz-adv-x="1767" 
d="M-55 0l954 1372h782v-309h-428v-211h414v-309h-414v-234h428v-309h-763v229h-400l-149 -229h-424zM662 502h256v372z" />
    <glyph glyph-name="Ccedilla" unicode="&#xc7;" horiz-adv-x="1515" 
d="M59 688q0 299 208 505t511 206q346 0 557 -256q117 -145 142 -291h-367q-41 111 -131 175.5t-203 64.5q-156 0 -261 -115t-105 -285q0 -174 106.5 -291.5t261.5 -117.5q217 0 332 231h367q-49 -225 -234.5 -377.5t-417.5 -161.5l-34 -71q25 6 36 6q70 0 116 -47t46 -117
q0 -94 -64.5 -155.5t-162.5 -61.5q-92 0 -145.5 49t-61.5 139h143q25 -53 70 -53q31 0 51.5 20.5t20.5 49.5q0 31 -20.5 50t-49.5 19q-31 0 -59 -30l-105 63l74 144q-268 39 -444.5 238.5t-176.5 469.5z" />
    <glyph glyph-name="Egrave" unicode="&#xc8;" horiz-adv-x="964" 
d="M82 1686l104 233l494 -268l-90 -189zM117 0v1372h764v-309h-428v-211h413v-309h-413v-234h428v-309h-764z" />
    <glyph glyph-name="Eacute" unicode="&#xc9;" horiz-adv-x="964" 
d="M117 0v1372h764v-309h-428v-211h413v-309h-413v-234h428v-309h-764zM336 1651l493 268l105 -233l-506 -224z" />
    <glyph glyph-name="Ecircumflex" unicode="&#xca;" horiz-adv-x="964" 
d="M86 1509l272 310h304l262 -310h-324l-94 131l-92 -131h-328zM117 0v1372h764v-309h-428v-211h413v-309h-413v-234h428v-309h-764z" />
    <glyph glyph-name="Edieresis" unicode="&#xcb;" horiz-adv-x="964" 
d="M117 0v1372h764v-309h-428v-211h413v-309h-413v-234h428v-309h-764zM121 1509v310h323v-310h-323zM565 1509v310h324v-310h-324z" />
    <glyph glyph-name="Igrave" unicode="&#xcc;" horiz-adv-x="583" 
d="M-125 1671l105 225l460 -245l-92 -189zM117 0v1372h350v-1372h-350z" />
    <glyph glyph-name="Iacute" unicode="&#xcd;" horiz-adv-x="583" 
d="M117 0v1372h350v-1372h-350zM158 1651l458 245l105 -225l-473 -209z" />
    <glyph glyph-name="Icircumflex" unicode="&#xce;" horiz-adv-x="583" 
d="M-100 1509l252 310h303l241 -310h-311l-86 146l-86 -146h-313zM117 0v1372h350v-1372h-350z" />
    <glyph glyph-name="Idieresis" unicode="&#xcf;" horiz-adv-x="583" 
d="M-31 1509v310h281v-310h-281zM117 0v1372h350v-1372h-350zM348 1509v310h281v-310h-281z" />
    <glyph glyph-name="Eth" unicode="&#xd0;" horiz-adv-x="1363" 
d="M0 590v248h117v534h463q199 0 319.5 -41t218.5 -143q186 -193 187 -496q0 -311 -178.5 -501.5t-469.5 -190.5h-540v590h-117zM467 309h151q133 0 209 58q59 43 93 127t34 186q0 184 -87 283.5t-246 99.5h-154v-225h254v-248h-254v-281z" />
    <glyph glyph-name="Ntilde" unicode="&#xd1;" horiz-adv-x="1392" 
d="M117 0v1372h301l536 -862l-14 862h336v-1372h-305l-531 836l13 -836h-336zM334 1714q106 88 207 88q66 0 231 -51q25 -8 51 -8q59 0 164 59l96 -182q-113 -84 -221 -84q-63 0 -239 53q-25 8 -54 8q-59 1 -135 -65z" />
    <glyph glyph-name="Ograve" unicode="&#xd2;" horiz-adv-x="1566" 
d="M59 696q0 295 210 500t513 205q305 0 516 -207t211 -508q0 -299 -209.5 -506t-515.5 -207q-311 0 -518 207t-207 516zM340 1686l104 233l494 -268l-90 -189zM410 694q0 -176 108.5 -293.5t272.5 -117.5q156 0 262 116.5t106 284.5q0 172 -108.5 290t-266 118t-266 -115
t-108.5 -283z" />
    <glyph glyph-name="Oacute" unicode="&#xd3;" horiz-adv-x="1566" 
d="M59 696q0 295 210 500t513 205q305 0 516 -207t211 -508q0 -299 -209.5 -506t-515.5 -207q-311 0 -518 207t-207 516zM410 694q0 -176 108.5 -293.5t272.5 -117.5q156 0 262 116.5t106 284.5q0 172 -108.5 290t-266 118t-266 -115t-108.5 -283zM655 1651l494 268
l104 -233l-505 -224z" />
    <glyph glyph-name="Ocircumflex" unicode="&#xd4;" horiz-adv-x="1566" 
d="M59 696q0 295 210 500t513 205q305 0 516 -207t211 -508q0 -299 -209.5 -506t-515.5 -207q-311 0 -518 207t-207 516zM373 1509l272 310h303l262 -310h-323l-94 131l-93 -131h-327zM410 694q0 -176 108.5 -293.5t272.5 -117.5q156 0 262 116.5t106 284.5
q0 172 -108.5 290t-266 118t-266 -115t-108.5 -283z" />
    <glyph glyph-name="Otilde" unicode="&#xd5;" horiz-adv-x="1566" 
d="M59 696q0 295 210 500t513 205q305 0 516 -207t211 -508q0 -299 -209.5 -506t-515.5 -207q-311 0 -518 207t-207 516zM410 694q0 -176 108.5 -293.5t272.5 -117.5q156 0 262 116.5t106 284.5q0 172 -108.5 290t-266 118t-266 -115t-108.5 -283zM451 1714q106 88 206 88
q66 0 232 -51q25 -8 51 -8q59 0 164 59l96 -182q-113 -84 -221 -84q-63 0 -240 53q-25 8 -53 8q-59 1 -135 -65z" />
    <glyph glyph-name="Odieresis" unicode="&#xd6;" horiz-adv-x="1566" 
d="M59 696q0 295 210 500t513 205q305 0 516 -207t211 -508q0 -299 -209.5 -506t-515.5 -207q-311 0 -518 207t-207 516zM408 1509v310h323v-310h-323zM410 694q0 -176 108.5 -293.5t272.5 -117.5q156 0 262 116.5t106 284.5q0 172 -108.5 290t-266 118t-266 -115
t-108.5 -283zM852 1509v310h324v-310h-324z" />
    <glyph glyph-name="multiply" unicode="&#xd7;" 
d="M121 403l282 283l-282 283l162 161l282 -282l283 282l162 -161l-283 -283l283 -283l-162 -161l-283 284l-282 -284z" />
    <glyph glyph-name="Oslash" unicode="&#xd8;" horiz-adv-x="1566" 
d="M59 688q0 305 211 508t527 203q154 0 313 -62l119 158l198 -154l-118 -155q201 -227 200 -500q0 -287 -198 -496q-213 -219 -563 -219q-178 0 -291 68l-117 -156l-193 146l119 161q-207 174 -207 498zM406 680q-1 -115 67 -221l445 606q-55 25 -125 25q-176 0 -279 -121
q-109 -129 -108 -289zM657 305q55 -25 121 -24q180 0 287 133q94 117 94 270q0 113 -57 219z" />
    <glyph glyph-name="Ugrave" unicode="&#xd9;" horiz-adv-x="1259" 
d="M102 543v829h351v-829q0 -135 43 -197.5t137 -62.5q86 0 131 55q43 51 43 205v829h350v-829q0 -152 -31.5 -247t-105.5 -173q-150 -150 -387 -150q-241 1 -393 148q-78 76 -108 168t-30 254zM172 1686l104 233l494 -268l-90 -189z" />
    <glyph glyph-name="Uacute" unicode="&#xda;" horiz-adv-x="1259" 
d="M102 543v829h351v-829q0 -135 43 -197.5t137 -62.5q86 0 131 55q43 51 43 205v829h350v-829q0 -152 -31.5 -247t-105.5 -173q-150 -150 -387 -150q-241 1 -393 148q-78 76 -108 168t-30 254zM508 1651l493 268l105 -233l-506 -224z" />
    <glyph glyph-name="Ucircumflex" unicode="&#xdb;" horiz-adv-x="1259" 
d="M102 543v829h351v-829q0 -135 43 -197.5t137 -62.5q86 0 131 55q43 51 43 205v829h350v-829q0 -152 -31.5 -247t-105.5 -173q-150 -150 -387 -150q-241 1 -393 148q-78 76 -108 168t-30 254zM217 1509l272 310h304l262 -310h-324l-94 131l-92 -131h-328z" />
    <glyph glyph-name="Udieresis" unicode="&#xdc;" horiz-adv-x="1259" 
d="M102 543v829h351v-829q0 -135 43 -197.5t137 -62.5q86 0 131 55q43 51 43 205v829h350v-829q0 -152 -31.5 -247t-105.5 -173q-150 -150 -387 -150q-241 1 -393 148q-78 76 -108 168t-30 254zM258 1509v310h324v-310h-324zM702 1509v310h324v-310h-324z" />
    <glyph glyph-name="Yacute" unicode="&#xdd;" horiz-adv-x="1126" 
d="M-20 1372h380l205 -551l205 551h377l-408 -872v-500h-350v500zM449 1651l493 268l105 -233l-506 -224z" />
    <glyph glyph-name="Thorn" unicode="&#xde;" horiz-adv-x="1189" 
d="M117 0v1372h336v-178h112q162 0 258.5 -23.5t163.5 -78.5q162 -133 162 -365q0 -221 -145 -356q-127 -119 -400 -119h-151v-252h-336zM453 561h141q102 0 151 43q53 47 54 119q0 84 -60 129q-45 33 -157 33h-129v-324z" />
    <glyph glyph-name="germandbls" unicode="&#xdf;" horiz-adv-x="1271" 
d="M96 0v793q0 174 24.5 265t94.5 169q74 84 183.5 132t222.5 48q182 0 309 -112.5t127 -274.5q0 -152 -131 -240q127 -31 207.5 -131t80.5 -227q0 -188 -140 -322.5t-339 -134.5q-102 0 -175 34t-154 120v-119h-310zM406 387h169q39 -133 162 -133q70 0 119 49t49 119
q0 80 -55 126t-152 46h-168v231h62q72 0 114 39t42 103q0 66 -45.5 108.5t-114.5 42.5q-92 0 -144 -71q-39 -53 -38 -168v-492z" />
    <glyph glyph-name="agrave" unicode="&#xe0;" horiz-adv-x="1292" 
d="M55 516q0 242 148.5 396.5t382.5 154.5q227 0 311 -145v108h291v-1030h-291v111q-74 -145 -319 -146q-231 0 -377 153.5t-146 397.5zM297 1389l123 188l401 -307l-104 -152zM365 518q0 -113 73.5 -188.5t184.5 -75.5q113 0 185.5 73.5t72.5 188.5q0 113 -74 186.5
t-186 73.5q-109 0 -182.5 -74.5t-73.5 -183.5z" />
    <glyph glyph-name="aacute" unicode="&#xe1;" horiz-adv-x="1292" 
d="M55 516q0 242 148.5 396.5t382.5 154.5q227 0 311 -145v108h291v-1030h-291v111q-74 -145 -319 -146q-231 0 -377 153.5t-146 397.5zM365 518q0 -113 73.5 -188.5t184.5 -75.5q113 0 185.5 73.5t72.5 188.5q0 113 -74 186.5t-186 73.5q-109 0 -182.5 -74.5t-73.5 -183.5z
M537 1270l401 307l123 -188l-420 -271z" />
    <glyph glyph-name="acircumflex" unicode="&#xe2;" horiz-adv-x="1292" 
d="M55 516q0 242 148.5 396.5t382.5 154.5q227 0 311 -145v108h291v-1030h-291v111q-74 -145 -319 -146q-231 0 -377 153.5t-146 397.5zM303 1180l275 309h213l266 -309h-291l-86 118l-84 -118h-293zM365 518q0 -113 73.5 -188.5t184.5 -75.5q113 0 185.5 73.5t72.5 188.5
q0 113 -74 186.5t-186 73.5q-109 0 -182.5 -74.5t-73.5 -183.5z" />
    <glyph glyph-name="atilde" unicode="&#xe3;" horiz-adv-x="1292" 
d="M55 516q0 242 148.5 396.5t382.5 154.5q227 0 311 -145v108h291v-1030h-291v111q-74 -145 -319 -146q-231 0 -377 153.5t-146 397.5zM346 1337q98 94 201 95q49 0 207 -48q37 -12 67 -12q37 0 133 64l80 -160q-96 -94 -217 -94q-39 0 -125 32q-76 27 -125 27
q-66 0 -127 -63zM365 518q0 -113 73.5 -188.5t184.5 -75.5q113 0 185.5 73.5t72.5 188.5q0 113 -74 186.5t-186 73.5q-109 0 -182.5 -74.5t-73.5 -183.5z" />
    <glyph glyph-name="adieresis" unicode="&#xe4;" horiz-adv-x="1292" 
d="M55 516q0 242 148.5 396.5t382.5 154.5q227 0 311 -145v108h291v-1030h-291v111q-74 -145 -319 -146q-231 0 -377 153.5t-146 397.5zM330 1182v280h295v-280h-295zM365 518q0 -113 73.5 -188.5t184.5 -75.5q113 0 185.5 73.5t72.5 188.5q0 113 -74 186.5t-186 73.5
q-109 0 -182.5 -74.5t-73.5 -183.5zM741 1182v280h295v-280h-295z" />
    <glyph glyph-name="aring" unicode="&#xe5;" horiz-adv-x="1292" 
d="M55 516q0 242 148.5 396.5t382.5 154.5q227 0 311 -145v108h291v-1030h-291v111q-74 -145 -319 -146q-231 0 -377 153.5t-146 397.5zM365 518q0 -113 73.5 -188.5t184.5 -75.5q113 0 185.5 73.5t72.5 188.5q0 113 -74 186.5t-186 73.5q-109 0 -182.5 -74.5t-73.5 -183.5z
M444 1364q0 96 69 162.5t167 66.5q94 0 161.5 -67.5t67.5 -161.5t-67.5 -162.5t-163.5 -68.5t-165 67.5t-69 163.5zM588 1364q0 -39 26.5 -65.5t61.5 -26.5q37 0 63.5 26.5t26.5 65.5q0 37 -26.5 64.5t-61.5 27.5q-37 0 -63.5 -26.5t-26.5 -65.5z" />
    <glyph glyph-name="ae" unicode="&#xe6;" horiz-adv-x="2017" 
d="M53 514q0 244 147.5 397.5t381.5 153.5q113 0 181 -34t114 -111v110h280v-108q92 143 279 143q223 0 373.5 -165t150.5 -408q0 -35 -8 -74h-774q14 -88 77.5 -140.5t157.5 -52.5q61 0 104.5 21.5t96.5 79.5h309q-74 -174 -201 -267.5t-286 -93.5q-186 0 -279 146v-111
h-280v111q-61 -145 -304 -146q-217 0 -352 129q-168 158 -168 420zM362 516q0 -113 75 -187.5t188 -74.5q106 0 179 74.5t73 185.5q0 117 -73 189.5t-190 72.5q-106 0 -179 -75.5t-73 -184.5zM1184 625h471q-53 178 -232 178q-90 0 -156.5 -50t-82.5 -128z" />
    <glyph glyph-name="ccedilla" unicode="&#xe7;" horiz-adv-x="1181" 
d="M55 518q0 231 157 389t386 158q203 0 354.5 -120t192.5 -312h-314q-27 68 -86 105.5t-137 37.5q-106 0 -174.5 -74.5t-68.5 -189.5q0 -113 68.5 -185.5t174.5 -72.5q137 0 228 137h311q-47 -184 -187.5 -301t-328.5 -125l-37 -71q31 6 51 6q61 0 105.5 -45t44.5 -109
q0 -88 -57.5 -142.5t-147.5 -54.5q-84 0 -136.5 45.5t-60.5 124.5h129q18 -51 64 -51q31 0 51 19.5t20 50.5q0 29 -17 46t-46 17q-31 0 -57 -28l-91 65l66 135q-143 34 -229 95q-109 78 -168.5 196.5t-59.5 253.5z" />
    <glyph glyph-name="egrave" unicode="&#xe8;" horiz-adv-x="1189" 
d="M55 512q0 229 156 391t379 162q231 0 387 -161t156 -402q0 -41 -9 -84h-770q10 -86 72.5 -139.5t153.5 -53.5q106 0 188 82l14 15h316q-72 -168 -205 -262.5t-299 -94.5q-223 0 -381 160t-158 387zM229 1389l123 188l402 -307l-105 -152zM360 625h465q-14 80 -78.5 129
t-154.5 49t-151 -47t-81 -131z" />
    <glyph glyph-name="eacute" unicode="&#xe9;" horiz-adv-x="1189" 
d="M55 512q0 229 156 391t379 162q231 0 387 -161t156 -402q0 -41 -9 -84h-770q10 -86 72.5 -139.5t153.5 -53.5q106 0 188 82l14 15h316q-72 -168 -205 -262.5t-299 -94.5q-223 0 -381 160t-158 387zM360 625h465q-14 80 -78.5 129t-154.5 49t-151 -47t-81 -131zM463 1270
l401 307l123 -188l-420 -271z" />
    <glyph glyph-name="ecircumflex" unicode="&#xea;" horiz-adv-x="1189" 
d="M55 512q0 229 156 391t379 162q231 0 387 -161t156 -402q0 -41 -9 -84h-770q10 -86 72.5 -139.5t153.5 -53.5q106 0 188 82l14 15h316q-72 -168 -205 -262.5t-299 -94.5q-223 0 -381 160t-158 387zM238 1180l274 309h213l266 -309h-291l-86 118l-84 -118h-292zM360 625
h465q-14 80 -78.5 129t-154.5 49t-151 -47t-81 -131z" />
    <glyph glyph-name="edieresis" unicode="&#xeb;" horiz-adv-x="1189" 
d="M55 512q0 229 156 391t379 162q231 0 387 -161t156 -402q0 -41 -9 -84h-770q10 -86 72.5 -139.5t153.5 -53.5q106 0 188 82l14 15h316q-72 -168 -205 -262.5t-299 -94.5q-223 0 -381 160t-158 387zM262 1182v280h295v-280h-295zM360 625h465q-14 80 -78.5 129t-154.5 49
t-151 -47t-81 -131zM674 1182v280h295v-280h-295z" />
    <glyph glyph-name="igrave" unicode="&#xec;" horiz-adv-x="514" 
d="M-94 1368l123 186l374 -284l-106 -152zM102 0v1030h310v-1030h-310z" />
    <glyph glyph-name="iacute" unicode="&#xed;" horiz-adv-x="514" 
d="M102 0v1030h310v-1030h-310zM139 1270l375 284l121 -180l-391 -256z" />
    <glyph glyph-name="icircumflex" unicode="&#xee;" horiz-adv-x="514" 
d="M-92 1180l254 309h213l246 -309h-277l-80 133l-76 -133h-280zM102 0v1030h310v-1030h-310z" />
    <glyph glyph-name="idieresis" unicode="&#xef;" horiz-adv-x="514" 
d="M-37 1182v280h254v-280h-254zM104 0v1030h310v-1030h-310zM313 1182v280h254v-280h-254z" />
    <glyph glyph-name="eth" unicode="&#xf0;" horiz-adv-x="1226" 
d="M55 512q0 227 144.5 374.5t367.5 147.5q86 0 181 -41q-25 53 -27 62q-29 59 -53 100l-129 -43l-62 121l129 43q-35 57 -82 119l197 53q43 -47 84 -105l147 46l74 -121l-139 -45q283 -436 282 -717q0 -231 -157.5 -385t-397.5 -154q-244 0 -401.5 153.5t-157.5 391.5z
M365 520q0 -119 68.5 -192.5t178.5 -73.5q109 0 178.5 71.5t69.5 182.5q0 115 -70.5 189.5t-181.5 74.5q-109 0 -176 -69.5t-67 -182.5z" />
    <glyph glyph-name="ntilde" unicode="&#xf1;" horiz-adv-x="1153" 
d="M102 0v1030h291v-108q57 78 122 110.5t161 32.5q170 0 278 -104q57 -55 80 -125t23 -193v-643h-309v561q0 106 -31 152q-41 63 -131 63q-96 0 -146 -71q-29 -41 -28 -130v-575h-310zM248 1337q98 94 201 95q49 0 206 -48q37 -12 68 -12q37 0 133 64l80 -160
q-96 -94 -217 -94q-39 0 -125 32q-76 27 -125 27q-66 0 -127 -63z" />
    <glyph glyph-name="ograve" unicode="&#xf2;" horiz-adv-x="1224" 
d="M55 518q0 231 162 393q150 154 393 154q272 0 432 -195q125 -158 125 -354q0 -231 -161 -397q-150 -154 -398 -154q-242 0 -397.5 155.5t-155.5 397.5zM225 1389l123 188l402 -307l-105 -152zM365 518q0 -113 70.5 -188.5t176.5 -75.5q104 0 175 74.5t71 187.5
q0 106 -71.5 183t-174 77t-175 -76t-72.5 -182z" />
    <glyph glyph-name="oacute" unicode="&#xf3;" horiz-adv-x="1224" 
d="M55 518q0 231 162 393q150 154 393 154q272 0 432 -195q125 -158 125 -354q0 -231 -161 -397q-150 -154 -398 -154q-242 0 -397.5 155.5t-155.5 397.5zM365 518q0 -113 70.5 -188.5t176.5 -75.5q104 0 175 74.5t71 187.5q0 106 -71.5 183t-174 77t-175 -76t-72.5 -182z
M479 1270l402 307l123 -188l-420 -271z" />
    <glyph glyph-name="ocircumflex" unicode="&#xf4;" horiz-adv-x="1224" 
d="M55 518q0 231 162 393q150 154 393 154q272 0 432 -195q125 -158 125 -354q0 -231 -161 -397q-150 -154 -398 -154q-242 0 -397.5 155.5t-155.5 397.5zM242 1180l274 309h213l266 -309h-290l-87 118l-83 -118h-293zM365 518q0 -113 70.5 -188.5t176.5 -75.5
q104 0 175 74.5t71 187.5q0 106 -71.5 183t-174 77t-175 -76t-72.5 -182z" />
    <glyph glyph-name="otilde" unicode="&#xf5;" horiz-adv-x="1224" 
d="M55 518q0 231 162 393q150 154 393 154q272 0 432 -195q125 -158 125 -354q0 -231 -161 -397q-150 -154 -398 -154q-242 0 -397.5 155.5t-155.5 397.5zM301 1337q98 94 201 95q49 0 207 -48q37 -12 67 -12q37 0 133 64l80 -160q-96 -94 -217 -94q-39 0 -125 32
q-76 27 -125 27q-66 0 -127 -63zM365 518q0 -113 70.5 -188.5t176.5 -75.5q104 0 175 74.5t71 187.5q0 106 -71.5 183t-174 77t-175 -76t-72.5 -182z" />
    <glyph glyph-name="odieresis" unicode="&#xf6;" horiz-adv-x="1224" 
d="M55 518q0 231 162 393q150 154 393 154q272 0 432 -195q125 -158 125 -354q0 -231 -161 -397q-150 -154 -398 -154q-242 0 -397.5 155.5t-155.5 397.5zM264 1182v280h295v-280h-295zM365 518q0 -113 70.5 -188.5t176.5 -75.5q104 0 175 74.5t71 187.5q0 106 -71.5 183
t-174 77t-175 -76t-72.5 -182zM676 1182v280h295v-280h-295z" />
    <glyph glyph-name="divide" unicode="&#xf7;" 
d="M86 569v234h961v-234h-961zM438 215v246h258v-246h-258zM438 911v246h258v-246h-258z" />
    <glyph glyph-name="oslash" unicode="&#xf8;" horiz-adv-x="1224" 
d="M55 514q0 231 156 391t383 160q117 0 268 -47l105 139l133 -104l-96 -133q53 -68 79 -107q84 -137 84 -299q0 -229 -156.5 -389t-379.5 -160q-115 0 -289 55l-98 -120l-133 96l96 129q-152 158 -152 389zM365 514q0 -74 49 -154l284 396q-47 20 -84 20
q-106 0 -177.5 -74.5t-71.5 -187.5zM518 276q49 -23 90 -22q109 0 179.5 74.5t70.5 189.5q0 70 -49 148z" />
    <glyph glyph-name="ugrave" unicode="&#xf9;" horiz-adv-x="1157" 
d="M96 414v616h310v-575q0 -113 43 -156q45 -45 122 -45q82 0 128 52t46 149v575h310v-1030h-291v111q-78 -145 -275 -146q-186 0 -299 129q-53 63 -73.5 131t-20.5 189zM201 1389l123 188l401 -307l-104 -152z" />
    <glyph glyph-name="uacute" unicode="&#xfa;" horiz-adv-x="1157" 
d="M96 414v616h310v-575q0 -113 43 -156q45 -45 122 -45q82 0 128 52t46 149v575h310v-1030h-291v111q-78 -145 -275 -146q-186 0 -299 129q-53 63 -73.5 131t-20.5 189zM446 1270l402 307l123 -188l-420 -271z" />
    <glyph glyph-name="ucircumflex" unicode="&#xfb;" horiz-adv-x="1157" 
d="M96 414v616h310v-575q0 -113 43 -156q45 -45 122 -45q82 0 128 52t46 149v575h310v-1030h-291v111q-78 -145 -275 -146q-186 0 -299 129q-53 63 -73.5 131t-20.5 189zM215 1180l274 309h213l267 -309h-291l-86 118l-84 -118h-293z" />
    <glyph glyph-name="udieresis" unicode="&#xfc;" horiz-adv-x="1157" 
d="M96 414v616h310v-575q0 -113 43 -156q45 -45 122 -45q82 0 128 52t46 149v575h310v-1030h-291v111q-78 -145 -275 -146q-186 0 -299 129q-53 63 -73.5 131t-20.5 189zM236 1182v280h294v-280h-294zM647 1182v280h295v-280h-295z" />
    <glyph glyph-name="yacute" unicode="&#xfd;" horiz-adv-x="1021" 
d="M-20 1030h327l209 -598l199 598h327l-516 -1374h-327l163 395zM399 1270l402 307l123 -188l-420 -271z" />
    <glyph glyph-name="thorn" unicode="&#xfe;" horiz-adv-x="1277" 
d="M102 -344v1716h310v-432q72 70 141.5 97.5t165.5 27.5q219 0 356 -150q70 -76 109 -185t39 -224q0 -229 -144.5 -385t-357.5 -156q-188 0 -309 129v-438h-310zM395 520q0 -113 75 -189.5t185 -76.5q109 0 183.5 76t74.5 186.5t-74.5 185t-185.5 74.5q-109 0 -183.5 -73.5
t-74.5 -182.5z" />
    <glyph glyph-name="ydieresis" unicode="&#xff;" horiz-adv-x="1021" 
d="M-20 1030h327l209 -598l199 598h327l-516 -1374h-327l163 395zM164 1182v280h295v-280h-295zM575 1182v280h295v-280h-295z" />
    <glyph glyph-name="OE" unicode="&#x152;" horiz-adv-x="2000" 
d="M59 684q0 303 208 509t513 206q115 0 199 -26.5t172 -90.5v90h764v-309h-426v-211h412v-309h-412v-234h426v-309h-764v90q-160 -117 -379 -117q-297 0 -505 207t-208 504zM410 690q0 -151 90 -272q104 -135 278 -135q160 0 265.5 115.5t105.5 293.5q0 174 -104.5 286
t-264 112t-265 -115t-105.5 -285z" />
    <glyph glyph-name="oe" unicode="&#x153;" horiz-adv-x="1988" 
d="M55 512q0 244 155 398.5t398 154.5q264 0 393 -176q55 78 163 127t225 49q227 0 384.5 -163t157.5 -398q0 -37 -8 -86h-772q8 -86 71.5 -138.5t159.5 -52.5q111 0 199 95h315q-68 -164 -205 -260.5t-302 -96.5q-246 0 -388 185q-145 -184 -399 -185q-238 0 -392.5 154.5
t-154.5 392.5zM365 518q0 -111 72.5 -187.5t176.5 -76.5q102 0 174 77t72 185q0 106 -73.5 183t-174.5 77q-102 0 -174.5 -76t-72.5 -182zM1159 625h465q-18 82 -80.5 130t-150.5 48q-90 0 -155 -49t-79 -129z" />
    <glyph glyph-name="Ydieresis" unicode="&#x178;" horiz-adv-x="1126" 
d="M-20 1372h380l205 -551l205 551h377l-408 -872v-500h-350v500zM193 1509v310h323v-310h-323zM637 1509v310h324v-310h-324z" />
    <glyph glyph-name="circumflex" unicode="&#x2c6;" horiz-adv-x="1030" 
d="M137 1180l275 309h213l266 -309h-291l-86 118l-84 -118h-293z" />
    <glyph glyph-name="tilde" unicode="&#x2dc;" horiz-adv-x="1030" 
d="M170 1337q98 94 201 95q49 0 207 -48q37 -12 67 -12q37 0 133 64l80 -160q-96 -94 -217 -94q-39 0 -125 32q-76 27 -125 27q-66 0 -127 -63z" />
    <glyph glyph-name="uni2000" unicode="&#x2000;" horiz-adv-x="969" 
 />
    <glyph glyph-name="uni2001" unicode="&#x2001;" horiz-adv-x="1939" 
 />
    <glyph glyph-name="uni2002" unicode="&#x2002;" horiz-adv-x="969" 
 />
    <glyph glyph-name="uni2003" unicode="&#x2003;" horiz-adv-x="1939" 
 />
    <glyph glyph-name="uni2004" unicode="&#x2004;" horiz-adv-x="646" 
 />
    <glyph glyph-name="uni2005" unicode="&#x2005;" horiz-adv-x="484" 
 />
    <glyph glyph-name="uni2006" unicode="&#x2006;" horiz-adv-x="323" 
 />
    <glyph glyph-name="uni2007" unicode="&#x2007;" horiz-adv-x="323" 
 />
    <glyph glyph-name="uni2008" unicode="&#x2008;" horiz-adv-x="242" 
 />
    <glyph glyph-name="uni2009" unicode="&#x2009;" horiz-adv-x="387" 
 />
    <glyph glyph-name="uni200A" unicode="&#x200a;" horiz-adv-x="107" 
 />
    <glyph glyph-name="uni2010" unicode="&#x2010;" horiz-adv-x="522" 
d="M0 397v260h522v-260h-522z" />
    <glyph glyph-name="uni2011" unicode="&#x2011;" horiz-adv-x="522" 
d="M0 397v260h522v-260h-522z" />
    <glyph glyph-name="figuredash" unicode="&#x2012;" horiz-adv-x="522" 
d="M0 397v260h522v-260h-522z" />
    <glyph glyph-name="endash" unicode="&#x2013;" 
d="M90 397v260h954v-260h-954z" />
    <glyph glyph-name="emdash" unicode="&#x2014;" horiz-adv-x="1579" 
d="M0 397v260h1579v-260h-1579z" />
    <glyph glyph-name="quoteleft" unicode="&#x2018;" horiz-adv-x="538" 
d="M111 760v389q0 100 52 161.5t136 61.5h131v-166h-63q-35 0 -57.5 -19.5t-22.5 -49.5v-62h143v-315h-319z" />
    <glyph glyph-name="quoteright" unicode="&#x2019;" horiz-adv-x="538" 
d="M111 758v166h63q35 0 57.5 19.5t22.5 49.5v64h-143v315h319v-389q0 -100 -52 -162.5t-136 -62.5h-131z" />
    <glyph glyph-name="quotesinglbase" unicode="&#x201a;" horiz-adv-x="538" 
d="M111 0v315h319v-389q0 -100 -52 -162.5t-136 -62.5h-131v166h63q35 0 57.5 19.5t22.5 50.5v63h-143z" />
    <glyph glyph-name="quotedblleft" unicode="&#x201c;" horiz-adv-x="997" 
d="M111 760v389q0 100 52 161.5t136 61.5h131v-166h-63q-35 0 -57.5 -19.5t-22.5 -49.5v-62h143v-315h-319zM569 760v389q0 100 52.5 161.5t136.5 61.5h131v-166h-64q-35 0 -57.5 -19.5t-22.5 -49.5v-62h144v-315h-320z" />
    <glyph glyph-name="quotedblright" unicode="&#x201d;" horiz-adv-x="997" 
d="M111 758v166h63q35 0 57.5 19.5t22.5 49.5v64h-143v315h319v-389q0 -100 -52 -162.5t-136 -62.5h-131zM569 758v166h64q35 0 57.5 19.5t22.5 49.5v64h-144v315h320v-389q0 -100 -52.5 -162.5t-136.5 -62.5h-131z" />
    <glyph glyph-name="quotedblbase" unicode="&#x201e;" horiz-adv-x="997" 
d="M111 0v315h319v-389q0 -100 -52 -162.5t-136 -62.5h-131v166h63q35 0 57.5 19.5t22.5 50.5v63h-143zM569 0v315h320v-389q0 -100 -52.5 -162.5t-136.5 -62.5h-131v166h64q35 0 57.5 19.5t22.5 50.5v63h-144z" />
    <glyph glyph-name="bullet" unicode="&#x2022;" horiz-adv-x="1372" 
d="M403 696q0 119 85 203t206 84q115 0 198 -85t83 -201.5t-84 -200.5t-201 -84q-119 0 -203 84t-84 200z" />
    <glyph glyph-name="ellipsis" unicode="&#x2026;" horiz-adv-x="1617" 
d="M111 0v315h319v-315h-319zM649 0v315h320v-315h-320zM1190 0v315h319v-315h-319z" />
    <glyph glyph-name="uni202F" unicode="&#x202f;" horiz-adv-x="387" 
 />
    <glyph glyph-name="guilsinglleft" unicode="&#x2039;" horiz-adv-x="389" 
d="M70 414v237l239 256v-289l-96 -81l96 -88v-273z" />
    <glyph glyph-name="guilsinglright" unicode="&#x203a;" horiz-adv-x="389" 
d="M82 176v277l96 82l-96 86v274l240 -246v-237z" />
    <glyph glyph-name="uni205F" unicode="&#x205f;" horiz-adv-x="484" 
 />
    <glyph glyph-name="Euro" unicode="&#x20ac;" horiz-adv-x="1490" 
d="M53 524l131 312h125q51 248 248 406.5t455 158.5q236 0 424 -133l-142 -324q-119 147 -282 148q-121 0 -211 -68t-133 -188h579l-131 -312h-442q41 -111 133 -176t207 -65q172 0 284 151v-407q-129 -53 -280 -54q-254 0 -452.5 155t-252.5 396h-260z" />
    <glyph glyph-name="trademark" unicode="&#x2122;" horiz-adv-x="1681" 
d="M20 1186v186h578v-186h-172v-596h-233v596h-173zM645 590v782h297l168 -491l166 491h297v-782h-217l6 538l-174 -538h-156l-176 540l6 -540h-217z" />
    <glyph glyph-name="uni25FC" unicode="&#x25fc;" horiz-adv-x="1034" 
d="M0 0v1034h1034v-1034h-1034z" />
    </font>
</defs>
</svg>
