<svg xmlns="http://www.w3.org/2000/svg" xmlns:xlink="http://www.w3.org/1999/xlink" viewBox="0 0 337.33 75.98"><defs><style>.cls-1{fill:url(#linear-gradient);}.cls-2{fill:url(#linear-gradient-2);}.cls-3{fill:url(#linear-gradient-3);}.cls-4{fill:#fff;}</style><linearGradient id="linear-gradient" x1="8.59" y1="-7115.57" x2="35.1" y2="-7142.08" gradientTransform="matrix(1, 0, 0, -1, 0, -7104.03)" gradientUnits="userSpaceOnUse"><stop offset="0.53" stop-color="#fff"/><stop offset="1" stop-color="#e6e6e6"/></linearGradient><linearGradient id="linear-gradient-2" x1="16.19" y1="-7137.85" x2="49.66" y2="-7137.85" gradientTransform="matrix(1, 0, 0, -1, 0, -7104.03)" gradientUnits="userSpaceOnUse"><stop offset="0.53" stop-color="#6e67de"/><stop offset="1" stop-color="#6e45cf"/></linearGradient><linearGradient id="linear-gradient-3" x1="34.21" y1="-7140.29" x2="63.25" y2="-7166.44" xlink:href="#linear-gradient"/></defs><title>proj-cover__traverse</title><g id="Layer_2" data-name="Layer 2"><g id="Layer_1-2" data-name="Layer 1"><g id="Layer_2-2" data-name="Layer 2"><g id="Layer_1-2-2" data-name="Layer 1-2"><path class="cls-1" d="M10.09,63.06C2.75,58.87,0,53.26,0,46.9V27.51A17.81,17.81,0,0,1,8.9,12.08L25.7,2.39a17.81,17.81,0,0,1,17.81,0l16.94,9.78.2.12Z"/><path class="cls-2" d="M46.76,25.69a8.15,8.15,0,0,0-10.57.83l-.07.07a1.82,1.82,0,0,1-2.49,0l-.07-.07A8.15,8.15,0,0,0,22,38l5.85,5.56,1,.86L26.38,47l-6.75-6.45,0,0a11.6,11.6,0,0,1,8.19-19.81h.07a11.51,11.51,0,0,1,7,2.36,11.51,11.51,0,0,1,7-2.36h.07a11.81,11.81,0,0,1,7.37,2.59l.34.29L47.19,26Z"/><path class="cls-3" d="M60.65,12.28l1.19.74A17.81,17.81,0,0,1,70.4,28.25V47.63a17.81,17.81,0,0,1-8.92,15.43l-16,9.47c-11.56,7.32-17.53,1-20.7-.35L10.07,63.06"/><path class="cls-4" d="M107.86,22.18h-7.33V14.66A1.54,1.54,0,0,0,99,13.12H91.42a1.54,1.54,0,0,0-1.54,1.54h0v7.52H87.24a1.54,1.54,0,0,0-1.54,1.54h0v6.5a1.54,1.54,0,0,0,1.54,1.54h2.64V47.6c0,7.35,3.82,11.23,11,11.23a14.58,14.58,0,0,0,7.57-1.89,1.54,1.54,0,0,0,.78-1.34V49.41A1.54,1.54,0,0,0,107.06,48a8.63,8.63,0,0,1-4,1c-1.88,0-2.52-.65-2.52-2.58V31.77h7.33a1.54,1.54,0,0,0,1.54-1.54h0v-6.5a1.54,1.54,0,0,0-1.54-1.55Z"/><path class="cls-4" d="M134.91,31.1v-8a1.54,1.54,0,0,0-1.48-1.54,12.47,12.47,0,0,0-10.21,4.19v-2a1.54,1.54,0,0,0-1.54-1.54h-7.62a1.54,1.54,0,0,0-1.54,1.54h0v33a1.54,1.54,0,0,0,1.54,1.54h7.62a1.54,1.54,0,0,0,1.54-1.54h0V44.16c0-7.43,3.45-11.52,9.71-11.52h.44A1.54,1.54,0,0,0,134.91,31.1Z"/><path class="cls-4" d="M150.05,21.74a30.29,30.29,0,0,0-13.12,2.82,1.54,1.54,0,0,0-.83,1.92l2.06,5.94a1.54,1.54,0,0,0,2,1l.09,0a21.53,21.53,0,0,1,8.84-1.94c3.95,0,6.09,1.44,6.56,4.39a29.34,29.34,0,0,0-7.24-.85c-9.54,0-15.23,4.55-15.23,12.17v.12c0,6.91,5.47,11.73,13.29,11.73a15.42,15.42,0,0,0,9.21-2.82v.59a1.54,1.54,0,0,0,1.54,1.54h7.38a1.54,1.54,0,0,0,1.54-1.54h0V37.16c0-4.89-1.35-8.69-4-11.26S155.28,21.74,150.05,21.74Zm5.77,22v1.15c0,3.2-3,5.52-7.27,5.52-2.26,0-4.89-.91-4.89-3.46v-.12c0-3.57,4.34-4,6.21-4a20,20,0,0,1,6,.87Z"/><path class="cls-4" d="M203,22.86a1.54,1.54,0,0,0-1.28-.68h-7.94a1.54,1.54,0,0,0-1.45,1L184.81,43.5l-7.44-20.31a1.54,1.54,0,0,0-1.45-1H167.8a1.54,1.54,0,0,0-1.43,2.13l13.57,33.25a1.54,1.54,0,0,0,1.43,1h6.81a1.54,1.54,0,0,0,1.43-1L203.11,24.3A1.54,1.54,0,0,0,203,22.86Z"/><path class="cls-4" d="M219.11,21.49c-10.07,0-17.67,8.05-17.67,18.73v.12c0,10.82,7.77,18.67,18.48,18.67a18.25,18.25,0,0,0,14.68-6.74,1.54,1.54,0,0,0-.16-2.14L230,46.19a1.54,1.54,0,0,0-2.1,0c-2.55,2.49-4.82,3.5-7.86,3.5a7.49,7.49,0,0,1-7.55-5.29H234.8A1.54,1.54,0,0,0,236.34,43v-.16c.06-.71.12-1.38.12-2.09C236.47,27.46,227.75,21.49,219.11,21.49ZM219,30.76c4.34,0,5.94,3.3,6.54,5.6H212.38c1-3.5,3.45-5.6,6.67-5.6Z"/><path class="cls-4" d="M261.91,31.1v-8a1.54,1.54,0,0,0-1.48-1.54,12.49,12.49,0,0,0-10.21,4.19v-2a1.54,1.54,0,0,0-1.54-1.54h-7.62a1.54,1.54,0,0,0-1.54,1.54h0v33a1.54,1.54,0,0,0,1.54,1.54h7.62a1.54,1.54,0,0,0,1.54-1.54h0V44.16c0-7.43,3.45-11.52,9.71-11.52h.44A1.54,1.54,0,0,0,261.91,31.1Z"/><path class="cls-4" d="M279.27,35.75l-.63-.2c-2.69-.86-5.73-1.84-5.73-3V32.4c0-1,1.24-1.71,3.08-1.71a17.71,17.71,0,0,1,8.51,2.9,1.54,1.54,0,0,0,2.12-.51l0,0,3-5.38a1.54,1.54,0,0,0-.5-2,24.54,24.54,0,0,0-13-4c-7.83,0-13.29,4.8-13.29,11.67v.12c0,7.88,7.44,10,11.41,11.1l.78.24c2.7.83,5.5,1.66,5.5,2.91v.12c0,1.82-2.49,2-3.58,2A17.23,17.23,0,0,1,267.1,46a1.54,1.54,0,0,0-2.16.31l-.06.08-3.37,5.13a1.54,1.54,0,0,0,.32,2.05,24.33,24.33,0,0,0,15,5.28c8.38,0,13.8-4.68,13.8-11.91v-.12C290.6,39.29,282.95,36.9,279.27,35.75Z"/><path class="cls-4" d="M309.68,21.49C299.6,21.49,292,29.54,292,40.22v.12C292,51.16,299.78,59,310.49,59a18.25,18.25,0,0,0,14.68-6.74,1.54,1.54,0,0,0-.16-2.14l-4.43-3.94a1.54,1.54,0,0,0-2.1,0c-2.55,2.49-4.82,3.5-7.86,3.5a7.49,7.49,0,0,1-7.55-5.29h22.3A1.54,1.54,0,0,0,326.9,43v-.18c.06-.71.12-1.38.12-2.08C327,27.46,318.32,21.49,309.68,21.49Zm-.06,9.27c4.34,0,5.94,3.3,6.54,5.6H302.94c1-3.5,3.45-5.6,6.67-5.6Z"/><path class="cls-4" d="M194.63,64.53H197a2,2,0,0,1,2.3,2v0a2.13,2.13,0,0,1-2.42,2.06h-1.2v1.94h-1.06Zm2.29,3.13c.8,0,1.3-.45,1.3-1.08v0c0-.71-.51-1.08-1.3-1.08h-1.24v2.17Z"/><path class="cls-4" d="M201,67.56v0a3.16,3.16,0,0,1,6.32,0v0a3.16,3.16,0,0,1-6.32,0Zm5.2,0v0a2.06,2.06,0,0,0-2-2.14h-.07a2,2,0,0,0-2,2s0,.06,0,.1v0a2.06,2.06,0,0,0,2,2.14h.07a2,2,0,0,0,2-2s0-.06,0-.09Z"/><path class="cls-4" d="M208.65,64.53h1.15L211.24,69l1.48-4.49h.9L215.1,69l1.44-4.48h1.11l-2.1,6.09h-.91l-1.48-4.34-1.48,4.34h-.92Z"/><path class="cls-4" d="M219.61,64.53h4.48v.95h-3.42V67h3v1h-3v1.61h3.46v.95h-4.52Z"/><path class="cls-4" d="M226.25,64.53h2.69a2.43,2.43,0,0,1,1.74.6,1.83,1.83,0,0,1,.5,1.3v0a1.82,1.82,0,0,1-1.43,1.83l1.63,2.29h-1.26l-1.48-2.1h-1.33v2.1h-1.06Zm2.61,3c.76,0,1.24-.4,1.24-1v0c0-.65-.47-1-1.25-1h-1.55v2Z"/><path class="cls-4" d="M233.36,64.53h4.48v.95h-3.42V67h3v1h-3v1.61h3.46v.95h-4.52Z"/><path class="cls-4" d="M240,64.53h2.25a3,3,0,0,1,3.21,3v0a3,3,0,0,1-3.21,3H240Zm1.06,1V69.6h1.19a2,2,0,0,0,2.1-2v0a2,2,0,0,0-1.91-2.06h-1.38Z"/><path class="cls-4" d="M251.07,64.53h2.71a2.18,2.18,0,0,1,1.58.53,1.37,1.37,0,0,1,.4,1v0a1.44,1.44,0,0,1-.86,1.35,1.48,1.48,0,0,1,1.2,1.47v0c0,1.08-.89,1.66-2.24,1.66h-2.79Zm3.63,1.71c0-.47-.38-.77-1.06-.77h-1.53v1.61h1.45c.68,0,1.14-.28,1.14-.83ZM253.79,68h-1.68v1.66h1.76c.72,0,1.17-.28,1.17-.83v0c0-.52-.41-.82-1.25-.82Z"/><path class="cls-4" d="M259.68,68.18l-2.39-3.65h1.26l1.68,2.67,1.71-2.67h1.22l-2.4,3.63v2.41h-1.07Z"/><path class="cls-4" d="M269.87,65.5h-1.92v-1h4.91v1h-1.92v5.06h-1.06Z"/><path class="cls-4" d="M274.82,64.53h2.69a2.43,2.43,0,0,1,1.74.6,1.83,1.83,0,0,1,.5,1.3v0a1.82,1.82,0,0,1-1.43,1.83L280,70.57h-1.26l-1.48-2.1h-1.33v2.1h-1.06Zm2.61,3c.76,0,1.24-.4,1.24-1v0c0-.65-.47-1-1.25-1h-1.55v2Z"/><path class="cls-4" d="M284.07,64.47h1l2.66,6.09h-1.12L286,69.11h-2.86l-.62,1.46h-1.09Zm1.52,3.68-1-2.42-1,2.42Z"/><path class="cls-4" d="M288.23,64.53h1.17l1.82,4.64,1.8-4.64h1.15l-2.49,6.09h-.95Z"/><path class="cls-4" d="M296.07,64.53h4.48v.95h-3.42V67h3v1h-3v1.61h3.46v.95h-4.52Z"/><path class="cls-4" d="M302.71,64.53h1.06V69.6H307v1h-4.24Z"/><path class="cls-4" d="M308.92,64.53h4.48v.95H310V67h3v1h-3v1.61h3.46v.95h-4.52Z"/><path class="cls-4" d="M315.57,64.53h2.69a2.43,2.43,0,0,1,1.74.6,1.83,1.83,0,0,1,.5,1.3v0a1.82,1.82,0,0,1-1.43,1.83l1.63,2.29h-1.26L318,68.46h-1.33v2.1h-1.06Zm2.61,3c.76,0,1.24-.4,1.24-1v0c0-.65-.47-1-1.25-1h-1.55v2Z"/><path class="cls-4" d="M322.26,69.68l.64-.76a2.8,2.8,0,0,0,1.91.78c.66,0,1.07-.31,1.07-.76v0c0-.43-.24-.66-1.36-.92-1.29-.31-2-.69-2-1.8h0a1.85,1.85,0,0,1,2.06-1.75,3.35,3.35,0,0,1,2.19.76l-.57.8a2.74,2.74,0,0,0-1.64-.62c-.62,0-1,.32-1,.72v0c0,.47.28.67,1.44.95s1.94.77,1.94,1.77v0c0,1.13-.89,1.8-2.16,1.8A3.72,3.72,0,0,1,322.26,69.68Z"/><path class="cls-4" d="M327.54,27.36l.49-.58a2.15,2.15,0,0,0,1.47.6c.5,0,.83-.24.83-.58h0c0-.33-.19-.51-1-.71s-1.55-.53-1.55-1.38h0a1.42,1.42,0,0,1,1.59-1.35,2.58,2.58,0,0,1,1.69.58l-.44.62a2.11,2.11,0,0,0-1.26-.48c-.48,0-.76.25-.76.55h0c0,.36.21.52,1.11.73s1.49.59,1.49,1.36h0c0,.87-.68,1.38-1.66,1.38A2.87,2.87,0,0,1,327.54,27.36Z"/><path class="cls-4" d="M332.77,23.38h.87l1.42,2.2,1.42-2.2h.86V28h-.83V24.71L335,26.9h0l-1.46-2.18V28h-.8Z"/></g></g></g></g></svg>