<?xml version="1.0" encoding="utf-8"?>
<!-- Generator: Adobe Illustrator 21.0.0, SVG Export Plug-In . SVG Version: 6.00 Build 0)  -->
<svg version="1.1" id="Layer_1" xmlns="http://www.w3.org/2000/svg" xmlns:xlink="http://www.w3.org/1999/xlink" x="0px" y="0px"
	 viewBox="0 0 150 48" style="enable-background:new 0 0 150 48;" xml:space="preserve">
<style type="text/css">
	.st0{fill:#FFFFFF;}
</style>
<g>
	<path class="st0" d="M75.8,15l1.3,0c0.7,0,1.2-0.8,1.2-1.5c0-0.9-0.2-1.7-1.3-1.7l-1.2,0L75.8,15z M73.4,10.1l4.2,0
		c2.1,0,2.9,1.3,2.9,3.3c0,1.3-0.4,3.3-3.1,3.3l-1.7,0l0,4.5l-2.3,0L73.4,10.1z M83.7,13.5l0,1h0c0.4-0.9,1.1-1.2,2-1.2l0,1.9
		c-1.9-0.1-1.9,1-1.9,1.8l0,4.2l-2.2,0l0-7.7L83.7,13.5z M88.8,21.2l-2.2,0l0-7.7l2.2,0L88.8,21.2z M88.8,10.1l0,1.7l-2.2,0l0-1.7
		L88.8,10.1z"/>
	<polygon class="st0" points="89.8,13.4 91.9,13.4 93,19.3 93.1,19.3 94.2,13.4 96.3,13.4 94.2,21.2 91.8,21.2 	"/>
	<path class="st0" d="M98.9,18.8c0,0.6,0.1,1.2,0.8,1.2c1.3,0,1.1-1.7,1.1-2.6C99.7,17.5,98.9,17.4,98.9,18.8L98.9,18.8z
		 M102.8,19.7c0,0.5,0.1,1,0.1,1.4l-2,0l-0.1-1h0c-0.5,0.8-1.1,1.2-2,1.2c-1.5,0-2.1-1.1-2.1-2.5c0-2.6,2-2.7,4-2.6l0-0.6
		c0-0.7-0.1-1.1-0.9-1.1c-0.8,0-0.8,0.6-0.8,1.2l-2.1,0c0-0.9,0.3-1.5,0.8-1.9c0.5-0.4,1.2-0.5,2-0.5c2.7,0,3.1,1.2,3.1,2.6
		L102.8,19.7z M103.6,13.4l0.9,0l0-1.2l2.2-1l0,2.2l1.1,0l0,1.3l-1.1,0l0,4.1c0,0.6,0,1,0.7,1c0.1,0,0.3,0,0.4,0l0,1.3
		c-0.3,0-0.6,0.1-1.1,0.1c-1.9,0-2.1-1.2-2.1-1.7l0-4.8l-0.9,0L103.6,13.4z M112.5,16.4c0-0.8,0-1.8-1-1.8c-1,0-1,1.2-1,1.8
		L112.5,16.4z M110.5,17.6c0,0.9,0,2.3,1,2.3c0.8,0,0.9-0.7,0.9-1.4l2.2,0c0,0.8-0.3,1.5-0.8,2c-0.5,0.5-1.3,0.8-2.3,0.8
		c-2.8,0-3.2-1.7-3.2-4.1c0-2.1,0.3-3.9,3.1-3.9c2.9,0,3.2,1.9,3.2,4.4L110.5,17.6z M122,19.5l1.3,0c0.5,0,1.6,0,1.6-1.6
		c0-1-0.4-1.6-1.5-1.6l-1.3,0L122,19.5z M122,14.6l1.5,0c0.5,0,1.2-0.3,1.2-1.4c0-0.8-0.6-1.4-1.3-1.4l-1.4,0L122,14.6z M119.7,21.2
		l0-11.1l4.1,0c1.8,0,3.2,0.5,3.2,2.9c0,1.3-0.6,2.2-1.9,2.4v0c1.6,0.2,2.1,1.3,2.1,2.8c0,2.8-2.4,2.9-3.4,2.9L119.7,21.2z
		 M130.5,18.7c0,0.6,0.1,1.2,0.8,1.2c1.3,0,1.1-1.7,1.1-2.6C131.3,17.4,130.5,17.4,130.5,18.7L130.5,18.7z M134.5,19.7
		c0,0.5,0.1,1,0.1,1.4l-2,0l-0.1-1h0c-0.5,0.8-1.1,1.2-2,1.2c-1.5,0-2.1-1.1-2.1-2.5c0-2.6,2-2.7,4-2.6l0-0.6c0-0.7-0.1-1.1-0.9-1.1
		c-0.8,0-0.8,0.6-0.8,1.2l-2.1,0c0-0.9,0.3-1.5,0.8-1.9c0.5-0.4,1.2-0.5,2-0.5c2.7,0,3.1,1.2,3.1,2.6L134.5,19.7z M138.1,14.2
		L138.1,14.2c0.2-0.4,0.5-0.6,0.8-0.7c0.3-0.2,0.7-0.2,1.1-0.2c1,0,1.9,0.6,1.9,1.7l0,6.2l-2.2,0l0-5.3c0-0.7-0.1-1.2-0.8-1.2
		c-0.7,0-0.8,0.5-0.8,1.2l0,5.3l-2.2,0l0-7.7l2.2,0L138.1,14.2z"/>
	<polygon class="st0" points="143.2,21.1 143.2,10 145.4,10 145.4,16.6 145.4,16.6 147.4,13.4 149.6,13.4 147.4,16.8 149.9,21.1 
		147.4,21.1 145.4,16.9 145.4,16.9 145.4,21.1 	"/>
	<path class="st0" d="M73.2,34l2.4,0c0,1.1,0,2,1.4,2c0.8,0,1.2-0.5,1.2-1.3c0-2.1-4.8-2.2-4.8-5.6c0-1.8,0.8-3.2,3.7-3.2
		c2.3,0,3.5,1,3.3,3.4l-2.3,0c0-0.9-0.1-1.7-1.1-1.7c-0.8,0-1.2,0.4-1.2,1.2c0,2.2,4.8,2,4.8,5.6c0,3-2.2,3.3-4,3.3
		C73.6,37.7,73.1,36,73.2,34z"/>
	<polygon class="st0" points="82.3,37.5 82.3,26.1 88.5,26.1 88.5,27.8 84.6,27.8 84.6,30.7 88.2,30.6 88.2,32.4 84.6,32.4 
		84.6,35.7 88.6,35.7 88.6,37.5 	"/>
	<polygon class="st0" points="90.2,37.5 90.2,26.1 92.6,26.1 92.6,35.6 96.2,35.6 96.2,37.5 	"/>
	<polygon class="st0" points="97.3,37.5 97.3,26.1 103.5,26.1 103.5,27.8 99.6,27.8 99.7,30.6 103.2,30.6 103.2,32.4 99.7,32.4 
		99.7,35.7 103.6,35.7 103.6,37.5 	"/>
	<path class="st0" d="M108.6,25.9c2.4,0,3.4,1.3,3.3,3.8l-2.3,0c0-1.5-0.3-2.1-1-2.1c-1.3,0-1.5,1.3-1.5,4.2c0,2.9,0.2,4.2,1.5,4.2
		c1.1,0,1.1-1.4,1.1-2.3l2.3,0c0,3.1-1.2,4-3.4,4c-3.9,0-3.9-2.9-3.9-5.9C104.7,28.7,104.7,25.9,108.6,25.9z"/>
	<polygon class="st0" points="120.5,26 120.5,27.9 117.9,27.9 117.9,37.5 115.5,37.5 115.5,27.9 112.9,27.9 112.9,26 	"/>
	<path d="M65.1,0.2v47.4"/>
	<polygon class="st0" points="64.6,47.6 65.6,47.6 65.6,0.2 64.6,0.2 	"/>
	<polygon class="st0" points="0,47.7 47.6,47.7 47.6,0 0,0 	"/>
	<path d="M13.1,7.8c0,1.2,0,2.3-0.2,2.9c-0.1,0.3-0.3,0.4-0.6,0.4c-0.3,0-0.5-0.1-0.6-0.4c-0.2-0.5-0.2-1.6-0.2-2.9
		c0-1.2,0-2.3,0.2-2.9c0.1-0.3,0.3-0.4,0.6-0.4c0.3,0,0.5,0.1,0.6,0.4C13.1,5.4,13.1,6.5,13.1,7.8 M13.7,4.9
		c-0.4-0.4-0.9-0.6-1.5-0.6c-0.6,0-1.1,0.3-1.5,0.6c-0.6,0.6-1.2,1.5-1.2,2.9c0,1.2,0.4,2.3,1.1,2.9c0.4,0.4,0.9,0.6,1.5,0.6
		c0.6,0,1.1-0.2,1.5-0.6c0.7-0.6,1.1-1.7,1.1-2.9C14.8,6.5,14.4,5.5,13.7,4.9 M41.5,11.1h-1.7V4.4h1.6v0.8c0.2-0.4,0.7-0.8,1.4-0.9
		c1.1-0.1,1.8,0.6,1.8,2v4.9h-1.7V5.9c0-0.6,0-1.1-0.4-1.2c-0.2,0-0.4,0-0.6,0.1c-0.3,0.3-0.4,0.6-0.4,1V11.1z M36.7,7l-0.5,0.4
		c-0.6,0.3-0.7,0.8-0.7,1.3c0,0.4,0,1,0,1.6c0,0.6,0.4,0.7,0.7,0.6c0.4-0.2,0.6-0.7,0.6-1.4V7z M37.7,4.6c0.5,0.3,0.7,0.7,0.7,1.6v5
		h-1.7v-0.7c-0.2,0.5-0.7,0.8-1.4,0.8c-0.6,0-1.7-0.3-1.7-1.8c0-1.4,1-1.7,2-2.2c1-0.4,1.1-0.5,1.1-0.9V5.2c0-0.5-0.3-0.7-0.8-0.6
		c-0.2,0-0.5,0.1-0.6,0.4c0,0.3,0.3,0.4,0.3,0.9c0.1,0.7-0.5,0.9-1,0.9c-0.3,0-0.8-0.2-0.8-0.8c-0.1-0.9,0.9-1.6,2.4-1.6
		C36.9,4.3,37.4,4.4,37.7,4.6L37.7,4.6z M12.8,16l-0.5,0.4c-0.6,0.3-0.7,0.8-0.7,1.3c0,0.4,0,1,0,1.6c0,0.6,0.4,0.7,0.7,0.6
		c0.4-0.1,0.6-0.7,0.6-1.4V16z M13.8,13.6c0.5,0.3,0.7,0.7,0.7,1.6v5h-1.7l0-0.7c-0.2,0.5-0.7,0.8-1.4,0.8c-0.6,0-1.7-0.3-1.7-1.8
		c0-1.4,1-1.7,2-2.2c1-0.4,1.1-0.5,1.1-0.9v-1.2c0-0.5-0.3-0.7-0.8-0.6c-0.2,0-0.5,0.1-0.6,0.4c0,0.3,0.3,0.4,0.3,0.9
		c0.1,0.7-0.5,0.9-1,0.9c-0.3,0-0.8-0.2-0.8-0.8C10,14,11,13.3,12.4,13.3C13,13.3,13.4,13.4,13.8,13.6L13.8,13.6z M32.7,11.1V6.3
		c0-1.4-0.7-2.1-1.8-2c-0.8,0.1-1.2,0.5-1.4,1c-0.3-0.7-0.8-1-1.6-1c-0.7,0-1.1,0.4-1.3,0.9V4.4H25v6.8h1.7V5.9c0-0.5,0.1-0.8,0.4-1
		c0.2-0.2,0.4-0.2,0.5-0.1C28,4.9,28,5.4,28,5.9v5.2h1.7V5.9c0-0.5,0.1-0.8,0.4-1c0.2-0.2,0.4-0.2,0.5-0.1C31,4.9,31,5.4,31,5.9v5.2
		H32.7z"/>
	<polygon points="15.8,11.1 17.5,11.1 17.5,3 15.8,3 	"/>
	<path d="M21.5,4.9c0.4,0.5,0.4,1.8,0.4,2.8s0.1,2.4-0.4,3c-0.2,0.2-0.3,0.3-0.5,0.3c-0.3,0-0.6-0.4-0.7-1.1
		c-0.1-0.6-0.1-1.5-0.1-2.2c0-1,0.1-1.8,0.3-2.5c0.1-0.2,0.3-0.5,0.5-0.5C21.3,4.6,21.4,4.7,21.5,4.9L21.5,4.9z M23.5,11.1V3h-1.7
		v1.9c-0.2-0.4-0.5-0.6-1-0.6c-1.3,0-2.3,1.3-2.3,3.3c0,1.3,0.4,3.6,2.1,3.6c0.7,0,1-0.3,1.2-0.8v0.7H23.5z M30.5,13.3v1.9h-0.2
		c-0.2-0.8-0.5-1.7-1.4-1.7c-0.4,0-1,0.2-1,0.8c0,0.5,0.1,0.9,1,1.4c1.1,0.6,2,1,2,2.3c0,1.6-1.2,2.2-2.5,2.2h-1.8v-2.4h0.2
		c0.3,1.4,0.7,2.1,1.7,2.1c0.6,0,1.1-0.4,1.1-1.1c0-0.6-0.4-1.1-1.4-1.6c-1-0.6-1.7-1-1.7-2c0-1,0.8-1.9,2.1-1.9
		C29.1,13.3,30.5,13.3,30.5,13.3 M25.4,20.1h-1.7v-5.2c0-0.6,0-1.1-0.4-1.2c-0.2,0-0.4,0-0.6,0.1c-0.3,0.3-0.4,0.6-0.4,1v5.2h-1.7
		v-1.9c-0.3,0.9-1,2.1-2.3,2.1c-1.1,0-2.9-0.5-2.9-3.4c0-2.7,1.8-3.6,2.7-3.6c0.7,0,1.2,0.2,1.5,0.7c0.3,0.4,0.3,1-0.1,1.4
		c-0.4,0.5-1.4,0.4-1.6-0.2c-0.2-0.6,0.2-0.9,0.4-1.2c0.1-0.2,0.1-0.5-0.4-0.5c-0.6,0-0.8,0.7-0.9,1.3c-0.2,1.4-0.1,2.8,0,3.8
		c0.1,0.7,0.3,1.3,1.2,1.4c1.1,0,2.1-1.6,2.2-3.1V12h1.7v1.9c0.2-0.3,0.7-0.6,1.3-0.7c1.1-0.1,1.8,0.6,1.8,2V20.1z M8.5,2.9v2.6H8.3
		C8,4.2,7.4,3.1,6.4,3.1c-0.6,0-1,0.3-1.3,0.8C4.8,4.5,4.7,5.8,4.7,7.3c0,1.4,0.1,2.4,0.2,3.2c0.1,0.4,0.3,0.9,1,0.9
		c0.4,0,0.6-0.1,0.8-0.3c0.3-0.3,0.3-0.9,0.3-1.3V8.3c0-0.5-0.2-0.8-0.4-0.9C6.3,7.2,6,7.2,5.9,7.2V7h2.8v6.9H8.4
		c-0.1-0.6-0.2-1-0.5-1.5c-0.2-0.4-0.8-0.9-1.5-0.9C5.6,11.6,5,12,5,12.8c0,1,0.6,1.2,1.7,1.8c1,0.6,2.4,1,2.4,2.8
		c0,1.6-1.3,2.7-2.9,2.7H3.4v-3.2h0.3c0.4,2.7,1.7,2.9,2.5,2.9c1,0,1.3-0.8,1.3-1.6c0-0.9-0.7-1.3-1.9-1.9c-1.5-0.8-2.2-1.2-2.2-2.6
		c0-1.1,1-1.9,2-2.2c-2.2-0.3-2.8-2.2-2.8-4.3c0-2.1,1.3-4.3,3.7-4.3H8.5z"/>
</g>
</svg>
