<svg xmlns="http://www.w3.org/2000/svg" xmlns:xlink="http://www.w3.org/1999/xlink" width="504" height="91" viewBox="0 0 504 91">
  <defs>
    <polygon id="cover_pnr-a" points=".053 .154 503.141 .154 503.141 90.999 .053 90.999"/>
  </defs>
  <g fill="none" fill-rule="evenodd">
    <path fill="#FFFFFE" d="M403 12.0017333L403 76 437 76 437 64.7318817 415.11453 64.7076156 415.127091 53.2341025C415.127091 53.2341025 414.985327 49.9105189 418.32934 49.9027191L434.383649 49.9148521 434.34776 38.3356083 415.147728 38.3260752 415.147728 25.9841837C415.147728 25.9841837 415.147728 23.4119814 418.252177 23.5194453L436.845675 23.5428448 436.846572 12 403 12.0017333M459.084156 41.3189656L467.97319 41.3172074C471.534708 40.895238 472.07649 39.2434033 472.07649 39.2434033 473.578544 37.2583887 473.435284 32.5806814 473.435284 32.5806814 473.634111 27.5812224 472.310914 25.6067569 472.310914 25.6067569 471.320253 23.6085557 468.17549 23.4300978 468.17549 23.4300978L459.084156 23.4177903 459.084156 41.3189656zM459.066791 76.9947254L447.012155 76.9947254 447 12.0017582 471.732667 12C479.407903 12.1090088 482.208843 17.1849498 482.208843 17.1849498 486.449324 22.8912076 485.78599 31.9661883 485.78599 31.9661883 486.2149 41.7479679 483.229025 45.9324984 483.229025 45.9324984 480.329973 51.5297475 475.392296 52.0730332 475.392296 52.0730332L488 77 477.04716 77C473.742641 76.8584644 472.750244 74.7319141 472.750244 74.7319141L462.940007 54.7358363C462.317479 53.0971882 460.84755 53.3776221 460.84755 53.3776221L459.068527 53.3776221 459.066791 76.9947254zM192.451857 23.7195927L192.438758 45.1136214 198.571911 45.1136214C198.571911 45.1136214 202.612649 45.4351116 204.1872 43.9778652 204.1872 43.9778652 206.831538 42.1815608 206.724123 34.362147 206.724123 34.362147 206.699671 26.5181383 203.987215 24.7051445 203.987215 24.7051445 202.89123 23.6062806 200.170915 23.7072953L192.451857 23.7195927zM203.087721 12.0001342C211.052175 11.9711474 214.515664 16.6476874 214.515664 16.6476874 219.407865 21.8099762 218.958991 34.090725 218.958991 34.090725 219.519646 47.8366256 214.14626 52.4016103 214.14626 52.4016103 209.5405 57.4268705 202.439736 57.0597041 202.439736 57.0597041L192.722579 57.0597041 192.722579 77 180.575914 77 180.52177 23.8820946 174.031439 23.8820946 174 12C175.718645 12.001891 203.087721 12.0001342 203.087721 12.0001342z"/>
    <polyline fill="#FFFFFE" points="229 12.013 229.012 77 241 77 241 12 229 12.013"/>
    <path fill="#FFFFFE" d="M273.35571 23.4931001C273.35571 23.4931001 270.823856 23.2250234 268.129894 24.6729845 268.129894 24.6729845 265.759276 25.852869 265.059421 30.3581189 265.059421 30.3581189 263.981313 36.9004045 264.089386 45.9100368 264.089386 45.9100368 264.304659 56.5289966 264.68204 58.2988233 264.68204 58.2988233 265.059421 62.4284188 266.622111 64.1982455 266.622111 64.1982455 267.968657 66.7723022 272.709891 66.6118032 272.709891 66.6118032 276.89159 66.9328011 279.092255 64.5652242 279.092255 64.5652242 280.766504 63.3107294 281.407965 58.5790458 281.407965 58.5790458 281.855942 56.4552539 282.030252 46.2319023 282.030252 46.2319023 282.01805 33.7815188 281.333883 30.605374 281.333883 30.605374 281.014895 27.3546189 278.689599 25.0477713 278.689599 25.0477713 277.289017 23.3855224 273.35571 23.4931001zM285.855487 14.9120435C291.189375 18.2903303 292.481885 25.2629267 292.481885 25.2629267 294.206683 31.2161378 293.99141 45.3200945 293.99141 45.3200945 294.098611 57.8164588 292.806101 62.6964955 292.806101 62.6964955 291.33841 70.3327769 287.894915 73.2200236 287.894915 73.2200236 284.886322 76.5002758 280.736871 77.1769742 280.736871 77.1769742 276.211781 78.1954921 273.141309 77.9812043 273.141309 77.9812043 266.568075 78.088782 263.604804 76.747531 263.604804 76.747531 260.264151 75.7281455 258.05477 73.2616665 258.05477 73.2616665 253.412893 68.335649 252.675561 60.9795901 252.675561 60.9795901 252.033228 57.0859715 252.021027 42.6384601 252.021027 42.6384601 251.805754 32.3960222 253.314408 25.7990801 253.314408 25.7990801 254.82219 19.5777924 257.785461 17.0037357 257.785461 17.0037357 263.11935 11.5328892 273.625891 12.0161213 273.625891 12.0161213 282.300432 11.7480446 285.855487 14.9120435 285.855487 14.9120435zM305.011317 12.0202161L305 76.9876244 316.217992 76.9876244 316.217992 27.3132314 328.044502 72.2807965C328.044502 72.2807965 329.100487 77.0210248 334.569323 76.9999298L346.96866 76.9876244 347 12 336.03447 12 336.055363 61.109222 324.182713 15.7944679C324.182713 15.7944679 323.600311 12.0202161 319.994466 12.0202161L305.011317 12.0202161M360 12.0017555L360 77 394 77 394 65.4090019 372.11421 65.3844242 372.127669 53.7635819C372.127669 53.7635819 371.985011 50.3973208 375.329832 50.3894208L391.382821 50.4017096 391.346932 38.6737789 372.14651 38.6650011 372.14651 26.163752C372.14651 26.163752 372.14651 23.5585205 375.252672 23.6673644L393.844782 23.6910643 393.845679 12 360 12.0017555"/>
    <mask id="cover_pnr-b" fill="#fff">
      <use xlink:href="#cover_pnr-a"/>
    </mask>
    <path fill="#FFFFFE" d="M496.672683 71.775375L496.672683 69.895875 497.928293 69.895875C498.571024 69.895875 499.255024 70.035875 499.255024 70.7875 499.255024 71.719375 498.556976 71.775375 497.774634 71.775375L496.672683 71.775375zM496.672683 72.547125L497.733366 72.547125 499.339317 75.187 500.377171 75.187 498.64039 72.505125C499.535122 72.394875 500.223512 71.92675 500.223512 70.842625 500.223512 69.64825 499.507024 69.125 498.067902 69.125L495.76039 69.125 495.76039 75.187 496.672683 75.187 496.672683 72.547125zM497.789561 77.412125C500.672195 77.412125 503.141268 75.187 503.141268 72.13325 503.141268 69.125 500.672195 66.9095 497.789561 66.9095 494.892878 66.9095 492.427317 69.125 492.427317 72.13325 492.427317 75.187 494.892878 77.412125 497.789561 77.412125zM493.495024 72.13325C493.495024 69.64825 495.381951 67.780125 497.789561 67.780125 500.181366 67.780125 502.073561 69.64825 502.073561 72.13325 502.073561 74.669875 500.181366 76.542375 497.789561 76.542375 495.381951 76.542375 493.495024 74.669875 493.495024 72.13325zM105.285951 68.049625C115.704 67.92275 115.449366 59.75725 115.449366 59.75725 115.151707 51.3205 105.48878 51.53225 105.48878 51.53225 97.8348293 51.130625 88.2939512 59.630375 88.2939512 59.630375 98.3309268 69.062 105.285951 68.049625 105.285951 68.049625zM73.6516098 59.94625C73.6516098 59.94625 65.2355122 51.5585 56.8185366 51.653875 56.8185366 51.653875 47.2267317 51.4325 46.4004878 59.85175 46.4004878 59.85175 46.115122 67.92275 56.4049756 68.271 56.4049756 68.271 62.9481951 69.41025 73.6516098 59.94625zM86.579122 22.064875C86.7696585 27.699 84.2918049 32.50975 84.2918049 32.50975L84.545561 32.669C89.1834146 23.046625 98.1079024 23.55325 98.1079024 23.55325 102.872195 23.64775 104.873268 25.4835 104.873268 25.4835L111.701854 32.44675C101.411122 29.978375 94.1382439 35.263375 94.1382439 35.263375 85.0223415 41.341125 85.625561 49.823375 85.625561 49.823375 96.0190244 41.405875 105.508098 41.94225 105.508098 41.94225 114.581854 41.923 119.070439 45.899 119.070439 45.899 127.487415 51.8805 126.565463 59.444875 126.565463 59.444875 126.820098 68.782 119.736878 73.15 119.736878 73.15 112.97239 78.246 105.603805 77.802375 105.603805 77.802375 97.5679024 77.896875 91.6287805 74.004875 91.6287805 74.004875 84.9907317 70.427875 81.1159024 65.996 81.1159024 65.996 73.9106341 72.7195 69.4150244 74.6515 69.4150244 74.6515 62.6066341 78.243375 55.7385366 78.024625 55.7385366 78.024625 47.5761951 78.150625 42.1770732 73.52975 42.1770732 73.52975 35.0938537 68.212375 35.2843902 60.109 35.2843902 60.109 35.3625366 51.59525 41.724878 46.9035 41.724878 46.9035 47.844878 41.73225 56.3101463 42.069125 56.3101463 42.069125 67.2365854 41.94225 76.3516098 49.95025 76.3516098 49.95025 76.1610732 39.505375 67.2998049 34.820625 67.2998049 34.820625 61.4239024 31.4335 55.674439 31.845625 55.674439 31.845625 52.848 31.81325 50.4026341 32.35225 50.4026341 32.35225L57.2312195 25.673375C60.2490732 23.55325 64.187122 23.71075 64.187122 23.71075 74.6042927 24.0275 77.526439 32.731125 77.526439 32.731125L77.7494634 32.573625C75.2083902 26.9395 75.5894634 22.350125 75.5894634 22.350125 75.4621463 13.488125 81.179122 7.727125 81.179122 7.727125 86.9593171 14.690375 86.579122 22.064875 86.579122 22.064875zM17.4679024 64.952125C17.4679024 64.952125 14.4026341 71.820875 19.0475122 79.195375 19.0475122 79.195375 23.2507317 86.569875 33.7434146 86.538375L126.526829 86.538375C126.526829 86.538375 136.318829 87.003 141.248195 80.906 141.248195 80.906 147.228585 74.466875 144.950927 65.87 144.950927 65.87 144.540878 63.686 142.707512 59.444875L125.294927 14.81725C125.294927 14.81725 122.686244 8.455125 120.080195 6.74625 120.080195 6.74625 117.405659 4.255125 110.251317 4.49925L51.155122 4.49925C51.155122 4.49925 46.548878 4.221875 43.2166829 5.984125 43.2166829 5.984125 39.7641951 7.364875 37.8193171 12.569375L17.4679024 64.952125zM34.0753171 9.6285C36.2247805 4.659375 40.1119024 2.538375 40.1119024 2.538375 44.5363902-.088375 49.9715122.165375 49.9715122.165375L110.110829.165375C119.041463-.02975 121.888976 2.39225 121.888976 2.39225 126.820976 5.567625 128.914244 11.876375 128.914244 11.876375L147.433171 59.226125C153.500488 72.36075 147.117073 80.6855 147.117073 80.6855 143.128098 87.02575 138.413854 88.935875 138.413854 88.935875 133.833951 91.280875 126.986049 90.939625 126.986049 90.939625L38.2153171 90.939625C29.844 91.258125 26.6856585 90.202 26.6856585 90.202 19.3732683 88.386375 14.0716098 80.36875 14.0716098 80.36875 8.85687805 70.651875 13.9451707 60.55525 13.9451707 60.55525L34.0753171 9.6285zM4.24536585 84.763L4.24536585 82.8835 5.50185366 82.8835C6.14370732 82.8835 6.82770732 83.022625 6.82770732 83.775125 6.82770732 84.707 6.12965854 84.763 5.34819512 84.763L4.24536585 84.763zM4.24536585 85.53475L5.30692683 85.53475 6.912 88.174625 7.95073171 88.174625 6.21307317 85.49275C7.10868293 85.3825 7.79707317 84.914375 7.79707317 83.83025 7.79707317 82.635875 7.08058537 82.11175 5.64146341 82.11175L3.33307317 82.11175 3.33307317 88.174625 4.24536585 88.174625 4.24536585 85.53475zM5.3622439 90.39975C8.24487805 90.39975 10.7139512 88.174625 10.7139512 85.120875 10.7139512 82.11175 8.24487805 79.897125 5.3622439 79.897125 2.46556098 79.897125 0 82.11175 0 85.120875 0 88.174625 2.46556098 90.39975 5.3622439 90.39975zM1.06858537 85.120875C1.06858537 82.635875 2.9555122 80.766875 5.3622439 80.766875 7.75404878 80.766875 9.6462439 82.635875 9.6462439 85.120875 9.6462439 87.6575 7.75404878 89.53 5.3622439 89.53 2.9555122 89.53 1.06858537 87.6575 1.06858537 85.120875z" mask="url(#cover_pnr-b)"/>
  </g>
</svg>
