<svg xmlns="http://www.w3.org/2000/svg" width="99" height="20" viewBox="0 0 99 20">
  <g fill="#FFF" fill-rule="evenodd">
    <path d="M88.1993181 7.52247558L88.1993181 17.5171643C88.1993181 18.7618742 87.1781352 19.7747836 85.9240626 19.7747836 84.917926 19.7747836 84.0629062 19.1235348 83.7632894 18.2229544L83.7619811 18.2184093C83.7469348 18.1651666 83.7384304 18.1099761 83.7384304 18.0528376 83.7384304 17.7152011 84.0151507 17.4418454 84.3559811 17.4418454 84.6287762 17.4418454 84.8597035 17.6171567 84.9414767 17.8586966L84.942785 17.8619431C85.0867057 18.2625618 85.4720207 18.5495528 85.9240626 18.5495528 86.4977828 18.5495528 86.9655251 18.0866012 86.9655251 17.5171643L86.9642167 7.50364585 86.9648709 7.50104865C86.9648709 7.47053151 86.9871132 7.44585807 87.0172057 7.44261157L87.021785 7.44196227C87.1892564 7.42572975 87.3606529 7.41663953 87.5366286 7.41663953 87.7440053 7.41663953 87.9474568 7.42962555 88.1437123 7.45235108L88.1463291 7.45300038C88.1751132 7.45559759 88.1986639 7.48092032 88.1986639 7.51078816L88.1993181 7.52247558zM76.3460742 7.4280023C76.3349531 7.43579391 76.3212152 7.44033902 76.3074773 7.44033902 76.2688804 7.44033902 76.2374795 7.40982187 76.2374795 7.37151312 76.2374795 7.360475 76.2400963 7.35073549 76.2446756 7.34099598L76.2479465 7.33580157C78.1581667 3.01665198 82.5052262 0 87.5620764 0 92.6208892 0 96.969257 3.01924919 98.8775148 7.34229458L98.8788231 7.34683969C98.8827482 7.3552806 98.885365 7.36437081 98.885365 7.37411032 98.885365 7.41176978 98.8539641 7.44293622 98.8160214 7.44293622 98.804246 7.44293622 98.7931249 7.43904041 98.7833121 7.43449531L98.7734993 7.4312488C97.8975456 6.91830109 96.6735654 6.60079295 95.3194024 6.60079295 93.7565544 6.60079295 92.3670654 7.02478644 91.4858782 7.68187895L91.4819531 7.68512545C91.4701778 7.69421567 91.4551315 7.69941007 91.4394311 7.69941007 91.4237306 7.69941007 91.4086844 7.69421567 91.396909 7.68512545L91.3929839 7.68252825C90.5098341 7.02478644 89.1203452 6.60079295 87.556843 6.60079295 85.9939949 6.60079295 84.6045059 7.02478644 83.7220104 7.68252825L83.7187394 7.68447615C83.7056557 7.69421567 83.6912637 7.69941007 83.674909 7.69941007 83.660517 7.69941007 83.6474333 7.69551427 83.6363121 7.68837196L83.6304244 7.68317755C82.748583 7.02543574 81.3571315 6.60079295 79.7936293 6.60079295 78.4460081 6.60079295 77.2285698 6.91505459 76.3532703 7.42345719L76.3460742 7.4280023zM73.1338949 19.5383731L73.4236989 17.7424068C73.7481747 17.8144792 75.4778399 18.0703038 76.5062187 18.0703038 77.8937452 18.0703038 78.2842936 17.8320103 78.4046637 16.7223551 78.5184919 15.7061992 78.3523289 15.5724432 76.7934059 15.0776759 74.3179698 14.2848795 73.7592958 13.8803651 74.0105029 11.6026175 74.2525513 9.41642138 75.3954126 8.6379096 77.900287 8.6379096 79.123613 8.6379096 80.4620756 8.80348133 80.9448641 8.93788661L80.71132 10.7208669C80.1330205 10.6293155 78.6944676 10.4488098 77.6844059 10.4488098 76.5677121 10.4488098 76.1895932 10.7345022 76.0914654 11.6182007 75.9763289 12.6518878 76.1745469 12.7570745 77.6778641 13.2356093 80.0486306 14.014121 80.7917848 14.4192848 80.5353443 16.7093691 80.2703993 19.1046401 79.1478178 19.8545826 76.2785623 19.8545826 74.7857121 19.8545826 73.6500469 19.6448585 73.1338949 19.5383731zM71.4313784 19.7321894L69.3464907 19.7321894 68.0106449 15.4312203 66.3182683 15.4312203 65.8387507 19.7321894 63.7859181 19.7321894 65.0007396 8.77328883 69.0475282 8.77328883C71.4451163 8.77328883 72.5925568 9.34207642 72.2811648 12.1282266 72.0731339 14.0306782 71.3280172 14.7929575 70.0032925 15.1663055L71.4313784 19.7321894zM68.3789511 13.6930418C69.3464907 13.6930418 70.0059093 13.6573302 70.1845018 12.0529077 70.3637485 10.4354991 69.6205943 10.5121166 68.6851097 10.5121166L66.8605877 10.5121166 66.5099445 13.6930418 68.3789511 13.6930418zM56.2049604 8.7732239L62.7160639 8.7732239 62.5132665 10.6003566 58.1020969 10.6003566 57.8116388 13.2053518 61.3893767 13.2053518 61.1846167 15.0558594 57.610804 15.0558594 57.2915617 17.8991481 61.8446894 17.8991481 61.6458172 19.7321245 54.9921013 19.7321245 56.2049604 8.7732239zM53.8121478 17.899213C53.5537447 19.060163 53.0447888 19.7321894 51.8685641 19.7321894L46.6442425 19.7321894 47.8597183 8.77328883 49.9563813 8.77328883 48.944357 17.899213 53.8121478 17.899213zM39.0766956 8.7732239L45.5858366 8.7732239 45.382385 10.6003566 40.9712154 10.6003566 40.6827198 13.2053518 44.2604577 13.2053518 44.0530811 15.0558594 40.4792683 15.0558594 40.1606802 17.8991481 44.7157705 17.8991481 44.5155899 19.7321245 37.8605656 19.7321245 39.0766956 8.7732239zM28.2401861 8.7732239L30.4127346 8.7732239 31.9153976 16.7817012 35.0895033 8.7732239 37.1881289 8.7732239 32.6003293 19.7925095 30.4729196 19.7925095 28.2401861 8.7732239zM20.4946355 19.7321245L18.3960099 19.7321245 23.1440848 8.71348822 25.1596289 8.71348822 27.345261 19.7321245 25.1890672 19.7321245 24.8469284 17.9062904 21.256761 17.9062904 20.4946355 19.7321245zM23.7949989 11.5846968L21.9763645 16.185643 24.5244152 16.185643 23.7949989 11.5846968zM17.2294018 19.7321894L15.1615229 19.7321894 13.8256771 15.4312203 12.1156374 15.4312203 11.6374282 19.7321894 9.58524978 19.7321894 10.7994172 8.77328883 14.843589 8.77328883C17.2437938 8.77328883 18.389926 9.34207642 18.0798423 12.1282266 17.8691947 14.0306782 17.1253863 14.7929575 15.80197 15.1663055L17.2294018 19.7321894zM14.2103379 13.6930418C15.1765692 13.6930418 15.837296 13.6573302 16.013926 12.0529077 16.1938269 10.4354991 15.4179634 10.5121166 14.5158423 10.5121166L12.658611 10.5121166 12.3033885 13.6930418 14.2103379 13.6930418zM.203451542 8.7732239L9.20961674 8.7732239C8.95186784 9.93287531 8.44225771 10.6068496 7.26668722 10.6068496L5.5337511 10.6068496 4.5380815 19.7321245 2.42310132 19.7321245 3.43512555 10.6003566 0 10.6003566.203451542 8.7732239z"/>
  </g>
</svg>
