<svg xmlns="http://www.w3.org/2000/svg" viewBox="0 0 358.94 102.8"><defs><style>.cls-1{fill:#fff;}</style></defs><title>cover__tnc</title><g id="Layer_2" data-name="Layer 2"><g id="Layer_1-2" data-name="Layer 1"><path class="cls-1" d="M0,67a44.53,44.53,0,0,1,1.54-5.42C5,53.48,12.8,49.61,21.78,51.48c1.06.22,2.11.47,3.16.7,1.33.29,2.67.64,3.71-.71.11-.14.5-.06.9-.09,0,3.16,0,6.25,0,9.35,0,.23-.28.47-.42.7-.25-.24-.64-.43-.74-.72A12.76,12.76,0,0,0,25,54.82c-5.79-5-15.35-2.54-18.34,5a20.65,20.65,0,0,0,1,18,12.19,12.19,0,0,0,21.22.53L29.69,77c1.08.39.85,1,.48,1.72-2.65,4.77-6.81,7.17-12.15,7.58C9.34,86.94,2.28,81.93.41,73.84.28,73.28.14,72.72,0,72.16Z"/><path class="cls-1" d="M312.45,77.59a3.32,3.32,0,0,1,2,2.29,9.45,9.45,0,0,0,4.71,5.18c.62.32,1.19.72,1.67,1l-1.66,1.67c.65.62,1.2,1.52,2,1.8,1.77.64,3.66,1,5.74,1.49-2.06.54-4,1.19-6,1.55a47.27,47.27,0,0,1-56.11-50.24,44.61,44.61,0,0,1,6.7-20.53A47.23,47.23,0,0,1,283.91,8.2c5.36-3.87,11.21-6.88,17.73-7.95,4.8-.79,9.52.24,13.08,4,2,2.11,2.35,4.85,2.13,7.69a43.92,43.92,0,0,0-.11,5.46A1.59,1.59,0,0,0,318.89,19a32.15,32.15,0,0,0,3.91-1.84c.56-.26,1.53-.79,1.66-.64.48.56,1.1,1.49.92,2a29,29,0,0,1-2.09,4.17,2.53,2.53,0,0,1-.35.41c-2.47,2.89-2.4,3.61.73,5.85a6.27,6.27,0,0,1,2.72,5.16c.07,1.86,1.06,2.58,2.84,2.08A7.19,7.19,0,0,0,334.47,31c0-.09,0-.2.05-.26.62-.72,1.26-1.43,1.89-2.14a15.09,15.09,0,0,1,2.12,2.07c1.27,1.84.8,4,.77,6a25.76,25.76,0,0,0,.1,3.48,2.56,2.56,0,0,0,2.32,2.43c3.12.44,4.59,3.05,5,5.55a12.07,12.07,0,0,0,.46,1.55,18.27,18.27,0,0,0,5.67-9.81c1-5.06,0-9.89-1.75-14.64a19.72,19.72,0,0,1-.58-2.8,4.88,4.88,0,0,1,3.45,2.68,44.28,44.28,0,0,1,4.61,14.82,46.48,46.48,0,0,1-4,26.15c-.65,1.37-1.38,2.7-2.09,4a5.52,5.52,0,0,1-.55.73c-1.35-.8-2.62-1.62-4-2.33a3.8,3.8,0,0,0-4.2.46,9.1,9.1,0,0,1-6.18,1.78c-2.24-.14-3.3,1.49-2.8,3.89.32,1.53.09,1.91-1.48,1.77-2.23-.2-4.46-.54-6.66-1a6.79,6.79,0,0,0-5.69,1.29,7.91,7.91,0,0,1-3.58,1.47c-1.87.24-3.13-.93-3.77-2.7-1.36-3.74-1-7.16,1.67-10.21a3,3,0,0,0,.38-3.29,5.71,5.71,0,0,1,.2-4.18,6.13,6.13,0,0,0,.34-3.26c-.6-2.61-4.6-3.15-6.78-1A15.63,15.63,0,0,1,308,55.05c-.43.32-1.17.74-1.48.57a2,2,0,0,1-.94-1.49,10.89,10.89,0,0,1,.82-4.26,11.66,11.66,0,0,1,3.22-3.54c3.18-2.43,2.83-5.54-.35-7-1.54-.71-1.65-2.24-1.84-3.67,0-.35,0-.73,0-1.08-.22-1.23-.3-2.56-1.74-3.11a3.3,3.3,0,0,0-3.75.73c-1.87,1.87-3.66,3.81-5.48,5.73-.31.33-.58.69-.89,1-.58.6-1.33,1.48-2.08.68a3.17,3.17,0,0,1-.72-2.58c.71-2.37,1.76-4.64,2.64-7a16.16,16.16,0,0,0,.76-2.57,2.18,2.18,0,0,0-1.5-2.68c-3.27-1.14-5.27-3.59-6.79-6.51-.52-1-.85-1.08-1.59-.23-2,2.29-4.28,4.37-6.05,6.83-2.44,3.39-2.67,7.33-1.84,11.35a2.08,2.08,0,0,1,.14.52c-.06.73-.16,1.45-.24,2.18a11.11,11.11,0,0,1-2-.41c-2.38-1-3.57-.32-3.94,2.19-.78,5.38,1.8,10.25,7.1,13.43,1.12.67,2.24,1.35,3.3,2.1.32.23.71.78.63,1.07a1.73,1.73,0,0,1-1,.93c-1,.38-2.29.33-2.48,1.85s.72,2.64,2,3.38a26.7,26.7,0,0,1,3.71,2.06,23,23,0,0,1,3,3.52,13.48,13.48,0,0,0,1.72,2.32c2.9,2.33,6.48,3.16,10,4,3.75,1,7.56,1.63,11.36,2.39.27.05.6-.17.9-.27Z"/><path class="cls-1" d="M84.78,50.39H71.41v-1.2c4.17-.33,5.33-1.86,5.4-6.42.14-9.46.21-18.92.06-28.37-.09-5.23-1.27-6.35-6.53-7.75V5.42c3.69,0,7.33,0,11,0,.42,0,.91.5,1.22.88Q94,20.6,105.45,34.88l4.49,5.57c0-.76.08-1.19.08-1.62q0-12.5,0-25c0-.45,0-.9,0-1.35-.22-4-1.32-5.23-5.32-5.83V5.48H118l.08,1.13a2.17,2.17,0,0,1-.44.16c-3.68.29-5.17,1.72-5.24,5.47-.11,5.36-.05,10.72-.06,16.08q0,10.34,0,20.67c0,.44,0,.88,0,1.86a8.32,8.32,0,0,1-2-1.22Q99.58,36.43,88.88,23.2L79.2,11.28c0,.82-.08,1.32-.08,1.82q0,14.53,0,29.05c0,.72,0,1.44.08,2.16.24,2.84,1.67,4.32,4.49,4.63C84.55,49,85.27,49.17,84.78,50.39Z"/><path class="cls-1" d="M189.72,50.94V46.08c-1.17,1.07-2.17,2.15-3.33,3-4.51,3.37-10.61,2.79-13.69-1.24a9.24,9.24,0,0,1-1.9-5.79c0-4.28,0-8.56,0-12.83s-.39-4.83-5.08-5.32c.3-.5.49-1.19.76-1.22,3.16-.38,6.32-.66,9.68-1v1.73c0,5.9,0,11.8,0,17.7,0,2.61.6,4.89,3.12,6.1a7,7,0,0,0,7.41-.72c2-1.42,3.36-3.06,3.16-5.9-.29-4.12-.07-8.28-.07-12.42,0-3.19-.77-4-3.93-4.13L184.05,24c.42-.58.64-1.24.94-1.27,3.3-.37,6.61-.65,10.13-1,0,.71,0,1.19,0,1.66q0,10.74,0,21.48c0,3.08.66,3.78,3.67,4.17.41.05.77.49,1.15.75-.39.24-.77.66-1.18.69C195.82,50.67,192.86,50.79,189.72,50.94Z"/><path class="cls-1" d="M120.42,30.79l-1.19-.39c.32-4.21,4.6-8.22,9-8.51,6.89-.46,11.14,3.49,11.18,10.4,0,4.32,0,8.64,0,13,0,2.62.91,3.48,3.53,3.84.41.06.77.45,1.15.69-.39.23-.78.64-1.18.65-2.34.06-4.68,0-7,.07-1.26.06-1.74-.33-1.56-1.58a11.91,11.91,0,0,0,0-1.54c-1,.84-1.77,1.56-2.62,2.19C127.2,53,120.55,51.05,119,45.93a6.44,6.44,0,0,1,3.32-8,55.29,55.29,0,0,1,6.66-2.5c1.39-.5,2.82-.9,4.21-1.41a1.5,1.5,0,0,0,.86-.73c1-2.93-1.12-7.13-4-8.13a7.45,7.45,0,0,0-8.9,4C120.88,29.67,120.69,30.17,120.42,30.79Zm13.66,4.59c-2.35.87-4.54,1.55-6.61,2.48a5.69,5.69,0,0,0-2.6,8.17,4.05,4.05,0,0,0,4.79,2.07c2.18-.52,4.38-2.38,4.4-3.87C134.11,41.35,134.08,38.48,134.08,35.38Z"/><path class="cls-1" d="M254.12,43.92a11.79,11.79,0,0,1-1.27,2.58c-4.12,4.88-11,6.21-17.23,3.4a14.1,14.1,0,0,1-8.14-14.78c.79-6,3.68-10.4,9.45-12.54,6.7-2.48,14.32,1.2,16.12,7.66.88,3.14.79,3.25-2.37,3.25H233.15c-.55,5.21,1.61,11.42,5.88,14a9.47,9.47,0,0,0,11.8-1.2c.94-.87,1.79-1.86,2.68-2.79ZM233,32h15.11c0-3.23-.89-5.92-3.74-7.53a7,7,0,0,0-7.8.19C234,26.4,233.22,29.07,233,32Z"/><path class="cls-1" d="M164,45.69a5.43,5.43,0,0,1,.45.4c.15.17.27.35.43.57-2.12,2.67-4.67,4.54-8.19,4.6a7.66,7.66,0,0,1-8.22-8c0-5.67,0-11.35,0-17,0-.49,0-1,0-1.6h-5.55c.45-.79.6-1.47,1-1.72a22.16,22.16,0,0,0,8-8.6A6.31,6.31,0,0,1,153.34,13l.43.3v9.14h9.63v2.1h-9.51c0,.6-.07,1.07-.07,1.55,0,5.18,0,10.36,0,15.53,0,2.56.21,5,2.94,6.27C159,48.9,161.44,48.15,164,45.69Z"/><path class="cls-1" d="M217,49.19v1.28H208c-1.58,0-3.15,0-4.73,0-.31,0-.61-.41-.92-.63.28-.26.53-.69.85-.75,3.23-.6,3.79-1.23,3.8-4.52q0-7.84,0-15.67c0-4-.71-4.68-4.71-4.83L201.08,24c.34-.56.54-1.24.8-1.27,3.43-.37,6.87-.66,10.49-1v5.92c2.09-1.58,3.93-3.07,5.88-4.41,2.8-1.92,5.08-1.82,7.85.09.65.45.92.81.5,1.63-.64,1.23-1.11,2.55-1.69,3.95-1.34-.6-2.61-1.23-3.92-1.74a6.93,6.93,0,0,0-8.35,2.55,2.68,2.68,0,0,0-.25,1.41c0,4.19,0,8.38,0,12.56C212.3,48.82,213.17,48.74,217,49.19Z"/><path class="cls-1" d="M65.09,64.06v4c.71-.64,1.21-1.1,1.73-1.54,2-1.71,4.21-2.78,6.92-2.3a6.83,6.83,0,0,1,5.92,7c0,3.47,0,6.94.06,10.4,0,2.07.53,2.54,2.59,2.9a3.12,3.12,0,0,1,.9.52c-.31.16-.61.45-.92.46q-4.59.06-9.19,0c-.33,0-.66-.28-1-.43.29-.19.57-.48.88-.54,2.25-.39,2.65-.83,2.65-3.08,0-3.38,0-6.76,0-10.13a4.52,4.52,0,0,0-2.34-4.4,4.76,4.76,0,0,0-5.33.49c-1.87,1.38-3.21,2.93-2.94,5.6s.05,5.58.07,8.37c0,2.23.5,2.76,2.65,3.14.3.05.56.36.84.56-.28.15-.56.42-.84.42q-4.66,0-9.32,0c-.28,0-.56-.27-.84-.41.29-.19.56-.5.87-.55,2-.31,2.53-.75,2.56-2.9q.09-6.55,0-13.1c0-2-.5-2.37-2.45-2.7a3.65,3.65,0,0,1-1-.55c.33-.2.65-.54,1-.58C60.69,64.45,62.79,64.28,65.09,64.06Z"/><path class="cls-1" d="M192.54,67.46c2.07-1.09,4-2.54,6.07-3.1A6.72,6.72,0,0,1,207,71c.06,3.24,0,6.48,0,9.72,0,2.75.3,3.09,2.9,3.78.23.06.39.35.58.53-.23.15-.47.42-.7.42q-4.79,0-9.59,0c-.25,0-.5-.32-.76-.5a2.7,2.7,0,0,1,.81-.47c2.5-.42,2.74-.69,2.74-3.23,0-3.38,0-6.75,0-10.13a4.31,4.31,0,0,0-2.2-4.18,4.62,4.62,0,0,0-5.1.21c-2,1.35-3.51,2.89-3.27,5.68s0,5.49.06,8.23c0,2.53.35,2.88,2.79,3.42.24.05.44.31.66.47-.22.17-.43.48-.65.49q-4.79,0-9.59,0c-.22,0-.44-.31-.66-.48.22-.16.42-.43.66-.47,2.39-.46,2.67-.74,2.68-3.15q0-6.41,0-12.83c0-2-.34-2.32-2.38-2.72-.35-.07-.66-.41-1-.62a3,3,0,0,1,1-.53c1.74-.22,3.49-.36,5.23-.56.89-.1,1.37.12,1.28,1.14C192.49,66.1,192.54,66.94,192.54,67.46Z"/><path class="cls-1" d="M33.71,24.93a29.3,29.3,0,0,1,3-2.34,5.82,5.82,0,0,1,9,5.06c0,2.57,0,5.13,0,7.7s.08,2.71,2.54,3.61c.16.06.24.3.44.55H39.37c.15-.31.17-.45.22-.46,2.72-.51,2.71-.89,2.74-3.68,0-2.57,0-5.13,0-7.7,0-1.51-.34-2.91-1.84-3.64a4.14,4.14,0,0,0-4.35.41c-1.5,1-2.57,2.23-2.41,4.31.18,2.46,0,5,0,7.43,0,2,.25,2.31,2.18,2.72a1,1,0,0,1,.71.67,3.34,3.34,0,0,1-.71.16c-2.57,0-5.13,0-7.7,0-.32,0-.63-.27-.94-.42a2.79,2.79,0,0,1,.83-.41,2.24,2.24,0,0,0,2.18-2.55q0-12,0-24c0-1.46-.76-2.11-2.16-2.19-.29,0-.57-.27-.85-.42.29-.18.57-.47.88-.51,1.78-.23,3.57-.39,5.52-.6Z"/><path class="cls-1" d="M55.51,75.12c0,6.33-4.79,11.05-11.28,11.08s-11.51-4.65-11.5-11,4.82-11.07,11.42-11.08S55.49,68.81,55.51,75.12Zm-4,0a46.66,46.66,0,0,0-1.55-5.89,5.87,5.87,0,0,0-5.48-3.92,5.92,5.92,0,0,0-6,3.57,14.17,14.17,0,0,0-.11,12.26,6,6,0,0,0,6.12,3.76A5.93,5.93,0,0,0,50,80.78,47.91,47.91,0,0,0,51.46,75.16Z"/><path class="cls-1" d="M177.11,85.5,177,83.35a27.39,27.39,0,0,1-2.55,1.91,6,6,0,0,1-6.4-.07,5.12,5.12,0,0,1-2.62-5,4.39,4.39,0,0,1,2.62-4c1.91-.87,4-1.4,5.93-2.18,1.19-.48,3-.21,2.86-2.45-.16-2.6-1.18-4.34-3.22-4.9-2.64-.72-5.07.48-6.46,3.14a2.35,2.35,0,0,1-1.11.93c0-3.18,3-6.14,6.21-6.45,5.13-.5,8.44,2.38,8.55,7.52.07,3.2,0,6.39,0,9.59,0,2.14.54,2.65,2.62,3a3,3,0,0,1,.88.53c-.3.17-.59.47-.89.47C181.35,85.52,179.29,85.5,177.11,85.5Zm-.34-11.11c-1.2.41-2.26.76-3.31,1.14a13.74,13.74,0,0,0-1.73.74A4.14,4.14,0,0,0,169.51,81a3.32,3.32,0,0,0,3.13,2.84c1.7,0,4-1.44,4.09-2.75C176.86,78.91,176.77,76.72,176.77,74.39Z"/><path class="cls-1" d="M233.27,98.43c3.81.69,5.51-.21,6.92-3.77,1-2.59,1.93-5.23,2.83-7.87a2.3,2.3,0,0,0-.09-1.51c-2.37-5.54-4.78-11.07-7.19-16.59-.66-1.51-1.54-2.75-3.41-2.85-.24,0-.46-.4-.69-.62.23-.15.46-.42.7-.42,3.05,0,6.11,0,9.55,0-.39.57-.52,1-.81,1.14A1.81,1.81,0,0,0,240,68.47c1.6,3.95,3.29,7.86,5.12,12.18l1.74-5.28c.69-2.09,1.41-4.17,2.06-6.27s.44-2.29-1.34-3.27c-.2-.11-.3-.38-.45-.58.22-.16.44-.45.66-.45,2,0,4.05,0,6.08,0,.21,0,.41.25.61.39-.17.22-.32.59-.53.63-2.44.42-3.31,2.31-4,4.3-2.89,8.42-5.64,16.88-8.67,25.25a20.93,20.93,0,0,1-3.68,6,3.76,3.76,0,0,1-4.9.9,1.19,1.19,0,0,1-.5-1C232.5,100.3,232.92,99.36,233.27,98.43Z"/><path class="cls-1" d="M11.23,12.79a41.36,41.36,0,0,0-4.29,0,8.83,8.83,0,0,0-3.84.94c-1,.65-1.48,2-2.45,3V10.69a96.62,96.62,0,0,0,25.17,0V17c-.31-.38-.51-.52-.56-.69-.64-2.52-2.49-3.39-4.84-3.48-1.7-.07-3.4,0-5.22,0,0,.53-.08,1-.08,1.39q0,10.33,0,20.66c0,2.84.12,3,2.77,4.11.12.05.18.27.39.61H8.19l-.13-.26A3.88,3.88,0,0,1,9,38.86a2.49,2.49,0,0,0,2.14-2.28,11.58,11.58,0,0,0,.21-1.6q0-10.6,0-21.2C11.33,13.52,11.28,13.26,11.23,12.79Z"/><path class="cls-1" d="M121.26,80.7a5.62,5.62,0,0,1-.58,1.63c-2.76,3.58-7.48,4.8-12.2,3.21a10.34,10.34,0,0,1-7.11-9.83c0-6.15,3.58-10.68,9.18-11.52,5.3-.79,10.43,3.41,10.2,8.55h-15C105,79,109,85.38,115,84.33c1.6-.28,3-1.55,4.5-2.46a7.21,7.21,0,0,0,1.28-1.35Zm-4.46-8.91c.12-2.32-.51-4.21-2.43-5.46a5.25,5.25,0,0,0-6-.14c-2,1.24-2.72,3.21-2.76,5.59Z"/><path class="cls-1" d="M85.31,78.79a4.87,4.87,0,0,1,.88,1.15c1.12,3.09,3.35,4.93,6.19,5a3.59,3.59,0,0,0,2.34-6.53,53.28,53.28,0,0,0-5-2.61c-1.83-.92-3.64-1.87-4.26-4A5.48,5.48,0,0,1,87,66a6.19,6.19,0,0,1,6.36-1.54c1.28.38,2.56,1.41,3.75-.19,0,0,.84.35.85.55.07,1.88,0,3.76,0,5.59-1.11.52-1.22-.18-1.41-.86-.82-2.88-2.87-4.41-5.49-4.13a2.92,2.92,0,0,0-2.73,1.87,2.75,2.75,0,0,0,.94,3.27A35.51,35.51,0,0,0,93,72.7a34.49,34.49,0,0,1,3.73,2.13,6.13,6.13,0,0,1,1.78,7.63A6.47,6.47,0,0,1,91.26,86a27.67,27.67,0,0,1-3-1.08c-.9-.34-1.64-.34-2.17.64-.13.23-.54.31-.82.46a2.27,2.27,0,0,1-.33-.76c0-2.07,0-4.13,0-6.2Z"/><path class="cls-1" d="M230.27,64.22c0,2.1,0,4.12,0,6.14a2,2,0,0,1-.42,1.2,5,5,0,0,1-.92-1.13c-1.13-2.78-2.91-4.77-6.07-5-3.34-.3-6,1.55-7.06,5a11.82,11.82,0,0,0,1.5,10.46c3,4.41,8,4.7,12,.83a4.7,4.7,0,0,1,1.59-1.1,7.23,7.23,0,0,1-.85,1.88,11.48,11.48,0,0,1-14.4,2.09C211.57,82,210,76.1,212,71.08a10.76,10.76,0,0,1,13.59-6.39c1.35.4,2.65,1.11,3.7-.5,0-.07.25-.06.39-.06A4.74,4.74,0,0,1,230.27,64.22Z"/><path class="cls-1" d="M131.2,68.45c1.71-1.26,3.15-2.42,4.68-3.43a4.32,4.32,0,0,1,5.59.29,1.35,1.35,0,0,1,.33,1.18c-.32,1-.8,1.89-1.26,2.92-1.15-.49-2.22-1-3.35-1.41a5.14,5.14,0,0,0-5.8,2.08,2.08,2.08,0,0,0-.21,1c0,3.56,0,7.11,0,10.67,0,1.81.59,2.39,2.47,2.72a3.64,3.64,0,0,1,.94.47c-.34.18-.67.51-1,.51q-4.52.06-9,0c-.31,0-.61-.31-.92-.48a3,3,0,0,1,.91-.51c2-.29,2.53-.71,2.56-2.74.08-4.32.13-8.64,0-13-.05-2.41-.48-2.67-2.91-3a4.65,4.65,0,0,1-1.28-.59,5.08,5.08,0,0,1,1.34-.58c1.83-.22,3.68-.32,5.51-.52,1-.11,1.53.15,1.43,1.28C131.13,66.34,131.2,67.28,131.2,68.45Z"/><path class="cls-1" d="M156.16,80c1.44-3.85,2.94-7.69,4.31-11.57.5-1.43-.08-2.14-1.58-2.53a4.67,4.67,0,0,1-1.08-.62l.18-.51c2.37,0,4.74,0,7.11,0a.68.68,0,0,1,.45.5c0,.19-.27.53-.44.54-2.47.17-3.15,2.07-3.87,3.95Q158.29,77.4,155.3,85c-.15.38-.59.65-.9,1-.3-.33-.73-.61-.9-1-2.07-5-4.09-10-6.14-15-.78-1.89-1.32-4-4-4.19-.16,0-.41-.38-.4-.57s.34-.43.53-.43q4.46,0,8.91,0c.18,0,.53.34.5.43-.08.25-.28.59-.49.64-1.65.39-1.81,1.52-1.3,2.8,1.51,3.8,3.1,7.56,4.66,11.33Z"/><path class="cls-1" d="M347.83,38c-.65-10.68-3.6-20.43-11.34-28.27.25,5-1.9,9-4.44,13,.21-.62.43-1.25.63-1.88s.39-1.29.54-1.95c.9-4,1.08-7.89-.81-11.69-1.2-2.43-3.33-3.69-5.64-4.77-1.32-.62-2.65-1.21-4-1.82L323,.13c2.41.86,4.91,1.54,7.22,2.62,10.2,4.77,15.52,13.16,17.22,24,.57,3.67.57,7.42.84,11.13Z"/><path class="cls-1" d="M66.66,29.12H54.11c-.63,3.11,1,7.16,3.51,8.72,3.84,2.38,6.71.59,9.28-2.41l.31.31a6.71,6.71,0,0,1-.81,1.66c-2.86,3.19-7.26,3.86-11.34,1.79-3.59-1.82-5.36-5.87-4.47-10.21a8.94,8.94,0,0,1,8.28-7.27C63.07,21.39,67.05,25.07,66.66,29.12Zm-3.23-1c-.16-3.45-2.05-5.45-4.92-5.29a4.76,4.76,0,0,0-4.41,5.29Z"/><path class="cls-1" d="M309.8,75.51a6,6,0,0,1-1.86-.44,61.57,61.57,0,0,1-12.67-10.53,44.28,44.28,0,0,1-10.68-20.19,22,22,0,0,1-.53-3.85c.76,1.95,1.47,3.91,2.29,5.84A65.39,65.39,0,0,0,294,59.44a82.8,82.8,0,0,0,15.26,15.48,3,3,0,0,1,.46.62Z"/><path class="cls-1" d="M323.53,82.81c5.65,1.19,11.2,1.29,16.82-1.66-.71-.19-1.1-.32-1.5-.41a4,4,0,0,1-1.32-.44c4.77-.41,8.33-3.14,11.9-5.92C344.26,82.87,334,87.32,323.53,82.81Z"/><path class="cls-1" d="M309.8,75.51l-.09,0,2.74,2.05,0,0c-.85-.42-1.72-.82-2.54-1.29C309.8,76.18,309.84,75.77,309.8,75.51Z"/></g></g></svg>