<svg xmlns="http://www.w3.org/2000/svg" viewBox="0 0 368.6 92.73"><defs><style>.cls-1{fill:#fff;}</style></defs><title>cover__filld</title><g id="Layer_2" data-name="Layer 2"><g id="Layer_1-2" data-name="Layer 1"><path class="cls-1" d="M10,35.29c.07.71.2,1.43.2,2.14q0,18.61,0,37.22c0,2.84.26,3.12,3.18,3.14,1.62,0,3.24,0,4.85,0,2.63,0,3.16-.6,3.15-3.33q0-8.78,0-17.57c0-.69.06-1.37.1-2.26.75,0,1.41-.12,2.07-.12,5.93,0,11.87-.06,17.8,0,1.69,0,2.49-.68,2.57-2.21a53.21,53.21,0,0,0,0-5.77c-.1-1.86-1.38-2.36-3.06-2.35-5.55,0-11.1,0-16.64,0H21.55V28.37c3.91,0,7.73,0,11.56,0s7.55,0,11.32.15a3.29,3.29,0,0,1,2.36,1.26A100.64,100.64,0,0,1,57,51.52c3.09,10,2.82,19.68-3.37,28.54C49.2,86.33,43.16,90.1,35.65,92,23.56,95,9.88,88.24,3.87,77.66-.74,69.54-1,61.11,1.81,52.57c1.79-5.49,4.42-10.71,6.69-16a9.15,9.15,0,0,1,.83-1.3Z"/><path class="cls-1" d="M317,47.9c0-8.93.05-17.87,0-26.8,0-2.14.77-2.87,2.83-2.84,6.16.07,12.32,0,18.48,0,15.54,0,27.83,10.54,30,26,2,14.12-7.17,27.72-20.51,31.87a32.42,32.42,0,0,1-8.58,1.31c-6.46.2-12.94,0-19.4.1-2,0-2.87-.65-2.84-2.82C317.09,65.77,317,56.83,317,47.9Zm11-19.74c0,13,0,25.36.07,37.67,0,.46,1,1.29,1.52,1.31,3.23.11,6.48.18,9.7,0,5.64-.33,10.4-2.57,13.78-7.24,3.67-5.08,4.4-10.73,3.29-16.82s-6.51-12.62-12.73-13.67C338.6,28.55,333.43,28.55,328,28.16Z"/><path class="cls-1" d="M157.37,47.75q0-13.06,0-26.12c0-3.12.22-3.34,3.23-3.35,1.7,0,3.4.09,5.08,0,2.1-.15,2.83.65,2.82,2.8-.08,13.25,0,26.51,0,39.76a41.57,41.57,0,0,1,0,4.39c-.2,1.86.63,2.17,2.26,2.15,5.93-.08,11.87,0,17.8,0,2.94,0,3.51.6,3.43,3.5,0,1.38-.07,2.77,0,4.15.1,1.8-.77,2.52-2.47,2.52q-14.8,0-29.59,0c-2.06,0-2.57-1.07-2.56-2.94C157.4,65.63,157.37,56.69,157.37,47.75Z"/><path class="cls-1" d="M237.39,47.64q0-12.95,0-25.89c0-3.35.13-3.47,3.57-3.47,1.62,0,3.24.08,4.85,0,2-.13,2.72.63,2.71,2.67-.07,13.72,0,27.43,0,41.15,0,5.25,0,5.25,5.15,5.25s10.17,0,15.26,0c2.48,0,3.13.7,3.09,3.15,0,1.38-.1,2.77,0,4.15.17,2.12-.77,2.9-2.82,2.89-8.63,0-17.26,0-25.89,0-1.08,0-2.16,0-3.24,0-2,.07-2.7-.85-2.68-2.81C237.43,65.68,237.39,56.66,237.39,47.64Z"/><path class="cls-1" d="M105.12,48c0,8.86-.05,17.73,0,26.59,0,2.18-.66,3.12-2.91,3-2-.13-4,0-6,0-1.5,0-2.22-.55-2.21-2.19q.06-27.4,0-54.8c0-1.76.73-2.31,2.36-2.25,2.08.07,4.16.08,6.24,0s2.53.83,2.52,2.66C105.09,29.94,105.12,39,105.12,48Z"/><path class="cls-1" d="M29.5,0,39.94,17.66H19Z"/></g></g></svg>