<svg xmlns="http://www.w3.org/2000/svg" viewBox="0 0 120.49 57.05"><defs><style>.cls-1{fill:#333;}</style></defs><title>Asset 4</title><g id="Layer_2" data-name="Layer 2"><g id="Layer_1-2" data-name="Layer 1"><rect class="cls-1" x="66.87" y="49.08" width="6.89" height="6.29" rx="0.22" ry="0.22"/><path class="cls-1" d="M52.44,23.4h0c3.08,0,5.24-.85,6.43-2.49v1.55a.22.22,0,0,0,.22.22h6.07a.22.22,0,0,0,.22-.22V1a.22.22,0,0,0-.22-.22H59.08a.22.22,0,0,0-.22.22V2.51C57.6.84,55.5,0,52.62,0a10.83,10.83,0,0,0-8.13,3.28,11.66,11.66,0,0,0-3.16,8.4,11.84,11.84,0,0,0,3.1,8.45A10.59,10.59,0,0,0,52.44,23.4ZM48.22,11.64A5.08,5.08,0,0,1,49.7,7.95a4.94,4.94,0,0,1,3.65-1.49,5.05,5.05,0,0,1,5.21,5.22,5.2,5.2,0,0,1-1.45,3.79,5,5,0,0,1-3.71,1.47,4.88,4.88,0,0,1-3.69-1.51A5.26,5.26,0,0,1,48.22,11.64Z"/><path class="cls-1" d="M104.25,19.75a12.89,12.89,0,0,0,3-6.38.22.22,0,0,0-.06-.19.21.21,0,0,0-.2-.05l-6.42,1.45a.21.21,0,0,0-.14.1l-.21.36a5.21,5.21,0,0,1-3.31,2.43,4.56,4.56,0,0,1-3.22-.36A4.1,4.1,0,0,1,91.77,15l15.41-3.48a.22.22,0,0,0,.17-.21,8.78,8.78,0,0,0-.21-1.79A11.83,11.83,0,0,0,102,1.87,11,11,0,0,0,93.26.35a10.81,10.81,0,0,0-7.1,5.13,11.58,11.58,0,0,0-1.4,8.82,11.31,11.31,0,0,0,5.09,7.28,11.05,11.05,0,0,0,6,1.83,11.79,11.79,0,0,0,2.6-.3A10.76,10.76,0,0,0,104.25,19.75ZM91.86,7.63h0A4.78,4.78,0,0,1,94.59,6a5.68,5.68,0,0,1,1.25-.15,4.66,4.66,0,0,1,2,.43,4,4,0,0,1,2,1.94l-8.93,2A4.46,4.46,0,0,1,91.86,7.63Z"/><path class="cls-1" d="M47.48,34.3a11.83,11.83,0,0,0-5.1-7.6,11,11,0,0,0-8.77-1.54,10.81,10.81,0,0,0-7.11,5.12,11.59,11.59,0,0,0-1.42,8.82,11.32,11.32,0,0,0,5.07,7.29,11.06,11.06,0,0,0,6.06,1.84,11.76,11.76,0,0,0,2.58-.29,10.76,10.76,0,0,0,5.76-3.35,12.88,12.88,0,0,0,3-6.38.21.21,0,0,0-.06-.19.21.21,0,0,0-.2-.06L40.9,39.4a.22.22,0,0,0-.14.1l-.21.36a5.21,5.21,0,0,1-3.32,2.43A4.55,4.55,0,0,1,34,41.92a4.1,4.1,0,0,1-1.92-2.16l15.42-3.45a.22.22,0,0,0,.17-.21,8.71,8.71,0,0,0-.2-1.79Zm-7.34-1.21-8.93,2a4.47,4.47,0,0,1,1-2.66,4.78,4.78,0,0,1,2.74-1.58,5.73,5.73,0,0,1,1.24-.14,4.66,4.66,0,0,1,2,.43A4,4,0,0,1,40.14,33.09Z"/><path class="cls-1" d="M63.82,36.06c-.94-.81-2.76-1.56-5.55-2.32-2.1-.57-3.16-1.29-3.16-2.15a.93.93,0,0,1,.47-.79,2.39,2.39,0,0,1,1.37-.35,1.4,1.4,0,0,1,1.61,1.39.21.21,0,0,0,.21.19h6.29a.22.22,0,0,0,.21-.24,7.68,7.68,0,0,0-1.47-4,8.06,8.06,0,0,0-6.7-2.94A9.69,9.69,0,0,0,50.82,27a6.49,6.49,0,0,0-2.6,5.2A6.22,6.22,0,0,0,49.55,36a6.59,6.59,0,0,0,3.4,2.26c1.68.54,2.93.84,3.68,1l.71.18a3.91,3.91,0,0,1,1.26.67,1.27,1.27,0,0,1,.46,1,1.23,1.23,0,0,1-.55,1,2.28,2.28,0,0,1-1.44.45c-1.34,0-2.06-.58-2.21-1.77a.22.22,0,0,0-.21-.19H48.22a.21.21,0,0,0-.16.07.22.22,0,0,0-.06.17,8.85,8.85,0,0,0,.68,2.8,6.78,6.78,0,0,0,1.61,2.11,9.32,9.32,0,0,0,6.52,2.41,10,10,0,0,0,6.5-2.13,6.69,6.69,0,0,0,2.64-5.38A5.91,5.91,0,0,0,63.82,36.06Z"/><path class="cls-1" d="M98.21,25.59h-6a.22.22,0,0,0-.22.22v1.44a8.12,8.12,0,0,0-6.1-2.39,10.56,10.56,0,0,0-8,3.37,11.88,11.88,0,0,0-3.18,8.45,11.7,11.7,0,0,0,3.09,8.15,9.84,9.84,0,0,0,7.51,3.38,9.17,9.17,0,0,0,4-.91,6.2,6.2,0,0,0,2.21-1.67,6,6,0,0,1-1,3.67,4.72,4.72,0,0,1-4,1.89c-1.85,0-3-.67-3.6-2a.22.22,0,0,0-.2-.13H75.37a.21.21,0,0,0-.21.24,8.08,8.08,0,0,0,3.48,5.64A12.52,12.52,0,0,0,86,57.05a15.41,15.41,0,0,0,6.47-1.34A10.68,10.68,0,0,0,97,52a7.38,7.38,0,0,0,1.15-2.7,28.55,28.55,0,0,0,.26-4.68V25.8A.22.22,0,0,0,98.21,25.59ZM91.58,36.64a5.06,5.06,0,0,1-1.41,3.7,4.9,4.9,0,0,1-3.63,1.43A4.64,4.64,0,0,1,83,40.26a5.41,5.41,0,0,1-1.41-3.82,5.05,5.05,0,0,1,1.45-3.62,5,5,0,0,1,7.11,0A5.39,5.39,0,0,1,91.58,36.64Z"/><path class="cls-1" d="M120,29.78a6.56,6.56,0,0,0-1.73-2.69,8.29,8.29,0,0,0-6-2.23,7.71,7.71,0,0,0-3.45.7,7,7,0,0,0-2.23,1.87V25.8a.22.22,0,0,0-.22-.22h-6.06a.22.22,0,0,0-.22.22V47.27a.22.22,0,0,0,.22.22h6.46a.22.22,0,0,0,.22-.22V35.16a4.39,4.39,0,0,1,.54-2.46,3.26,3.26,0,0,1,2.87-1.39A2.8,2.8,0,0,1,113,32.53a5.71,5.71,0,0,1,.61,3V47.27a.22.22,0,0,0,.22.22h6.46a.22.22,0,0,0,.22-.22V33.87A13.65,13.65,0,0,0,120,29.78Z"/><path class="cls-1" d="M37.72,20.08a11.63,11.63,0,0,0,3.07-8.17A14,14,0,0,0,40,7.17a11.45,11.45,0,0,0-2.32-3.93A9.83,9.83,0,0,0,30.06,0a8.45,8.45,0,0,0-6.58,2.69V1a.22.22,0,0,0-.22-.22H17.2A.22.22,0,0,0,17,1V27.13a8.73,8.73,0,0,0-6.09-2.27,10.29,10.29,0,0,0-7.81,3.31A11.78,11.78,0,0,0,0,36.52a11.84,11.84,0,0,0,3.09,8.39A10.38,10.38,0,0,0,11,48.22a9,9,0,0,0,3.83-.73,8.49,8.49,0,0,0,2.57-2v1.74a.22.22,0,0,0,.22.22h6.07a.22.22,0,0,0,.22-.22V21a8.71,8.71,0,0,0,6.23,2.38A10,10,0,0,0,37.72,20.08Zm-3.82-8.39a5.2,5.2,0,0,1-1.47,3.74,4.88,4.88,0,0,1-3.64,1.52,5,5,0,0,1-3.69-1.55A5.23,5.23,0,0,1,25,8.09a4.75,4.75,0,0,1,3.72-1.6,5.09,5.09,0,0,1,5.16,5.19ZM17.38,36.43a5.2,5.2,0,0,1-1.52,3.81,5.14,5.14,0,0,1-3.77,1.52,5,5,0,0,1-3.73-1.49,5.19,5.19,0,0,1-1.48-3.8,5,5,0,0,1,1.5-3.71,5.26,5.26,0,0,1,3.8-1.45,5.09,5.09,0,0,1,3.7,1.47A4.93,4.93,0,0,1,17.38,36.43Z"/><path class="cls-1" d="M76.38,23.84a8.83,8.83,0,0,0,5.19-1.79,6.52,6.52,0,0,0,2.55-6.15,7.22,7.22,0,0,0-2.26-4.51,13.76,13.76,0,0,0-5.41-2.46c-2.1-.57-3.16-1.29-3.16-2.15A.94.94,0,0,1,73.76,6a2.4,2.4,0,0,1,1.37-.35A1.4,1.4,0,0,1,76.74,7a.21.21,0,0,0,.21.19h6.29A.22.22,0,0,0,83.46,7,7.69,7.69,0,0,0,82,3,8.06,8.06,0,0,0,75.3,0,9.69,9.69,0,0,0,69,2.14a6.49,6.49,0,0,0-2.6,5.2,6.22,6.22,0,0,0,1.33,3.88,6.53,6.53,0,0,0,3.4,2.26c1.58.47,2.76.78,3.53,1l.85.23a4,4,0,0,1,1.26.67,1.27,1.27,0,0,1,.46,1,1.23,1.23,0,0,1-.55,1,2.91,2.91,0,0,1-1.8.45,15.4,15.4,0,0,0-3.14.24c-4.65,1.13-5.07,5.54-4.88,9.7V47.27a.22.22,0,0,0,.22.22h6.46a.22.22,0,0,0,.22-.22V29c0-2.74,0-4.39,1.68-4.89Z"/></g></g></svg>